SplineFontDB: 3.2
FontName: SourceCodeProShr-BoldItalic
FullName: Source Code Pro Share Bold Italic
FamilyName: Source Code Pro Share
Weight: Bold
Copyright: (c) 2023 Adobe (http://www.adobe.com/), with Reserved Font Name `Source'\n"Fair and Share" tax glyphs by Vector Hasting under Creative Commons 4.0 BY-SA
Version: 1.026;hotconv 1.1.0;makeotfexe 2.6.0
ItalicAngle: -10.979
UnderlinePosition: -76.8
UnderlineWidth: 51.2
Ascent: 819
Descent: 205
InvalidEm: 0
sfntRevision: 0x000106a8
LayerCount: 2
Layer: 0 1 "Back" 1
Layer: 1 1 "Fore" 0
XUID: [1021 508 542950195 7228]
BaseHoriz: 2 'ideo' 'romn'
BaseScript: 'DFLT' 1  -174 0
BaseScript: 'cyrl' 1  -174 0
BaseScript: 'grek' 1  -174 0
BaseScript: 'latn' 1  -174 0
StyleMap: 0x0021
FSType: 0
OS2Version: 4
OS2_WeightWidthSlopeOnly: 0
OS2_UseTypoMetrics: 1
CreationTime: 1680669369
ModificationTime: 1758702293
PfmFamily: 17
TTFWeight: 700
TTFWidth: 5
LineGap: 0
VLineGap: 0
Panose: 2 11 3 9 3 4 3 9 2 4
OS2TypoAscent: 1008
OS2TypoAOffset: 0
OS2TypoDescent: -280
OS2TypoDOffset: 0
OS2TypoLinegap: 0
OS2WinAscent: 1085
OS2WinAOffset: 0
OS2WinDescent: 465
OS2WinDOffset: 0
HheadAscent: 1008
HheadAOffset: 0
HheadDescent: -280
HheadDOffset: 0
OS2SubXSize: 666
OS2SubYSize: 614
OS2SubXOff: -15
OS2SubYOff: 77
OS2SupXSize: 666
OS2SupYSize: 614
OS2SupXOff: 70
OS2SupYOff: 358
OS2StrikeYSize: 51
OS2StrikeYPos: 304
OS2CapHeight: 676
OS2XHeight: 508
OS2Vendor: 'ADBO'
OS2CodePages: 60000193.00000000
OS2UnicodeRanges: 20000077.02003803.00000000.00000000
Lookup: 1 0 0 "'ss05' Style Set 5 lookup 0" { "'ss05' Style Set 5 lookup 0 subtable"  } ['cv06' ('DFLT' <'dflt' > 'cyrl' <'dflt' > 'grek' <'dflt' > 'latn' <'NSM ' 'SKS ' 'dflt' > ) 'locl' ('latn' <'NSM ' 'SKS ' > ) 'salt' ('DFLT' <'dflt' > 'cyrl' <'dflt' > 'grek' <'dflt' > 'latn' <'NSM ' 'SKS ' 'dflt' > ) 'ss05' ('DFLT' <'dflt' > 'cyrl' <'dflt' > 'grek' <'dflt' > 'latn' <'NSM ' 'SKS ' 'dflt' > ) ]
Lookup: 2 0 0 "Multiple Substitution lookup 1" { "Multiple Substitution lookup 1 subtable"  } []

StartChar: .notdef
Encoding: 1114112 -1 0
Width: 614
GlyphClass: 1
Flags: W
LayerCount: 2
Fore
SplineSet
41 0 m 1,0,-1
 41 676 l 1,1,-1
 573 676 l 1,2,-1
 573 0 l 1,3,-1
 41 0 l 1,0,-1
214 87 m 1,4,-1
 399 87 l 1,5,-1
 353 177 l 1,6,-1
 309 278 l 1,7,-1
 305 278 l 1,8,-1
 261 177 l 1,9,-1
 214 87 l 1,4,-1
136 150 m 1,10,-1
 239 348 l 1,11,-1
 136 547 l 1,12,-1
 136 150 l 1,10,-1
305 419 m 1,13,-1
 309 419 l 1,14,-1
 353 516 l 1,15,-1
 392 588 l 1,16,-1
 221 588 l 1,17,-1
 259 516 l 1,18,-1
 305 419 l 1,13,-1
376 348 m 1,19,-1
 478 150 l 1,20,-1
 478 547 l 1,21,-1
 376 348 l 1,19,-1
EndSplineSet
EndChar

StartChar: A
Encoding: 65 65 2
Width: 614
GlyphClass: 2
Flags: W
AnchorPoint: "Anchor-6" 445 0 basechar 0
AnchorPoint: "Anchor-3" 256 -20 basechar 0
AnchorPoint: "Anchor-2" 465 0 basechar 0
AnchorPoint: "Anchor-0" 380 688 basechar 0
LayerCount: 2
Fore
SplineSet
-44 0 m 1,0,-1
 299 668 l 1,1,-1
 466 668 l 1,2,-1
 536 0 l 1,3,-1
 388 0 l 1,4,-1
 371 361 l 2,5,6
 368 411 368 411 366 460 c 128,-1,7
 364 509 364 509 361 560 c 1,8,-1
 357 560 l 1,9,10
 335 511 335 511 315 462 c 128,-1,11
 295 413 295 413 272 362 c 2,12,-1
 111 0 l 1,13,-1
 -44 0 l 1,0,-1
123 168 m 1,14,-1
 148 273 l 1,15,-1
 454 273 l 1,16,-1
 430 168 l 1,17,-1
 123 168 l 1,14,-1
EndSplineSet
EndChar

StartChar: B
Encoding: 66 66 3
Width: 614
GlyphClass: 2
Flags: W
AnchorPoint: "Anchor-3" 256 -20 basechar 0
AnchorPoint: "Anchor-0" 383 688 basechar 0
LayerCount: 2
Fore
SplineSet
27 0 m 1,0,-1
 160 668 l 1,1,-1
 353 668 l 2,2,3
 421 668 421 668 471.5 651.5 c 128,-1,4
 522 635 522 635 550.5 601.5 c 128,-1,5
 579 568 579 568 579 515 c 0,6,7
 579 477 579 477 561 443.5 c 128,-1,8
 543 410 543 410 510 385.5 c 128,-1,9
 477 361 477 361 433 349 c 1,10,-1
 432 345 l 1,11,12
 469 336 469 336 494.5 319 c 128,-1,13
 520 302 520 302 533.5 277.5 c 128,-1,14
 547 253 547 253 547 219 c 0,15,16
 547 141 547 141 507.5 92.5 c 128,-1,17
 468 44 468 44 402.5 22 c 128,-1,18
 337 0 337 0 258 0 c 2,19,-1
 27 0 l 1,0,-1
246 396 m 1,20,-1
 303 396 l 2,21,22
 373 396 373 396 403.5 422.5 c 128,-1,23
 434 449 434 449 434 492 c 0,24,25
 434 525 434 525 409 541.5 c 128,-1,26
 384 558 384 558 329 558 c 2,27,-1
 280 558 l 1,28,-1
 246 396 l 1,20,-1
188 109 m 1,29,-1
 265 109 l 2,30,31
 312 109 312 109 345 121 c 128,-1,32
 378 133 378 133 395 156 c 128,-1,33
 412 179 412 179 412 214 c 0,34,35
 412 255 412 255 385 276 c 128,-1,36
 358 297 358 297 304 297 c 2,37,-1
 226 297 l 1,38,-1
 188 109 l 1,29,-1
EndSplineSet
EndChar

StartChar: C
Encoding: 67 67 4
Width: 614
GlyphClass: 2
Flags: W
AnchorPoint: "Anchor-3" 300 -20 basechar 0
AnchorPoint: "Anchor-2" 304 0 basechar 0
AnchorPoint: "Anchor-0" 426 688 basechar 0
LayerCount: 2
Fore
SplineSet
325 -12 m 0,0,1
 248 -12 248 -12 190.5 21.5 c 128,-1,2
 133 55 133 55 102 117 c 128,-1,3
 71 179 71 179 71 267 c 0,4,5
 71 337 71 337 88.5 399 c 128,-1,6
 106 461 106 461 138 512 c 128,-1,7
 170 563 170 563 214.5 600.5 c 128,-1,8
 259 638 259 638 312.5 659 c 128,-1,9
 366 680 366 680 426 680 c 0,10,11
 484 680 484 680 529.5 652 c 128,-1,12
 575 624 575 624 603 573 c 1,13,-1
 508 500 l 1,14,15
 490 530 490 530 468 544 c 128,-1,16
 446 558 446 558 419 558 c 0,17,18
 385 558 385 558 354.5 543 c 128,-1,19
 324 528 324 528 298 502 c 128,-1,20
 272 476 272 476 254 440 c 128,-1,21
 236 404 236 404 225.5 363 c 128,-1,22
 215 322 215 322 215 276 c 0,23,24
 215 225 215 225 229 187.5 c 128,-1,25
 243 150 243 150 274 129.5 c 128,-1,26
 305 109 305 109 354 109 c 0,27,28
 384 109 384 109 413 123.5 c 128,-1,29
 442 138 442 138 467 160 c 1,30,-1
 526 70 l 1,31,32
 506 52 506 52 476 32.5 c 128,-1,33
 446 13 446 13 408 0.5 c 128,-1,34
 370 -12 370 -12 325 -12 c 0,0,1
EndSplineSet
EndChar

StartChar: D
Encoding: 68 68 5
Width: 614
GlyphClass: 2
Flags: W
AnchorPoint: "Anchor-3" 236 -20 basechar 0
AnchorPoint: "Anchor-2" 233 0 basechar 0
AnchorPoint: "Anchor-0" 377 688 basechar 0
LayerCount: 2
Fore
SplineSet
12 0 m 1,0,-1
 145 668 l 1,1,-1
 295 668 l 2,2,3
 429 668 429 668 504 603 c 128,-1,4
 579 538 579 538 579 406 c 0,5,6
 579 307 579 307 552 231.5 c 128,-1,7
 525 156 525 156 477 104.5 c 128,-1,8
 429 53 429 53 364 26.5 c 128,-1,9
 299 0 299 0 221 0 c 2,10,-1
 12 0 l 1,0,-1
175 113 m 1,11,-1
 218 113 l 2,12,13
 278 113 278 113 327.5 143 c 128,-1,14
 377 173 377 173 405.5 235.5 c 128,-1,15
 434 298 434 298 434 396 c 0,16,17
 434 480 434 480 394.5 517.5 c 128,-1,18
 355 555 355 555 292 555 c 2,19,-1
 263 555 l 1,20,-1
 175 113 l 1,11,-1
EndSplineSet
EndChar

StartChar: E
Encoding: 69 69 6
Width: 614
GlyphClass: 2
Flags: W
AnchorPoint: "Anchor-6" 384 0 basechar 0
AnchorPoint: "Anchor-3" 271 -20 basechar 0
AnchorPoint: "Anchor-2" 282 0 basechar 0
AnchorPoint: "Anchor-0" 401 688 basechar 0
LayerCount: 2
Fore
SplineSet
39 0 m 1,0,-1
 173 668 l 1,1,-1
 608 668 l 1,2,-1
 586 550 l 1,3,-1
 289 550 l 1,4,-1
 260 404 l 1,5,-1
 508 404 l 1,6,-1
 485 287 l 1,7,-1
 238 287 l 1,8,-1
 203 118 l 1,9,-1
 508 118 l 1,10,-1
 485 0 l 1,11,-1
 39 0 l 1,0,-1
EndSplineSet
EndChar

StartChar: F
Encoding: 70 70 7
Width: 614
GlyphClass: 2
Flags: W
AnchorPoint: "Anchor-3" 131 -20 basechar 0
AnchorPoint: "Anchor-2" 130 0 basechar 0
AnchorPoint: "Anchor-0" 412 688 basechar 0
LayerCount: 2
Fore
SplineSet
56 0 m 1,0,-1
 190 668 l 1,1,-1
 622 668 l 1,2,-1
 598 550 l 1,3,-1
 305 550 l 1,4,-1
 273 386 l 1,5,-1
 517 386 l 1,6,-1
 494 268 l 1,7,-1
 251 268 l 1,8,-1
 197 0 l 1,9,-1
 56 0 l 1,0,-1
EndSplineSet
EndChar

StartChar: G
Encoding: 71 71 8
Width: 614
GlyphClass: 2
Flags: W
AnchorPoint: "Anchor-3" 302 -20 basechar 0
AnchorPoint: "Anchor-0" 399 688 basechar 0
LayerCount: 2
Fore
SplineSet
301 -12 m 0,0,1
 222 -12 222 -12 165 21 c 128,-1,2
 108 54 108 54 77.5 116.5 c 128,-1,3
 47 179 47 179 47 267 c 0,4,5
 47 353 47 353 73 428.5 c 128,-1,6
 99 504 99 504 147.5 560 c 128,-1,7
 196 616 196 616 261 648 c 128,-1,8
 326 680 326 680 402 680 c 0,9,10
 467 680 467 680 514 652 c 128,-1,11
 561 624 561 624 589 573 c 1,12,-1
 493 500 l 1,13,14
 475 530 475 530 451.5 544 c 128,-1,15
 428 558 428 558 395 558 c 0,16,17
 360 558 360 558 329 543 c 128,-1,18
 298 528 298 528 272.5 502 c 128,-1,19
 247 476 247 476 229 440 c 128,-1,20
 211 404 211 404 200.5 363 c 128,-1,21
 190 322 190 322 190 276 c 0,22,23
 190 225 190 225 203.5 187.5 c 128,-1,24
 217 150 217 150 247.5 129 c 128,-1,25
 278 108 278 108 326 108 c 0,26,27
 346 108 346 108 365.5 114.5 c 128,-1,28
 385 121 385 121 398 130 c 1,29,-1
 427 261 l 1,30,-1
 317 261 l 1,31,-1
 338 376 l 1,32,-1
 571 376 l 1,33,-1
 509 57 l 1,34,35
 472 27 472 27 417.5 7.5 c 128,-1,36
 363 -12 363 -12 301 -12 c 0,0,1
EndSplineSet
EndChar

StartChar: H
Encoding: 72 72 9
Width: 614
GlyphClass: 2
Flags: W
AnchorPoint: "Anchor-3" 240 -20 basechar 0
AnchorPoint: "Anchor-2" 79 0 basechar 0
AnchorPoint: "Anchor-0" 380 688 basechar 0
LayerCount: 2
Fore
SplineSet
4 0 m 1,0,-1
 137 668 l 1,1,-1
 278 668 l 1,2,-1
 224 408 l 1,3,-1
 424 408 l 1,4,-1
 475 668 l 1,5,-1
 615 668 l 1,6,-1
 482 0 l 1,7,-1
 342 0 l 1,8,-1
 399 286 l 1,9,-1
 201 286 l 1,10,-1
 144 0 l 1,11,-1
 4 0 l 1,0,-1
EndSplineSet
EndChar

StartChar: I
Encoding: 73 73 10
Width: 614
GlyphClass: 2
Flags: W
AnchorPoint: "Anchor-6" 244 0 basechar 0
AnchorPoint: "Anchor-3" 240 -20 basechar 0
AnchorPoint: "Anchor-2" 244 0 basechar 0
AnchorPoint: "Anchor-0" 380 688 basechar 0
LayerCount: 2
Fore
SplineSet
15 0 m 1,0,-1
 41 118 l 1,1,-1
 196 118 l 1,2,-1
 284 550 l 1,3,-1
 126 550 l 1,4,-1
 151 668 l 1,5,-1
 605 668 l 1,6,-1
 581 550 l 1,7,-1
 424 550 l 1,8,-1
 337 118 l 1,9,-1
 495 118 l 1,10,-1
 470 0 l 1,11,-1
 15 0 l 1,0,-1
EndSplineSet
EndChar

StartChar: J
Encoding: 74 74 11
Width: 614
GlyphClass: 2
Flags: W
AnchorPoint: "Anchor-3" 246 -20 basechar 0
AnchorPoint: "Anchor-0" 394 688 basechar 0
LayerCount: 2
Fore
SplineSet
228 -12 m 0,0,1
 146 -12 146 -12 93.5 21.5 c 128,-1,2
 41 55 41 55 8 102 c 1,3,-1
 98 186 l 1,4,5
 122 153 122 153 153 131 c 128,-1,6
 184 109 184 109 228 109 c 0,7,8
 286 109 286 109 316.5 141.5 c 128,-1,9
 347 174 347 174 361 248 c 2,10,-1
 422 550 l 1,11,-1
 159 550 l 1,12,-1
 182 668 l 1,13,-1
 584 668 l 1,14,-1
 494 217 l 2,15,16
 481 148 481 148 447.5 96.5 c 128,-1,17
 414 45 414 45 359.5 16.5 c 128,-1,18
 305 -12 305 -12 228 -12 c 0,0,1
EndSplineSet
EndChar

StartChar: K
Encoding: 75 75 12
Width: 614
GlyphClass: 2
Flags: W
AnchorPoint: "Anchor-3" 276 -20 basechar 0
AnchorPoint: "Anchor-0" 391 688 basechar 0
LayerCount: 2
Fore
SplineSet
655 668 m 1,0,-1
 190 186 l 1,1,-1
 154 0 l 1,2,-1
 15 0 l 1,3,-1
 148 668 l 1,4,-1
 288 668 l 1,5,-1
 228 373 l 1,6,-1
 232 373 l 1,7,-1
 501 668 l 1,8,-1
 655 668 l 1,0,-1
276 315 m 1,9,-1
 379 427 l 1,10,-1
 546 0 l 1,11,-1
 386 0 l 1,12,-1
 276 315 l 1,9,-1
EndSplineSet
EndChar

StartChar: L
Encoding: 76 76 13
Width: 614
GlyphClass: 2
Flags: W
AnchorPoint: "Anchor-4" 205 354 basechar 0
AnchorPoint: "Anchor-3" 294 -20 basechar 0
AnchorPoint: "Anchor-2" 304 0 basechar 0
AnchorPoint: "Anchor-0" 274 688 basechar 0
LayerCount: 2
Fore
SplineSet
67 0 m 1,0,-1
 200 668 l 1,1,-1
 340 668 l 1,2,-1
 230 118 l 1,3,-1
 529 118 l 1,4,-1
 507 0 l 1,5,-1
 67 0 l 1,0,-1
EndSplineSet
EndChar

StartChar: M
Encoding: 77 77 14
Width: 614
GlyphClass: 2
Flags: W
AnchorPoint: "Anchor-3" 240 -20 basechar 0
AnchorPoint: "Anchor-2" 428 0 basechar 0
AnchorPoint: "Anchor-0" 380 688 basechar 0
LayerCount: 2
Fore
SplineSet
0 0 m 1,0,-1
 133 668 l 1,1,-1
 282 668 l 1,2,-1
 301 426 l 1,3,-1
 304 325 l 1,4,-1
 308 325 l 1,5,-1
 347 423 l 1,6,-1
 472 668 l 1,7,-1
 621 668 l 1,8,-1
 487 0 l 1,9,-1
 366 0 l 1,10,-1
 416 249 l 2,11,12
 421 274 421 274 430.5 310.5 c 128,-1,13
 440 347 440 347 451.5 387.5 c 128,-1,14
 463 428 463 428 473.5 465.5 c 128,-1,15
 484 503 484 503 493 528 c 1,16,-1
 488 528 l 1,17,18
 479 508 479 508 463 475 c 128,-1,19
 447 442 447 442 432.5 409 c 128,-1,20
 418 376 418 376 409 356 c 2,21,-1
 321 179 l 1,22,-1
 237 179 l 1,23,-1
 220 343 l 2,24,25
 219 360 219 360 217 385 c 128,-1,26
 215 410 215 410 214 436.5 c 128,-1,27
 213 463 213 463 212 487.5 c 128,-1,28
 211 512 211 512 209 528 c 1,29,-1
 205 528 l 1,30,31
 202 487 202 487 196 437 c 128,-1,32
 190 387 190 387 184 342 c 128,-1,33
 178 297 178 297 173 269 c 2,34,-1
 118 0 l 1,35,-1
 0 0 l 1,0,-1
EndSplineSet
EndChar

StartChar: N
Encoding: 78 78 15
Width: 614
GlyphClass: 2
Flags: W
AnchorPoint: "Anchor-3" 254 -20 basechar 0
AnchorPoint: "Anchor-2" 410 0 basechar 0
AnchorPoint: "Anchor-0" 373 688 basechar 0
LayerCount: 2
Fore
SplineSet
11 0 m 1,0,-1
 145 668 l 1,1,-1
 286 668 l 1,2,-1
 366 317 l 1,3,-1
 392 173 l 1,4,-1
 396 173 l 1,5,6
 398 199 398 199 402 232 c 128,-1,7
 406 265 406 265 409.5 299 c 128,-1,8
 413 333 413 333 417 361.5 c 128,-1,9
 421 390 421 390 425 410 c 2,10,-1
 476 668 l 1,11,-1
 608 668 l 1,12,-1
 475 0 l 1,13,-1
 338 0 l 1,14,-1
 252 349 l 1,15,-1
 226 495 l 1,16,-1
 222 495 l 1,17,18
 219 459 219 459 214.5 414 c 128,-1,19
 210 369 210 369 204.5 325.5 c 128,-1,20
 199 282 199 282 193 249 c 2,21,-1
 144 0 l 1,22,-1
 11 0 l 1,0,-1
EndSplineSet
EndChar

StartChar: O
Encoding: 79 79 16
Width: 614
GlyphClass: 2
Flags: W
AnchorPoint: "Anchor-6" 244 0 basechar 0
AnchorPoint: "Anchor-5" 375 657 basechar 0
AnchorPoint: "Anchor-3" 237 -20 basechar 0
AnchorPoint: "Anchor-2" 244 0 basechar 0
AnchorPoint: "Anchor-0" 380 688 basechar 0
LayerCount: 2
Fore
SplineSet
257 -12 m 0,0,1
 187 -12 187 -12 136.5 20.5 c 128,-1,2
 86 53 86 53 58.5 114 c 128,-1,3
 31 175 31 175 31 260 c 0,4,5
 31 329 31 329 46.5 391.5 c 128,-1,6
 62 454 62 454 92 506.5 c 128,-1,7
 122 559 122 559 163 598 c 128,-1,8
 204 637 204 637 255 658.5 c 128,-1,9
 306 680 306 680 366 680 c 0,10,11
 436 680 436 680 486 647 c 128,-1,12
 536 614 536 614 563 553 c 128,-1,13
 590 492 590 492 590 408 c 0,14,15
 590 339 590 339 574.5 276 c 128,-1,16
 559 213 559 213 530 161 c 128,-1,17
 501 109 501 109 460 70 c 128,-1,18
 419 31 419 31 367.5 9.5 c 128,-1,19
 316 -12 316 -12 257 -12 c 0,0,1
271 109 m 0,20,21
 302 109 302 109 329 124.5 c 128,-1,22
 356 140 356 140 377.5 169.5 c 128,-1,23
 399 199 399 199 414.5 237.5 c 128,-1,24
 430 276 430 276 438 323 c 128,-1,25
 446 370 446 370 446 421 c 0,26,27
 446 467 446 467 436 497 c 128,-1,28
 426 527 426 527 405.5 542.5 c 128,-1,29
 385 558 385 558 352 558 c 0,30,31
 320 558 320 558 293 542.5 c 128,-1,32
 266 527 266 527 244 498 c 128,-1,33
 222 469 222 469 206.5 430 c 128,-1,34
 191 391 191 391 183 344.5 c 128,-1,35
 175 298 175 298 175 247 c 0,36,37
 175 201 175 201 185.5 170 c 128,-1,38
 196 139 196 139 217 124 c 128,-1,39
 238 109 238 109 271 109 c 0,20,21
EndSplineSet
EndChar

StartChar: P
Encoding: 80 80 17
Width: 614
GlyphClass: 2
Flags: W
AnchorPoint: "Anchor-3" 109 -20 basechar 0
AnchorPoint: "Anchor-0" 397 688 basechar 0
LayerCount: 2
Fore
SplineSet
30 0 m 1,0,-1
 163 668 l 1,1,-1
 371 668 l 2,2,3
 437 668 437 668 489 650 c 128,-1,4
 541 632 541 632 571.5 593 c 128,-1,5
 602 554 602 554 602 490 c 0,6,7
 602 420 602 420 577.5 371 c 128,-1,8
 553 322 553 322 511 291 c 128,-1,9
 469 260 469 260 413 245.5 c 128,-1,10
 357 231 357 231 295 231 c 2,11,-1
 217 231 l 1,12,-1
 170 0 l 1,13,-1
 30 0 l 1,0,-1
239 343 m 1,14,-1
 303 343 l 2,15,16
 379 343 379 343 420 375.5 c 128,-1,17
 461 408 461 408 461 470 c 0,18,19
 461 515 461 515 431 535.5 c 128,-1,20
 401 556 401 556 346 556 c 2,21,-1
 281 556 l 1,22,-1
 239 343 l 1,14,-1
EndSplineSet
EndChar

StartChar: Q
Encoding: 81 81 18
Width: 614
GlyphClass: 2
Flags: W
AnchorPoint: "Anchor-0" 380 688 basechar 0
LayerCount: 2
Fore
SplineSet
257 -12 m 0,0,1
 187 -12 187 -12 136.5 20.5 c 128,-1,2
 86 53 86 53 58.5 114 c 128,-1,3
 31 175 31 175 31 260 c 0,4,5
 31 329 31 329 46.5 391.5 c 128,-1,6
 62 454 62 454 92 506.5 c 128,-1,7
 122 559 122 559 163 598 c 128,-1,8
 204 637 204 637 255 658.5 c 128,-1,9
 306 680 306 680 366 680 c 0,10,11
 436 680 436 680 486 647 c 128,-1,12
 536 614 536 614 563 553 c 128,-1,13
 590 492 590 492 590 408 c 0,14,15
 590 339 590 339 574.5 276 c 128,-1,16
 559 213 559 213 530 161 c 128,-1,17
 501 109 501 109 460 70 c 128,-1,18
 419 31 419 31 367.5 9.5 c 128,-1,19
 316 -12 316 -12 257 -12 c 0,0,1
272 101 m 0,20,21
 303 101 303 101 329.5 117 c 128,-1,22
 356 133 356 133 377.5 162 c 128,-1,23
 399 191 399 191 414.5 231 c 128,-1,24
 430 271 430 271 438 319.5 c 128,-1,25
 446 368 446 368 446 421 c 0,26,27
 446 467 446 467 436 497 c 128,-1,28
 426 527 426 527 405.5 542.5 c 128,-1,29
 385 558 385 558 352 558 c 0,30,31
 320 558 320 558 293 542.5 c 128,-1,32
 266 527 266 527 244 498 c 128,-1,33
 222 469 222 469 206.5 430 c 128,-1,34
 191 391 191 391 183 344.5 c 128,-1,35
 175 298 175 298 175 247 c 0,36,37
 175 198 175 198 186 165.5 c 128,-1,38
 197 133 197 133 217.5 117 c 128,-1,39
 238 101 238 101 272 101 c 0,20,21
417 -185 m 0,40,41
 330 -185 330 -185 266.5 -133 c 128,-1,42
 203 -81 203 -81 176 28 c 1,43,-1
 315 27 l 1,44,45
 325 -23 325 -23 357 -48 c 128,-1,46
 389 -73 389 -73 433 -73 c 0,47,48
 459 -73 459 -73 479 -68 c 128,-1,49
 499 -63 499 -63 513 -59 c 1,50,-1
 535 -166 l 1,51,52
 519 -173 519 -173 487.5 -179 c 128,-1,53
 456 -185 456 -185 417 -185 c 0,40,41
EndSplineSet
EndChar

StartChar: R
Encoding: 82 82 19
Width: 614
GlyphClass: 2
Flags: W
AnchorPoint: "Anchor-3" 266 -20 basechar 0
AnchorPoint: "Anchor-2" 91 0 basechar 0
AnchorPoint: "Anchor-0" 379 688 basechar 0
LayerCount: 2
Fore
SplineSet
15 0 m 1,0,-1
 150 668 l 1,1,-1
 353 668 l 2,2,3
 419 668 419 668 471.5 651 c 128,-1,4
 524 634 524 634 555 595 c 128,-1,5
 586 556 586 556 586 490 c 0,6,7
 586 427 586 427 561.5 381 c 128,-1,8
 537 335 537 335 494 304.5 c 128,-1,9
 451 274 451 274 398.5 259.5 c 128,-1,10
 346 245 346 245 291 245 c 2,11,-1
 205 245 l 1,12,-1
 157 0 l 1,13,-1
 15 0 l 1,0,-1
227 356 m 1,14,-1
 289 356 l 2,15,16
 364 356 364 356 404 389 c 128,-1,17
 444 422 444 422 444 476 c 0,18,19
 444 518 444 518 416 537 c 128,-1,20
 388 556 388 556 334 556 c 2,21,-1
 266 556 l 1,22,-1
 227 356 l 1,14,-1
269 269 m 1,23,-1
 387 328 l 1,24,-1
 522 0 l 1,25,-1
 367 0 l 1,26,-1
 269 269 l 1,23,-1
EndSplineSet
EndChar

StartChar: S
Encoding: 83 83 20
Width: 614
GlyphClass: 2
Flags: W
AnchorPoint: "Anchor-3" 266 -20 basechar 0
AnchorPoint: "Anchor-2" 266 0 basechar 0
AnchorPoint: "Anchor-0" 364 688 basechar 0
LayerCount: 2
Fore
SplineSet
273 -12 m 0,0,1
 183 -12 183 -12 121.5 25 c 128,-1,2
 60 62 60 62 25 118 c 1,3,-1
 116 198 l 1,4,5
 145 155 145 155 183.5 131.5 c 128,-1,6
 222 108 222 108 269 108 c 0,7,8
 301 108 301 108 323.5 116.5 c 128,-1,9
 346 125 346 125 359.5 142 c 128,-1,10
 373 159 373 159 373 182 c 0,11,12
 373 211 373 211 352 230.5 c 128,-1,13
 331 250 331 250 296 270 c 2,14,-1
 233 307 l 2,15,16
 188 335 188 335 155 378 c 128,-1,17
 122 421 122 421 122 485 c 0,18,19
 122 544 122 544 152 588 c 128,-1,20
 182 632 182 632 233.5 656 c 128,-1,21
 285 680 285 680 349 680 c 0,22,23
 420 680 420 680 479 648 c 128,-1,24
 538 616 538 616 570 568 c 1,25,-1
 481 492 l 1,26,27
 457 521 457 521 424 541 c 128,-1,28
 391 561 391 561 348 561 c 0,29,30
 325 561 325 561 306.5 553.5 c 128,-1,31
 288 546 288 546 277 531 c 128,-1,32
 266 516 266 516 266 496 c 0,33,34
 266 470 266 470 284 452 c 128,-1,35
 302 434 302 434 330 417 c 2,36,-1
 401 371 l 2,37,38
 434 351 434 351 460 326 c 128,-1,39
 486 301 486 301 501 269.5 c 128,-1,40
 516 238 516 238 516 193 c 0,41,42
 516 126 516 126 483.5 80.5 c 128,-1,43
 451 35 451 35 395.5 11.5 c 128,-1,44
 340 -12 340 -12 273 -12 c 0,0,1
EndSplineSet
EndChar

StartChar: T
Encoding: 84 84 21
Width: 614
GlyphClass: 2
Flags: W
AnchorPoint: "Anchor-3" 242 -20 basechar 0
AnchorPoint: "Anchor-2" 246 0 basechar 0
AnchorPoint: "Anchor-0" 380 688 basechar 0
LayerCount: 2
Fore
SplineSet
173 0 m 1,0,-1
 283 549 l 1,1,-1
 80 549 l 1,2,-1
 102 668 l 1,3,-1
 648 668 l 1,4,-1
 625 549 l 1,5,-1
 422 549 l 1,6,-1
 313 0 l 1,7,-1
 173 0 l 1,0,-1
EndSplineSet
EndChar

StartChar: U
Encoding: 85 85 22
Width: 614
GlyphClass: 2
Flags: W
AnchorPoint: "Anchor-6" 244 0 basechar 0
AnchorPoint: "Anchor-5" 467 678 basechar 0
AnchorPoint: "Anchor-3" 237 -20 basechar 0
AnchorPoint: "Anchor-2" 244 0 basechar 0
AnchorPoint: "Anchor-0" 380 688 basechar 0
LayerCount: 2
Fore
SplineSet
255 -12 m 0,0,1
 155 -12 155 -12 104.5 46 c 128,-1,2
 54 104 54 104 54 198 c 0,3,4
 54 227 54 227 56.5 253.5 c 128,-1,5
 59 280 59 280 66 307 c 2,6,-1
 137 668 l 1,7,-1
 278 668 l 1,8,-1
 203 292 l 2,9,10
 199 270 199 270 194.5 249.5 c 128,-1,11
 190 229 190 229 190 209 c 0,12,13
 190 161 190 161 211.5 135 c 128,-1,14
 233 109 233 109 273 109 c 0,15,16
 305 109 305 109 328.5 123.5 c 128,-1,17
 352 138 352 138 370 174.5 c 128,-1,18
 388 211 388 211 400 275 c 2,19,-1
 478 668 l 1,20,-1
 615 668 l 1,21,-1
 536 267 l 2,22,23
 516 163 516 163 477.5 102 c 128,-1,24
 439 41 439 41 384.5 14.5 c 128,-1,25
 330 -12 330 -12 255 -12 c 0,0,1
EndSplineSet
EndChar

StartChar: V
Encoding: 86 86 23
Width: 614
GlyphClass: 2
Flags: W
AnchorPoint: "Anchor-3" 237 -20 basechar 0
AnchorPoint: "Anchor-0" 371 688 basechar 0
LayerCount: 2
Fore
SplineSet
148 0 m 1,0,-1
 90 668 l 1,1,-1
 238 668 l 1,2,-1
 255 339 l 2,3,4
 258 286 258 286 259.5 232.5 c 128,-1,5
 261 179 261 179 262 125 c 1,6,-1
 266 125 l 1,7,8
 280 159 280 159 297.5 198.5 c 128,-1,9
 315 238 315 238 332 275 c 128,-1,10
 349 312 349 312 360 339 c 2,11,-1
 511 668 l 1,12,-1
 666 668 l 1,13,-1
 318 0 l 1,14,-1
 148 0 l 1,0,-1
EndSplineSet
EndChar

StartChar: W
Encoding: 87 87 24
Width: 614
GlyphClass: 2
Flags: W
AnchorPoint: "Anchor-3" 237 -20 basechar 0
AnchorPoint: "Anchor-0" 371 688 basechar 0
LayerCount: 2
Fore
SplineSet
26 0 m 1,0,-1
 80 669 l 1,1,-1
 213 669 l 1,2,-1
 165 291 l 2,3,4
 163 267 163 267 159 237 c 128,-1,5
 155 207 155 207 150 178.5 c 128,-1,6
 145 150 145 150 141 128 c 1,7,-1
 145 128 l 1,8,9
 151 146 151 146 159 167.5 c 128,-1,10
 167 189 167 189 175.5 211.5 c 128,-1,11
 184 234 184 234 192.5 254.5 c 128,-1,12
 201 275 201 275 208 292 c 2,13,-1
 296 495 l 1,14,-1
 385 495 l 1,15,-1
 395 304 l 2,16,17
 396 286 396 286 396.5 255 c 128,-1,18
 397 224 397 224 397.5 191 c 128,-1,19
 398 158 398 158 398 130 c 1,20,-1
 403 130 l 1,21,22
 406 145 406 145 411.5 166 c 128,-1,23
 417 187 417 187 422 210 c 128,-1,24
 427 233 427 233 432 254.5 c 128,-1,25
 437 276 437 276 441 293 c 2,26,-1
 540 669 l 1,27,-1
 673 669 l 1,28,-1
 468 0 l 1,29,-1
 312 0 l 1,30,-1
 312 218 l 2,31,32
 312 250 312 250 312.5 284.5 c 128,-1,33
 313 319 313 319 314 347 c 1,34,-1
 311 347 l 1,35,36
 303 318 303 318 291.5 284 c 128,-1,37
 280 250 280 250 268 218 c 2,38,-1
 185 0 l 1,39,-1
 26 0 l 1,0,-1
EndSplineSet
EndChar

StartChar: X
Encoding: 88 88 25
Width: 614
GlyphClass: 2
Flags: W
AnchorPoint: "Anchor-3" 253 -20 basechar 0
AnchorPoint: "Anchor-2" 457 0 basechar 0
AnchorPoint: "Anchor-0" 371 688 basechar 0
LayerCount: 2
Fore
SplineSet
-32 0 m 1,0,-1
 226 352 l 1,1,-1
 104 669 l 1,2,-1
 258 669 l 1,3,-1
 302 535 l 2,4,5
 309 516 309 516 317.5 484.5 c 128,-1,6
 326 453 326 453 334 425 c 1,7,-1
 338 425 l 1,8,9
 354 452 354 452 371.5 484 c 128,-1,10
 389 516 389 516 401 535 c 2,11,-1
 493 669 l 1,12,-1
 644 669 l 1,13,-1
 395 330 l 1,14,-1
 527 0 l 1,15,-1
 375 0 l 1,16,-1
 324 144 l 2,17,18
 320 156 320 156 314 175 c 128,-1,19
 308 194 308 194 302.5 213 c 128,-1,20
 297 232 297 232 292 249 c 1,21,-1
 288 249 l 1,22,23
 272 221 272 221 254.5 192.5 c 128,-1,24
 237 164 237 164 222 143 c 2,25,-1
 122 0 l 1,26,-1
 -32 0 l 1,0,-1
EndSplineSet
EndChar

StartChar: Y
Encoding: 89 89 26
Width: 614
GlyphClass: 2
Flags: W
AnchorPoint: "Anchor-6" 244 0 basechar 0
AnchorPoint: "Anchor-3" 240 -20 basechar 0
AnchorPoint: "Anchor-0" 369 688 basechar 0
LayerCount: 2
Fore
SplineSet
173 0 m 1,0,-1
 216 213 l 1,1,-1
 90 669 l 1,2,-1
 236 669 l 1,3,-1
 274 493 l 2,4,5
 283 454 283 454 291.5 411 c 128,-1,6
 300 368 300 368 308 330 c 1,7,-1
 312 330 l 1,8,9
 326 355 326 355 342 382.5 c 128,-1,10
 358 410 358 410 374.5 438 c 128,-1,11
 391 466 391 466 407 493 c 2,12,-1
 513 669 l 1,13,-1
 660 669 l 1,14,-1
 353 199 l 1,15,-1
 311 0 l 1,16,-1
 173 0 l 1,0,-1
EndSplineSet
EndChar

StartChar: Z
Encoding: 90 90 27
Width: 614
GlyphClass: 2
Flags: W
AnchorPoint: "Anchor-3" 268 -20 basechar 0
AnchorPoint: "Anchor-2" 281 0 basechar 0
AnchorPoint: "Anchor-0" 369 688 basechar 0
LayerCount: 2
Fore
SplineSet
185 80 m 1,0,-1
 150 116 l 1,1,-1
 524 116 l 1,2,-1
 501 0 l 1,3,-1
 8 0 l 1,4,-1
 25 83 l 1,5,-1
 443 600 l 1,6,-1
 495 552 l 1,7,-1
 115 552 l 1,8,-1
 139 669 l 1,9,-1
 611 669 l 1,10,-1
 595 585 l 1,11,-1
 185 80 l 1,0,-1
EndSplineSet
EndChar

StartChar: a
Encoding: 97 97 28
Width: 614
GlyphClass: 2
Flags: W
AnchorPoint: "Anchor-6" 394 0 basechar 0
AnchorPoint: "Anchor-3" 256 -20 basechar 0
AnchorPoint: "Anchor-2" 426 0 basechar 0
AnchorPoint: "Anchor-0" 356 528 basechar 0
LayerCount: 2
Fore
SplineSet
202 -12 m 0,0,1
 126 -12 126 -12 81 38.5 c 128,-1,2
 36 89 36 89 36 184 c 0,3,4
 36 254 36 254 58 315 c 128,-1,5
 80 376 80 376 118 422 c 128,-1,6
 156 468 156 468 205 494 c 128,-1,7
 254 520 254 520 308 520 c 0,8,9
 358 520 358 520 394.5 502 c 128,-1,10
 431 484 431 484 449 454 c 1,11,-1
 453 454 l 1,12,-1
 474 508 l 1,13,-1
 587 508 l 1,14,-1
 484 0 l 1,15,-1
 371 0 l 1,16,-1
 373 70 l 1,17,-1
 369 70 l 1,18,19
 333 32 333 32 289 10 c 128,-1,20
 245 -12 245 -12 202 -12 c 0,0,1
254 102 m 0,21,22
 283 102 283 102 317 121 c 128,-1,23
 351 140 351 140 381 180 c 1,24,-1
 418 357 l 1,25,26
 404 383 404 383 379.5 394.5 c 128,-1,27
 355 406 355 406 333 406 c 0,28,29
 303 406 303 406 275.5 390.5 c 128,-1,30
 248 375 248 375 226.5 347 c 128,-1,31
 205 319 205 319 192.5 282.5 c 128,-1,32
 180 246 180 246 180 202 c 0,33,34
 180 151 180 151 200.5 126.5 c 128,-1,35
 221 102 221 102 254 102 c 0,21,22
EndSplineSet
Substitution2: "'ss02' Style Set 2 lookup 25 subtable" a.a
Substitution2: "'sups' Superscript lookup 19 subtable" a.sups
EndChar

StartChar: b
Encoding: 98 98 29
Width: 614
GlyphClass: 2
Flags: W
AnchorPoint: "Anchor-3" 250 -20 basechar 0
AnchorPoint: "Anchor-0" 237 750 basechar 0
LayerCount: 2
Fore
SplineSet
294 -12 m 0,0,1
 251 -12 251 -12 213 6.5 c 128,-1,2
 175 25 175 25 156 54 c 1,3,-1
 154 54 l 1,4,-1
 132 0 l 1,5,-1
 16 0 l 1,6,-1
 160 718 l 1,7,-1
 300 718 l 1,8,-1
 267 555 l 1,9,-1
 238 446 l 1,10,-1
 240 446 l 1,11,12
 274 480 274 480 316.5 500 c 128,-1,13
 359 520 359 520 399 520 c 0,14,15
 479 520 479 520 523 468.5 c 128,-1,16
 567 417 567 417 567 322 c 0,17,18
 567 252 567 252 545 191.5 c 128,-1,19
 523 131 523 131 484.5 85 c 128,-1,20
 446 39 446 39 397.5 13.5 c 128,-1,21
 349 -12 349 -12 294 -12 c 0,0,1
274 102 m 0,22,23
 304 102 304 102 330.5 117 c 128,-1,24
 357 132 357 132 377 159 c 128,-1,25
 397 186 397 186 409.5 223 c 128,-1,26
 422 260 422 260 422 304 c 0,27,28
 422 357 422 357 400.5 381.5 c 128,-1,29
 379 406 379 406 345 406 c 0,30,31
 316 406 316 406 284 386.5 c 128,-1,32
 252 367 252 367 221 324 c 1,33,-1
 186 150 l 1,34,35
 202 125 202 125 225 113.5 c 128,-1,36
 248 102 248 102 274 102 c 0,22,23
EndSplineSet
Substitution2: "'sups' Superscript lookup 19 subtable" b.sups
EndChar

StartChar: c
Encoding: 99 99 30
Width: 614
GlyphClass: 2
Flags: W
AnchorPoint: "Anchor-3" 285 -20 basechar 0
AnchorPoint: "Anchor-2" 285 0 basechar 0
AnchorPoint: "Anchor-0" 384 528 basechar 0
LayerCount: 2
Fore
SplineSet
305 -12 m 0,0,1
 238 -12 238 -12 183 12.5 c 128,-1,2
 128 37 128 37 94.5 86 c 128,-1,3
 61 135 61 135 61 210 c 0,4,5
 61 280 61 280 86.5 337 c 128,-1,6
 112 394 112 394 155.5 434.5 c 128,-1,7
 199 475 199 475 254.5 497.5 c 128,-1,8
 310 520 310 520 372 520 c 0,9,10
 441 520 441 520 490.5 492 c 128,-1,11
 540 464 540 464 567 428 c 1,12,-1
 482 350 l 1,13,14
 456 379 456 379 426 392.5 c 128,-1,15
 396 406 396 406 361 406 c 0,16,17
 331 406 331 406 303 392.5 c 128,-1,18
 275 379 275 379 252.5 354 c 128,-1,19
 230 329 230 329 217 295.5 c 128,-1,20
 204 262 204 262 204 223 c 0,21,22
 204 162 204 162 240 132 c 128,-1,23
 276 102 276 102 326 102 c 0,24,25
 364 102 364 102 394 118.5 c 128,-1,26
 424 135 424 135 454 160 c 1,27,-1
 503 65 l 1,28,29
 465 30 465 30 414.5 9 c 128,-1,30
 364 -12 364 -12 305 -12 c 0,0,1
EndSplineSet
Substitution2: "'sups' Superscript lookup 19 subtable" c.sups
EndChar

StartChar: d
Encoding: 100 100 31
Width: 614
GlyphClass: 2
Flags: W
AnchorPoint: "Anchor-3" 256 -20 basechar 0
AnchorPoint: "Anchor-2" 222 0 basechar 0
AnchorPoint: "Anchor-0" 558 750 basechar 0
LayerCount: 2
Fore
SplineSet
201 -12 m 0,0,1
 126 -12 126 -12 81 38.5 c 128,-1,2
 36 89 36 89 36 184 c 0,3,4
 36 254 36 254 58 315 c 128,-1,5
 80 376 80 376 118 422 c 128,-1,6
 156 468 156 468 205 494 c 128,-1,7
 254 520 254 520 308 520 c 0,8,9
 358 520 358 520 391 503.5 c 128,-1,10
 424 487 424 487 443 459 c 1,11,-1
 445 459 l 1,12,-1
 458 555 l 1,13,-1
 489 718 l 1,14,-1
 629 718 l 1,15,-1
 484 0 l 1,16,-1
 371 0 l 1,17,-1
 373 70 l 1,18,-1
 369 70 l 1,19,20
 333 32 333 32 289 10 c 128,-1,21
 245 -12 245 -12 201 -12 c 0,0,1
254 102 m 0,22,23
 283 102 283 102 317 121 c 128,-1,24
 351 140 351 140 381 180 c 1,25,-1
 418 357 l 1,26,27
 404 383 404 383 379.5 394.5 c 128,-1,28
 355 406 355 406 333 406 c 0,29,30
 303 406 303 406 275.5 390.5 c 128,-1,31
 248 375 248 375 226.5 347 c 128,-1,32
 205 319 205 319 192.5 282.5 c 128,-1,33
 180 246 180 246 180 202 c 0,34,35
 180 152 180 152 200.5 127 c 128,-1,36
 221 102 221 102 254 102 c 0,22,23
EndSplineSet
Substitution2: "'sups' Superscript lookup 19 subtable" d.sups
EndChar

StartChar: e
Encoding: 101 101 32
Width: 614
GlyphClass: 2
Flags: W
AnchorPoint: "Anchor-6" 358 0 basechar 0
AnchorPoint: "Anchor-3" 264 -20 basechar 0
AnchorPoint: "Anchor-2" 268 0 basechar 0
AnchorPoint: "Anchor-0" 350 528 basechar 0
LayerCount: 2
Fore
SplineSet
273 -12 m 0,0,1
 207 -12 207 -12 156.5 12 c 128,-1,2
 106 36 106 36 76.5 86 c 128,-1,3
 47 136 47 136 47 213 c 0,4,5
 47 283 47 283 71 338.5 c 128,-1,6
 95 394 95 394 136 435 c 128,-1,7
 177 476 177 476 230.5 498 c 128,-1,8
 284 520 284 520 342 520 c 0,9,10
 440 520 440 520 494.5 465 c 128,-1,11
 549 410 549 410 549 321 c 0,12,13
 549 289 549 289 543 258 c 128,-1,14
 537 227 537 227 531 215 c 1,15,-1
 153 215 l 1,16,-1
 168 305 l 1,17,-1
 455 305 l 1,18,-1
 414 285 l 1,19,20
 417 293 417 293 418.5 303.5 c 128,-1,21
 420 314 420 314 420 324 c 0,22,23
 420 368 420 368 398 390.5 c 128,-1,24
 376 413 376 413 338 413 c 0,25,26
 314 413 314 413 287.5 400.5 c 128,-1,27
 261 388 261 388 238.5 364 c 128,-1,28
 216 340 216 340 201.5 303.5 c 128,-1,29
 187 267 187 267 187 219 c 0,30,31
 187 173 187 173 203 146 c 128,-1,32
 219 119 219 119 246 107 c 128,-1,33
 273 95 273 95 306 95 c 0,34,35
 350 95 350 95 386.5 110.5 c 128,-1,36
 423 126 423 126 458 148 c 1,37,-1
 505 55 l 1,38,39
 460 24 460 24 401 6 c 128,-1,40
 342 -12 342 -12 273 -12 c 0,0,1
EndSplineSet
Substitution2: "'sups' Superscript lookup 19 subtable" e.sups
EndChar

StartChar: f
Encoding: 102 102 33
Width: 614
GlyphClass: 2
Flags: W
AnchorPoint: "Anchor-3" 218 -20 basechar 0
AnchorPoint: "Anchor-2" 221 0 basechar 0
AnchorPoint: "Anchor-0" 482 750 basechar 0
LayerCount: 2
Fore
SplineSet
147 0 m 1,0,-1
 254 529 l 2,1,2
 274 629 274 629 334 679.5 c 128,-1,3
 394 730 394 730 493 730 c 0,4,5
 550 730 550 730 590.5 713 c 128,-1,6
 631 696 631 696 655 677 c 1,7,-1
 593 589 l 1,8,9
 573 604 573 604 551 611 c 128,-1,10
 529 618 529 618 499 618 c 0,11,12
 459 618 459 618 430 598 c 128,-1,13
 401 578 401 578 392 528 c 2,14,-1
 288 0 l 1,15,-1
 147 0 l 1,0,-1
90 398 m 1,16,-1
 112 502 l 1,17,-1
 251 508 l 1,18,-1
 565 508 l 1,19,-1
 544 398 l 1,20,-1
 90 398 l 1,16,-1
EndSplineSet
Substitution2: "'sups' Superscript lookup 19 subtable" f.sups
EndChar

StartChar: g
Encoding: 103 103 34
Width: 614
GlyphClass: 2
Flags: W
AnchorPoint: "Anchor-3" 222 -210 basechar 0
AnchorPoint: "Anchor-0" 356 528 basechar 0
LayerCount: 2
Fore
SplineSet
212 -201 m 0,0,1
 143 -201 143 -201 92 -182 c 128,-1,2
 41 -163 41 -163 3 -134 c 1,3,-1
 63 -37 l 1,4,5
 92 -62 92 -62 131 -76 c 128,-1,6
 170 -90 170 -90 209 -90 c 0,7,8
 240 -90 240 -90 269 -83 c 128,-1,9
 298 -76 298 -76 320 -55.5 c 128,-1,10
 342 -35 342 -35 353 4 c 2,11,-1
 375 81 l 1,12,-1
 371 81 l 1,13,14
 340 53 340 53 298.5 34 c 128,-1,15
 257 15 257 15 215 15 c 0,16,17
 134 15 134 15 88 67 c 128,-1,18
 42 119 42 119 42 205 c 0,19,20
 42 274 42 274 64 331.5 c 128,-1,21
 86 389 86 389 123.5 431 c 128,-1,22
 161 473 161 473 208.5 496.5 c 128,-1,23
 256 520 256 520 308 520 c 0,24,25
 358 520 358 520 394.5 502 c 128,-1,26
 431 484 431 484 449 454 c 1,27,-1
 453 454 l 1,28,-1
 476 508 l 1,29,-1
 587 508 l 1,30,-1
 486 9 l 2,31,32
 471 -70 471 -70 430 -116 c 128,-1,33
 389 -162 389 -162 332 -181.5 c 128,-1,34
 275 -201 275 -201 212 -201 c 0,0,1
264 130 m 0,35,36
 295 130 295 130 325 146 c 128,-1,37
 355 162 355 162 383 191 c 1,38,-1
 418 355 l 1,39,40
 401 382 401 382 378.5 394 c 128,-1,41
 356 406 356 406 331 406 c 256,42,43
 305 406 305 406 279.5 393.5 c 128,-1,44
 254 381 254 381 233 357 c 128,-1,45
 212 333 212 333 199.5 300 c 128,-1,46
 187 267 187 267 187 226 c 0,47,48
 187 176 187 176 206.5 153 c 128,-1,49
 226 130 226 130 264 130 c 0,35,36
EndSplineSet
Substitution2: "'ss03' Style Set 3 lookup 26 subtable" g.a
Substitution2: "'sups' Superscript lookup 19 subtable" g.sups
EndChar

StartChar: h
Encoding: 104 104 35
Width: 614
GlyphClass: 2
Flags: W
AnchorPoint: "Anchor-3" 257 -20 basechar 0
AnchorPoint: "Anchor-2" 88 0 basechar 0
AnchorPoint: "Anchor-0" 231 750 basechar 0
LayerCount: 2
Fore
SplineSet
16 0 m 1,0,-1
 160 718 l 1,1,-1
 300 718 l 1,2,-1
 257 507 l 1,3,-1
 233 424 l 1,4,-1
 238 424 l 1,5,6
 264 451 264 451 294.5 473 c 128,-1,7
 325 495 325 495 358 507.5 c 128,-1,8
 391 520 391 520 426 520 c 0,9,10
 489 520 489 520 523 487 c 128,-1,11
 557 454 557 454 557 390 c 0,12,13
 557 372 557 372 555 352.5 c 128,-1,14
 553 333 553 333 549 313 c 2,15,-1
 486 0 l 1,16,-1
 346 0 l 1,17,-1
 406 297 l 2,18,19
 409 312 409 312 411 325 c 128,-1,20
 413 338 413 338 413 349 c 0,21,22
 413 375 413 375 399.5 387.5 c 128,-1,23
 386 400 386 400 360 400 c 0,24,25
 328 400 328 400 290.5 377 c 128,-1,26
 253 354 253 354 217 310 c 1,27,-1
 157 0 l 1,28,-1
 16 0 l 1,0,-1
EndSplineSet
Substitution2: "'sups' Superscript lookup 19 subtable" h.sups
EndChar

StartChar: k
Encoding: 107 107 38
Width: 614
GlyphClass: 2
Flags: W
AnchorPoint: "Anchor-3" 279 -20 basechar 0
AnchorPoint: "Anchor-0" 236 741 basechar 0
LayerCount: 2
Fore
SplineSet
22 0 m 1,0,-1
 166 718 l 1,1,-1
 305 718 l 1,2,-1
 220 298 l 1,3,-1
 224 298 l 1,4,-1
 461 508 l 1,5,-1
 624 508 l 1,6,-1
 350 259 l 1,7,-1
 185 121 l 1,8,-1
 162 0 l 1,9,-1
 22 0 l 1,0,-1
288 234 m 1,10,-1
 379 330 l 1,11,-1
 537 0 l 1,12,-1
 394 0 l 1,13,-1
 288 234 l 1,10,-1
EndSplineSet
Substitution2: "'sups' Superscript lookup 19 subtable" k.sups
EndChar

StartChar: l
Encoding: 108 108 39
Width: 614
GlyphClass: 2
Flags: W
AnchorPoint: "Anchor-4" 291 376 basechar 0
AnchorPoint: "Anchor-3" 322 -20 basechar 0
AnchorPoint: "Anchor-2" 328 0 basechar 0
AnchorPoint: "Anchor-0" 366 750 basechar 0
LayerCount: 2
Fore
SplineSet
334 -12 m 0,0,1
 266 -12 266 -12 222 30 c 128,-1,2
 178 72 178 72 178 147 c 0,3,4
 178 161 178 161 180 177.5 c 128,-1,5
 182 194 182 194 186 211 c 2,6,-1
 275 608 l 1,7,-1
 130 608 l 1,8,-1
 154 717 l 1,9,-1
 436 717 l 1,10,-1
 322 195 l 2,11,12
 321 187 321 187 319 178 c 128,-1,13
 317 169 317 169 317 157 c 0,14,15
 317 128 317 128 334 115 c 128,-1,16
 351 102 351 102 377 102 c 0,17,18
 400 102 400 102 418 108 c 128,-1,19
 436 114 436 114 461 125 c 1,20,-1
 490 20 l 1,21,22
 451 3 451 3 413.5 -4.5 c 128,-1,23
 376 -12 376 -12 334 -12 c 0,0,1
EndSplineSet
Substitution2: "'sups' Superscript lookup 19 subtable" l.sups
EndChar

StartChar: m
Encoding: 109 109 40
Width: 614
GlyphClass: 2
Flags: W
AnchorPoint: "Anchor-3" 254 -20 basechar 0
AnchorPoint: "Anchor-2" 457 0 basechar 0
AnchorPoint: "Anchor-0" 358 528 basechar 0
LayerCount: 2
Fore
SplineSet
-20 0 m 1,0,-1
 80 508 l 1,1,-1
 180 508 l 1,2,-1
 178 442 l 1,3,-1
 182 442 l 1,4,5
 205 474 205 474 239 497 c 128,-1,6
 273 520 273 520 317 520 c 0,7,8
 350 520 350 520 368 500.5 c 128,-1,9
 386 481 386 481 389 439 c 1,10,-1
 378 431 l 1,11,12
 406 476 406 476 442.5 498 c 128,-1,13
 479 520 479 520 521 520 c 0,14,15
 558 520 558 520 579.5 497 c 128,-1,16
 601 474 601 474 601 429 c 0,17,18
 601 416 601 416 599.5 404 c 128,-1,19
 598 392 598 392 595 377 c 2,20,-1
 518 0 l 1,21,-1
 388 0 l 1,22,-1
 460 350 l 2,23,24
 462 359 462 359 462.5 364.5 c 128,-1,25
 463 370 463 370 463 375 c 0,26,27
 463 390 463 390 457.5 395.5 c 128,-1,28
 452 401 452 401 441 401 c 0,29,30
 424 401 424 401 408.5 388.5 c 128,-1,31
 393 376 393 376 377 348 c 1,32,-1
 306 0 l 1,33,-1
 194 0 l 1,34,-1
 266 350 l 2,35,36
 268 359 268 359 268 364.5 c 128,-1,37
 268 370 268 370 268 375 c 0,38,39
 268 390 268 390 262 395.5 c 128,-1,40
 256 401 256 401 246 401 c 0,41,42
 228 401 228 401 212 388.5 c 128,-1,43
 196 376 196 376 177 347 c 1,44,-1
 111 0 l 1,45,-1
 -20 0 l 1,0,-1
EndSplineSet
Substitution2: "'sups' Superscript lookup 19 subtable" m.sups
EndChar

StartChar: n
Encoding: 110 110 41
Width: 614
GlyphClass: 2
Flags: W
AnchorPoint: "Anchor-3" 257 -20 basechar 0
AnchorPoint: "Anchor-2" 416 0 basechar 0
AnchorPoint: "Anchor-0" 361 528 basechar 0
LayerCount: 2
Fore
SplineSet
16 0 m 1,0,-1
 116 508 l 1,1,-1
 229 508 l 1,2,-1
 223 421 l 1,3,-1
 227 421 l 1,4,5
 253 446 253 446 285.5 469 c 128,-1,6
 318 492 318 492 354 506 c 128,-1,7
 390 520 390 520 426 520 c 0,8,9
 489 520 489 520 523 487 c 128,-1,10
 557 454 557 454 557 390 c 0,11,12
 557 372 557 372 555 352.5 c 128,-1,13
 553 333 553 333 549 313 c 2,14,-1
 486 0 l 1,15,-1
 346 0 l 1,16,-1
 406 297 l 2,17,18
 409 312 409 312 411 325 c 128,-1,19
 413 338 413 338 413 349 c 0,20,21
 413 375 413 375 399.5 387.5 c 128,-1,22
 386 400 386 400 360 400 c 0,23,24
 328 400 328 400 290.5 377 c 128,-1,25
 253 354 253 354 217 310 c 1,26,-1
 157 0 l 1,27,-1
 16 0 l 1,0,-1
EndSplineSet
Substitution2: "'sups' Superscript lookup 19 subtable" n.sups
EndChar

StartChar: o
Encoding: 111 111 42
Width: 614
GlyphClass: 2
Flags: W
AnchorPoint: "Anchor-6" 246 0 basechar 0
AnchorPoint: "Anchor-5" 361 508 basechar 0
AnchorPoint: "Anchor-3" 240 -20 basechar 0
AnchorPoint: "Anchor-2" 246 0 basechar 0
AnchorPoint: "Anchor-0" 348 528 basechar 0
LayerCount: 2
Fore
SplineSet
260 -12 m 0,0,1
 190 -12 190 -12 140 16 c 128,-1,2
 90 44 90 44 63 94.5 c 128,-1,3
 36 145 36 145 36 214 c 256,4,5
 36 283 36 283 60 339 c 128,-1,6
 84 395 84 395 125.5 435.5 c 128,-1,7
 167 476 167 476 220 498 c 128,-1,8
 273 520 273 520 331 520 c 0,9,10
 401 520 401 520 451 492 c 128,-1,11
 501 464 501 464 528.5 413 c 128,-1,12
 556 362 556 362 556 294 c 0,13,14
 556 226 556 226 532 169.5 c 128,-1,15
 508 113 508 113 466 72.5 c 128,-1,16
 424 32 424 32 370.5 10 c 128,-1,17
 317 -12 317 -12 260 -12 c 0,0,1
270 102 m 0,18,19
 299 102 299 102 324.5 116 c 128,-1,20
 350 130 350 130 370 154.5 c 128,-1,21
 390 179 390 179 402 214 c 128,-1,22
 414 249 414 249 414 290 c 0,23,24
 414 345 414 345 389 375.5 c 128,-1,25
 364 406 364 406 321 406 c 0,26,27
 293 406 293 406 267 392 c 128,-1,28
 241 378 241 378 221 353.5 c 128,-1,29
 201 329 201 329 189 294.5 c 128,-1,30
 177 260 177 260 177 218 c 0,31,32
 177 163 177 163 202.5 132.5 c 128,-1,33
 228 102 228 102 270 102 c 0,18,19
EndSplineSet
Substitution2: "'sups' Superscript lookup 19 subtable" o.sups
EndChar

StartChar: p
Encoding: 112 112 43
Width: 614
GlyphClass: 2
Flags: W
AnchorPoint: "Anchor-3" 57 -210 basechar 0
AnchorPoint: "Anchor-0" 379 528 basechar 0
LayerCount: 2
Fore
SplineSet
-23 -188 m 1,0,-1
 118 508 l 1,1,-1
 231 508 l 1,2,-1
 230 436 l 1,3,-1
 233 436 l 1,4,5
 270 474 270 474 311.5 497 c 128,-1,6
 353 520 353 520 401 520 c 0,7,8
 478 520 478 520 522.5 468.5 c 128,-1,9
 567 417 567 417 567 322 c 0,10,11
 567 230 567 230 533 153.5 c 128,-1,12
 499 77 499 77 437.5 32.5 c 128,-1,13
 376 -12 376 -12 294 -12 c 0,14,15
 254 -12 254 -12 218 4 c 128,-1,16
 182 20 182 20 161 48 c 1,17,-1
 159 48 l 1,18,-1
 144 -51 l 1,19,-1
 118 -188 l 1,20,-1
 -23 -188 l 1,0,-1
280 102 m 0,21,22
 310 102 310 102 335 117 c 128,-1,23
 360 132 360 132 379.5 159 c 128,-1,24
 399 186 399 186 410.5 223 c 128,-1,25
 422 260 422 260 422 304 c 0,26,27
 422 356 422 356 400.5 381 c 128,-1,28
 379 406 379 406 345 406 c 0,29,30
 316 406 316 406 285 386.5 c 128,-1,31
 254 367 254 367 223 324 c 1,32,-1
 186 150 l 1,33,34
 202 125 202 125 228 113.5 c 128,-1,35
 254 102 254 102 280 102 c 0,21,22
EndSplineSet
Substitution2: "'sups' Superscript lookup 19 subtable" p.sups
EndChar

StartChar: q
Encoding: 113 113 44
Width: 614
GlyphClass: 2
Flags: W
AnchorPoint: "Anchor-3" 373 -210 basechar 0
AnchorPoint: "Anchor-0" 359 528 basechar 0
LayerCount: 2
Fore
SplineSet
308 -188 m 1,0,-1
 337 -48 l 2,1,2
 340 -36 340 -36 344.5 -17.5 c 128,-1,3
 349 1 349 1 356.5 23 c 128,-1,4
 364 45 364 45 373 70 c 1,5,-1
 369 70 l 1,6,7
 333 32 333 32 288.5 10 c 128,-1,8
 244 -12 244 -12 201 -12 c 0,9,10
 126 -12 126 -12 81 38.5 c 128,-1,11
 36 89 36 89 36 184 c 0,12,13
 36 254 36 254 58 315 c 128,-1,14
 80 376 80 376 118 422 c 128,-1,15
 156 468 156 468 205 494 c 128,-1,16
 254 520 254 520 308 520 c 0,17,18
 358 520 358 520 394.5 502 c 128,-1,19
 431 484 431 484 449 454 c 1,20,-1
 453 454 l 1,21,-1
 476 508 l 1,22,-1
 587 508 l 1,23,-1
 446 -188 l 1,24,-1
 308 -188 l 1,0,-1
254 102 m 0,25,26
 283 102 283 102 317 121 c 128,-1,27
 351 140 351 140 381 180 c 1,28,-1
 418 357 l 1,29,30
 404 383 404 383 379.5 394.5 c 128,-1,31
 355 406 355 406 333 406 c 0,32,33
 303 406 303 406 275.5 390.5 c 128,-1,34
 248 375 248 375 226.5 347 c 128,-1,35
 205 319 205 319 192.5 282.5 c 128,-1,36
 180 246 180 246 180 202 c 0,37,38
 180 152 180 152 200.5 127 c 128,-1,39
 221 102 221 102 254 102 c 0,25,26
EndSplineSet
Substitution2: "'sups' Superscript lookup 19 subtable" q.sups
EndChar

StartChar: r
Encoding: 114 114 45
Width: 614
GlyphClass: 2
Flags: W
AnchorPoint: "Anchor-3" 150 -20 basechar 0
AnchorPoint: "Anchor-2" 150 0 basechar 0
AnchorPoint: "Anchor-0" 388 528 basechar 0
LayerCount: 2
Fore
SplineSet
75 0 m 1,0,-1
 175 509 l 1,1,-1
 289 508 l 1,2,-1
 274 373 l 1,3,-1
 279 373 l 1,4,5
 306 418 306 418 340 451 c 128,-1,6
 374 484 374 484 412 502 c 128,-1,7
 450 520 450 520 488 520 c 0,8,9
 521 520 521 520 547.5 514.5 c 128,-1,10
 574 509 574 509 589 499 c 1,11,-1
 539 378 l 1,12,13
 522 387 522 387 502.5 391 c 128,-1,14
 483 395 483 395 461 395 c 0,15,16
 411 395 411 395 358 349.5 c 128,-1,17
 305 304 305 304 260 224 c 1,18,-1
 215 0 l 1,19,-1
 75 0 l 1,0,-1
EndSplineSet
Substitution2: "'sups' Superscript lookup 19 subtable" r.sups
EndChar

StartChar: s
Encoding: 115 115 46
Width: 614
GlyphClass: 2
Flags: W
AnchorPoint: "Anchor-3" 271 -20 basechar 0
AnchorPoint: "Anchor-2" 271 0 basechar 0
AnchorPoint: "Anchor-0" 354 528 basechar 0
LayerCount: 2
Fore
SplineSet
272 -12 m 0,0,1
 224 -12 224 -12 181 -0.5 c 128,-1,2
 138 11 138 11 102.5 31.5 c 128,-1,3
 67 52 67 52 39 81 c 1,4,-1
 117 169 l 1,5,6
 156 129 156 129 202.5 110.5 c 128,-1,7
 249 92 249 92 295 92 c 0,8,9
 332 92 332 92 352 103 c 128,-1,10
 372 114 372 114 372 135 c 0,11,12
 372 149 372 149 362.5 159.5 c 128,-1,13
 353 170 353 170 331 179.5 c 128,-1,14
 309 189 309 189 271 201 c 0,15,16
 194 227 194 227 154 263.5 c 128,-1,17
 114 300 114 300 114 357 c 0,18,19
 114 410 114 410 143.5 446.5 c 128,-1,20
 173 483 173 483 221.5 501.5 c 128,-1,21
 270 520 270 520 328 520 c 0,22,23
 403 520 403 520 455 496 c 128,-1,24
 507 472 507 472 543 437 c 1,25,-1
 466 355 l 1,26,27
 435 380 435 380 395.5 398 c 128,-1,28
 356 416 356 416 312 416 c 0,29,30
 281 416 281 416 263 405.5 c 128,-1,31
 245 395 245 395 245 374 c 0,32,33
 245 354 245 354 269 340.5 c 128,-1,34
 293 327 293 327 351 306 c 0,35,36
 397 291 397 291 431.5 271.5 c 128,-1,37
 466 252 466 252 485 224 c 128,-1,38
 504 196 504 196 504 154 c 0,39,40
 504 97 504 97 473 60 c 128,-1,41
 442 23 442 23 389.5 5.5 c 128,-1,42
 337 -12 337 -12 272 -12 c 0,0,1
EndSplineSet
Substitution2: "'sups' Superscript lookup 19 subtable" s.sups
EndChar

StartChar: t
Encoding: 116 116 47
Width: 614
GlyphClass: 2
Flags: W
AnchorPoint: "Anchor-3" 312 -20 basechar 0
AnchorPoint: "Anchor-2" 312 0 basechar 0
AnchorPoint: "Anchor-0" 326 657 basechar 0
LayerCount: 2
Fore
SplineSet
316 -12 m 0,0,1
 226 -12 226 -12 185 30 c 128,-1,2
 144 72 144 72 144 141 c 0,3,4
 144 156 144 156 146 171.5 c 128,-1,5
 148 187 148 187 153 208 c 2,6,-1
 191 398 l 1,7,-1
 58 398 l 1,8,-1
 79 502 l 1,9,-1
 219 508 l 1,10,-1
 269 657 l 1,11,-1
 384 657 l 1,12,-1
 352 508 l 1,13,-1
 569 508 l 1,14,-1
 548 398 l 1,15,-1
 330 398 l 1,16,-1
 291 213 l 2,17,18
 288 200 288 200 287.5 191.5 c 128,-1,19
 287 183 287 183 287 174 c 0,20,21
 287 135 287 135 307 118.5 c 128,-1,22
 327 102 327 102 359 102 c 0,23,24
 391 102 391 102 420.5 113.5 c 128,-1,25
 450 125 450 125 472 138 c 1,26,-1
 515 41 l 1,27,28
 480 18 480 18 427.5 3 c 128,-1,29
 375 -12 375 -12 316 -12 c 0,0,1
EndSplineSet
Substitution2: "'sups' Superscript lookup 19 subtable" t.sups
EndChar

StartChar: u
Encoding: 117 117 48
Width: 614
GlyphClass: 2
Flags: W
AnchorPoint: "Anchor-6" 386 0 basechar 0
AnchorPoint: "Anchor-3" 253 -20 basechar 0
AnchorPoint: "Anchor-2" 423 0 basechar 0
AnchorPoint: "Anchor-0" 343 528 basechar 0
LayerCount: 2
Fore
SplineSet
171 -12 m 0,0,1
 108 -12 108 -12 74 21.5 c 128,-1,2
 40 55 40 55 40 119 c 0,3,4
 40 137 40 137 42 156 c 128,-1,5
 44 175 44 175 48 195 c 2,6,-1
 111 508 l 1,7,-1
 251 508 l 1,8,-1
 191 211 l 2,9,10
 188 197 188 197 185.5 184 c 128,-1,11
 183 171 183 171 183 160 c 0,12,13
 183 134 183 134 197.5 121 c 128,-1,14
 212 108 212 108 237 108 c 0,15,16
 269 108 269 108 305 131 c 128,-1,17
 341 154 341 154 377 199 c 1,18,-1
 437 508 l 1,19,-1
 578 508 l 1,20,-1
 477 0 l 1,21,-1
 364 0 l 1,22,-1
 370 87 l 1,23,-1
 366 87 l 1,24,25
 341 62 341 62 309.5 39 c 128,-1,26
 278 16 278 16 243 2 c 128,-1,27
 208 -12 208 -12 171 -12 c 0,0,1
EndSplineSet
Substitution2: "'sups' Superscript lookup 19 subtable" u.sups
EndChar

StartChar: v
Encoding: 118 118 49
Width: 614
GlyphClass: 2
Flags: W
AnchorPoint: "Anchor-3" 246 -20 basechar 0
AnchorPoint: "Anchor-0" 338 528 basechar 0
LayerCount: 2
Fore
SplineSet
166 0 m 1,0,-1
 72 508 l 1,1,-1
 210 508 l 1,2,-1
 247 257 l 2,3,4
 253 220 253 220 256.5 181 c 128,-1,5
 260 142 260 142 264 103 c 1,6,-1
 268 103 l 1,7,8
 286 140 286 140 306 180 c 128,-1,9
 326 220 326 220 346 258 c 2,10,-1
 477 508 l 1,11,-1
 616 508 l 1,12,-1
 329 0 l 1,13,-1
 166 0 l 1,0,-1
EndSplineSet
Substitution2: "'sups' Superscript lookup 19 subtable" v.sups
EndChar

StartChar: w
Encoding: 119 119 50
Width: 614
GlyphClass: 2
Flags: W
AnchorPoint: "Anchor-3" 246 -20 basechar 0
AnchorPoint: "Anchor-0" 338 531 basechar 0
LayerCount: 2
Fore
SplineSet
32 0 m 1,0,-1
 48 508 l 1,1,-1
 182 508 l 1,2,-1
 165 261 l 2,3,4
 162 224 162 224 158.5 187 c 128,-1,5
 155 150 155 150 153 112 c 1,6,-1
 157 112 l 1,7,8
 169 150 169 150 182 187.5 c 128,-1,9
 195 225 195 225 210 262 c 2,10,-1
 283 445 l 1,11,-1
 385 445 l 1,12,-1
 387 262 l 2,13,14
 387 224 387 224 386 187 c 128,-1,15
 385 150 385 150 383 112 c 1,16,-1
 387 112 l 1,17,18
 400 150 400 150 411 187 c 128,-1,19
 422 224 422 224 433 261 c 2,20,-1
 511 508 l 1,21,-1
 640 508 l 1,22,-1
 458 0 l 1,23,-1
 299 0 l 1,24,-1
 303 185 l 2,25,26
 304 221 304 221 306.5 255 c 128,-1,27
 309 289 309 289 312 330 c 1,28,-1
 308 330 l 1,29,30
 301 302 301 302 295 280 c 128,-1,31
 289 258 289 258 281.5 235.5 c 128,-1,32
 274 213 274 213 264 183 c 2,33,-1
 197 0 l 1,34,-1
 32 0 l 1,0,-1
EndSplineSet
Substitution2: "'sups' Superscript lookup 19 subtable" w.sups
EndChar

StartChar: x
Encoding: 120 120 51
Width: 614
GlyphClass: 2
Flags: W
AnchorPoint: "Anchor-3" 251 -20 basechar 0
AnchorPoint: "Anchor-2" 432 0 basechar 0
AnchorPoint: "Anchor-0" 338 528 basechar 0
LayerCount: 2
Fore
SplineSet
-14 0 m 1,0,-1
 216 263 l 1,1,-1
 97 508 l 1,2,-1
 238 508 l 1,3,-1
 280 419 l 2,4,5
 288 402 288 402 297.5 376.5 c 128,-1,6
 307 351 307 351 313 334 c 1,7,-1
 317 334 l 1,8,9
 327 350 327 350 344 377 c 128,-1,10
 361 404 361 404 373 419 c 2,11,-1
 440 508 l 1,12,-1
 597 508 l 1,13,-1
 375 253 l 1,14,-1
 506 0 l 1,15,-1
 361 0 l 1,16,-1
 317 91 l 2,17,18
 309 108 309 108 299.5 130 c 128,-1,19
 290 152 290 152 281 172 c 1,20,-1
 274 172 l 1,21,22
 264 158 264 158 254 144 c 128,-1,23
 244 130 244 130 233.5 116.5 c 128,-1,24
 223 103 223 103 214 91 c 2,25,-1
 142 0 l 1,26,-1
 -14 0 l 1,0,-1
EndSplineSet
Substitution2: "'sups' Superscript lookup 19 subtable" x.sups
EndChar

StartChar: y
Encoding: 121 121 52
Width: 614
GlyphClass: 2
Flags: W
AnchorPoint: "Anchor-6" 98 -170 basechar 0
AnchorPoint: "Anchor-3" 200 -210 basechar 0
AnchorPoint: "Anchor-0" 338 528 basechar 0
LayerCount: 2
Fore
SplineSet
45 -199 m 0,0,1
 17 -199 17 -199 -8.5 -191.5 c 128,-1,2
 -34 -184 -34 -184 -49 -174 c 1,3,-1
 -10 -79 l 1,4,5
 2 -85 2 -85 20 -89.5 c 128,-1,6
 38 -94 38 -94 53 -94 c 0,7,8
 81 -94 81 -94 101.5 -87 c 128,-1,9
 122 -80 122 -80 138.5 -65 c 128,-1,10
 155 -50 155 -50 169 -28 c 2,11,-1
 187 2 l 1,12,-1
 72 508 l 1,13,-1
 207 508 l 1,14,-1
 249 287 l 2,15,16
 255 251 255 251 261.5 205.5 c 128,-1,17
 268 160 268 160 271 127 c 1,18,-1
 275 127 l 1,19,20
 290 160 290 160 313 205.5 c 128,-1,21
 336 251 336 251 355 287 c 2,22,-1
 476 508 l 1,23,-1
 618 508 l 1,24,-1
 314 -14 l 2,25,26
 277 -77 277 -77 238 -118.5 c 128,-1,27
 199 -160 199 -160 151.5 -179.5 c 128,-1,28
 104 -199 104 -199 45 -199 c 0,0,1
EndSplineSet
Substitution2: "'sups' Superscript lookup 19 subtable" y.sups
EndChar

StartChar: z
Encoding: 122 122 53
Width: 614
GlyphClass: 2
Flags: W
AnchorPoint: "Anchor-3" 266 -20 basechar 0
AnchorPoint: "Anchor-2" 281 0 basechar 0
AnchorPoint: "Anchor-0" 346 528 basechar 0
LayerCount: 2
Fore
SplineSet
24 0 m 1,0,-1
 39 83 l 1,1,-1
 365 400 l 1,2,-1
 101 400 l 1,3,-1
 125 508 l 1,4,-1
 566 508 l 1,5,-1
 551 426 l 1,6,-1
 227 110 l 1,7,-1
 502 110 l 1,8,-1
 481 0 l 1,9,-1
 24 0 l 1,0,-1
EndSplineSet
Substitution2: "'sups' Superscript lookup 19 subtable" z.sups
EndChar

StartChar: Aringacute
Encoding: 506 506 62
Width: 614
GlyphClass: 1
Flags: W
LayerCount: 2
Fore
SplineSet
398 860 m 1,0,-1
 338 890 l 1,1,-1
 504 1032 l 1,2,-1
 567 956 l 1,3,-1
 398 860 l 1,0,-1
-44 0 m 1,4,-1
 299 668 l 1,5,-1
 466 668 l 1,6,-1
 536 0 l 1,7,-1
 388 0 l 1,8,-1
 371 361 l 2,9,10
 368 411 368 411 366 460 c 128,-1,11
 364 509 364 509 361 560 c 1,12,-1
 357 560 l 1,13,14
 335 511 335 511 315 462 c 128,-1,15
 295 413 295 413 272 362 c 2,16,-1
 111 0 l 1,17,-1
 -44 0 l 1,4,-1
123 168 m 1,18,-1
 148 273 l 1,19,-1
 454 273 l 1,20,-1
 430 168 l 1,21,-1
 123 168 l 1,18,-1
398 714 m 0,22,23
 354 714 354 714 322 735 c 128,-1,24
 290 756 290 756 290 802 c 0,25,26
 290 833 290 833 307 858.5 c 128,-1,27
 324 884 324 884 353 898.5 c 128,-1,28
 382 913 382 913 416 913 c 0,29,30
 458 913 458 913 491.5 892 c 128,-1,31
 525 871 525 871 525 826 c 0,32,33
 525 794 525 794 508.5 768.5 c 128,-1,34
 492 743 492 743 463 728.5 c 128,-1,35
 434 714 434 714 398 714 c 0,22,23
400 768 m 0,36,37
 419 768 419 768 434.5 784 c 128,-1,38
 450 800 450 800 450 821 c 0,39,40
 450 837 450 837 440.5 848 c 128,-1,41
 431 859 431 859 414 859 c 0,42,43
 394 859 394 859 379.5 843 c 128,-1,44
 365 827 365 827 365 807 c 0,45,46
 365 792 365 792 374 780 c 128,-1,47
 383 768 383 768 400 768 c 0,36,37
EndSplineSet
EndChar

StartChar: Aogonek
Encoding: 260 260 64
Width: 614
GlyphClass: 2
Flags: W
AnchorPoint: "Anchor-0" 380 688 basechar 0
LayerCount: 2
Fore
SplineSet
415 -232 m 0,0,1
 371 -232 371 -232 341 -211 c 128,-1,2
 311 -190 311 -190 311 -151 c 0,3,4
 311 -116 311 -116 330 -85.5 c 128,-1,5
 349 -55 349 -55 375 -33 c 128,-1,6
 401 -11 401 -11 424 0 c 1,7,-1
 388 0 l 1,8,-1
 371 361 l 2,9,10
 368 411 368 411 366 460 c 128,-1,11
 364 509 364 509 361 560 c 1,12,-1
 357 560 l 1,13,14
 334 509 334 509 314.5 461 c 128,-1,15
 295 413 295 413 272 362 c 2,16,-1
 111 0 l 1,17,-1
 -44 0 l 1,18,-1
 299 668 l 1,19,-1
 466 668 l 1,20,-1
 536 0 l 1,21,22
 505 -5 505 -5 479.5 -22 c 128,-1,23
 454 -39 454 -39 438 -61.5 c 128,-1,24
 422 -84 422 -84 422 -105 c 0,25,26
 422 -122 422 -122 435.5 -132 c 128,-1,27
 449 -142 449 -142 467 -142 c 0,28,29
 476 -142 476 -142 484.5 -139 c 128,-1,30
 493 -136 493 -136 502 -132 c 1,31,-1
 529 -199 l 1,32,33
 506 -215 506 -215 475 -223.5 c 128,-1,34
 444 -232 444 -232 415 -232 c 0,0,1
123 168 m 1,35,-1
 148 273 l 1,36,-1
 454 273 l 1,37,-1
 430 168 l 1,38,-1
 123 168 l 1,35,-1
EndSplineSet
Ligature2: "'ccmp' Glyph Composition/Decomposition lookup 7 subtable" A uni0328
EndChar

StartChar: AE
Encoding: 198 198 77
Width: 614
GlyphClass: 2
Flags: W
AnchorPoint: "Anchor-3" 291 -20 basechar 0
AnchorPoint: "Anchor-2" 410 0 basechar 0
AnchorPoint: "Anchor-0" 478 688 basechar 0
LayerCount: 2
Fore
SplineSet
-67 0 m 1,0,-1
 294 668 l 1,1,-1
 663 668 l 1,2,-1
 640 550 l 1,3,-1
 486 550 l 1,4,-1
 458 404 l 1,5,-1
 581 404 l 1,6,-1
 558 288 l 1,7,-1
 434 288 l 1,8,-1
 399 118 l 1,9,-1
 562 118 l 1,10,-1
 540 0 l 1,11,-1
 254 0 l 1,12,-1
 367 563 l 1,13,-1
 362 563 l 1,14,15
 336 513 336 513 312 464 c 128,-1,16
 288 415 288 415 263 369 c 2,17,-1
 77 0 l 1,18,-1
 -67 0 l 1,0,-1
101 163 m 1,19,-1
 123 268 l 1,20,-1
 361 268 l 1,21,-1
 340 163 l 1,22,-1
 101 163 l 1,19,-1
EndSplineSet
EndChar

StartChar: uni0243
Encoding: 579 579 80
Width: 614
GlyphClass: 1
Flags: W
LayerCount: 2
Fore
SplineSet
29 0 m 1,0,-1
 163 669 l 1,1,-1
 372 669 l 2,2,3
 433 669 433 669 479.5 655.5 c 128,-1,4
 526 642 526 642 552.5 613 c 128,-1,5
 579 584 579 584 579 536 c 0,6,7
 579 499 579 499 563.5 465.5 c 128,-1,8
 548 432 548 432 516 407.5 c 128,-1,9
 484 383 484 383 435 372 c 1,10,-1
 434 368 l 1,11,12
 469 361 469 361 494.5 343.5 c 128,-1,13
 520 326 520 326 534 297.5 c 128,-1,14
 548 269 548 269 548 229 c 0,15,16
 548 152 548 152 507.5 101 c 128,-1,17
 467 50 467 50 399.5 25 c 128,-1,18
 332 0 332 0 250 0 c 2,19,-1
 29 0 l 1,0,-1
-13 177 m 1,20,-1
 1 244 l 1,21,-1
 80 249 l 1,22,-1
 334 249 l 1,23,-1
 318 177 l 1,24,-1
 -13 177 l 1,20,-1
187 102 m 1,25,-1
 257 102 l 2,26,27
 309 102 309 102 344.5 117.5 c 128,-1,28
 380 133 380 133 398 163 c 128,-1,29
 416 193 416 193 416 236 c 256,30,31
 416 279 416 279 388 298 c 128,-1,32
 360 317 360 317 305 317 c 2,33,-1
 231 317 l 1,34,-1
 187 102 l 1,25,-1
249 406 m 1,35,-1
 307 406 l 2,36,37
 378 406 378 406 408.5 432 c 128,-1,38
 439 458 439 458 439 505 c 0,39,40
 439 537 439 537 413 551 c 128,-1,41
 387 565 387 565 337 565 c 2,42,-1
 281 565 l 1,43,-1
 249 406 l 1,35,-1
EndSplineSet
EndChar

StartChar: uni018A
Encoding: 394 394 92
Width: 614
GlyphClass: 2
Flags: W
AnchorPoint: "Anchor-3" 279 -20 basechar 0
AnchorPoint: "Anchor-0" 397 688 basechar 0
LayerCount: 2
Fore
SplineSet
118 0 m 1,0,-1
 237 604 l 1,1,-1
 364 604 l 1,2,-1
 265 113 l 1,3,-1
 271 113 l 2,4,5
 301 113 301 113 336 134 c 128,-1,6
 371 155 371 155 401.5 195.5 c 128,-1,7
 432 236 432 236 451.5 294.5 c 128,-1,8
 471 353 471 353 471 430 c 0,9,10
 471 501 471 501 442.5 534 c 128,-1,11
 414 567 414 567 348 567 c 2,12,-1
 282 567 l 2,13,14
 241 567 241 567 210 555.5 c 128,-1,15
 179 544 179 544 159 523.5 c 128,-1,16
 139 503 139 503 129.5 477.5 c 128,-1,17
 120 452 120 452 120 423 c 0,18,19
 120 376 120 376 160 349 c 1,20,-1
 90 263 l 1,21,22
 53 283 53 283 32 317.5 c 128,-1,23
 11 352 11 352 11 402 c 0,24,25
 11 455 11 455 31.5 504.5 c 128,-1,26
 52 554 52 554 93 594 c 128,-1,27
 134 634 134 634 195.5 657.5 c 128,-1,28
 257 681 257 681 339 681 c 0,29,30
 468 681 468 681 541 621 c 128,-1,31
 614 561 614 561 614 439 c 0,32,33
 614 338 614 338 585 256.5 c 128,-1,34
 556 175 556 175 503.5 118 c 128,-1,35
 451 61 451 61 379 30.5 c 128,-1,36
 307 0 307 0 221 0 c 2,37,-1
 118 0 l 1,0,-1
EndSplineSet
EndChar

StartChar: Eogonek
Encoding: 280 280 101
Width: 614
GlyphClass: 2
Flags: W
AnchorPoint: "Anchor-0" 401 688 basechar 0
LayerCount: 2
Fore
SplineSet
357 -232 m 0,0,1
 313 -232 313 -232 283.5 -211 c 128,-1,2
 254 -190 254 -190 254 -151 c 0,3,4
 254 -116 254 -116 272.5 -86.5 c 128,-1,5
 291 -57 291 -57 318 -35 c 128,-1,6
 345 -13 345 -13 371 0 c 1,7,-1
 39 0 l 1,8,-1
 173 668 l 1,9,-1
 608 668 l 1,10,-1
 586 550 l 1,11,-1
 289 550 l 1,12,-1
 260 404 l 1,13,-1
 508 404 l 1,14,-1
 485 287 l 1,15,-1
 238 287 l 1,16,-1
 203 118 l 1,17,-1
 508 118 l 1,18,-1
 485 0 l 1,19,-1
 483 0 l 2,20,21
 465 0 465 0 444.5 -9 c 128,-1,22
 424 -18 424 -18 405.5 -33.5 c 128,-1,23
 387 -49 387 -49 375.5 -68 c 128,-1,24
 364 -87 364 -87 364 -105 c 0,25,26
 364 -122 364 -122 377.5 -132 c 128,-1,27
 391 -142 391 -142 410 -142 c 0,28,29
 419 -142 419 -142 427 -139 c 128,-1,30
 435 -136 435 -136 444 -132 c 1,31,-1
 472 -199 l 1,32,33
 449 -215 449 -215 417.5 -223.5 c 128,-1,34
 386 -232 386 -232 357 -232 c 0,0,1
EndSplineSet
Ligature2: "'ccmp' Glyph Composition/Decomposition lookup 7 subtable" E uni0328
EndChar

StartChar: uni0193
Encoding: 403 403 119
Width: 614
GlyphClass: 1
Flags: W
LayerCount: 2
Fore
SplineSet
589 573 m 1,0,-1
 462 593 l 1,1,2
 458 617 458 617 454.5 642 c 128,-1,3
 451 667 451 667 451 688 c 0,4,5
 451 726 451 726 468.5 759.5 c 128,-1,6
 486 793 486 793 519.5 814 c 128,-1,7
 553 835 553 835 599 835 c 0,8,9
 629 835 629 835 653 827.5 c 128,-1,10
 677 820 677 820 693 811 c 1,11,-1
 649 715 l 1,12,13
 640 721 640 721 633 723 c 128,-1,14
 626 725 626 725 617 725 c 0,15,16
 594 725 594 725 578.5 710 c 128,-1,17
 563 695 563 695 563 667 c 256,18,19
 563 638 563 638 570.5 617 c 128,-1,20
 578 596 578 596 589 573 c 1,0,-1
301 -12 m 0,21,22
 222 -12 222 -12 165 21 c 128,-1,23
 108 54 108 54 77.5 116.5 c 128,-1,24
 47 179 47 179 47 267 c 0,25,26
 47 353 47 353 73 428.5 c 128,-1,27
 99 504 99 504 147.5 560 c 128,-1,28
 196 616 196 616 261 648 c 128,-1,29
 326 680 326 680 402 680 c 0,30,31
 467 680 467 680 514 652 c 128,-1,32
 561 624 561 624 589 573 c 1,33,-1
 493 500 l 1,34,35
 475 530 475 530 451.5 544 c 128,-1,36
 428 558 428 558 395 558 c 0,37,38
 360 558 360 558 329 543 c 128,-1,39
 298 528 298 528 272.5 502 c 128,-1,40
 247 476 247 476 229 440 c 128,-1,41
 211 404 211 404 200.5 363 c 128,-1,42
 190 322 190 322 190 276 c 0,43,44
 190 225 190 225 203.5 187.5 c 128,-1,45
 217 150 217 150 247.5 129 c 128,-1,46
 278 108 278 108 326 108 c 0,47,48
 346 108 346 108 365.5 114.5 c 128,-1,49
 385 121 385 121 398 130 c 1,50,-1
 427 261 l 1,51,-1
 317 261 l 1,52,-1
 338 376 l 1,53,-1
 571 376 l 1,54,-1
 509 57 l 1,55,56
 472 27 472 27 417.5 7.5 c 128,-1,57
 363 -12 363 -12 301 -12 c 0,21,22
EndSplineSet
EndChar

StartChar: Hbar
Encoding: 294 294 125
Width: 614
GlyphClass: 1
Flags: W
LayerCount: 2
Fore
SplineSet
40 497 m 1,0,-1
 52 563 l 1,1,-1
 121 569 l 1,2,-1
 660 569 l 1,3,-1
 644 497 l 1,4,-1
 40 497 l 1,0,-1
4 0 m 1,5,-1
 137 668 l 1,6,-1
 278 668 l 1,7,-1
 224 408 l 1,8,-1
 424 408 l 1,9,-1
 475 668 l 1,10,-1
 615 668 l 1,11,-1
 482 0 l 1,12,-1
 342 0 l 1,13,-1
 399 286 l 1,14,-1
 201 286 l 1,15,-1
 144 0 l 1,16,-1
 4 0 l 1,5,-1
EndSplineSet
EndChar

StartChar: Iogonek
Encoding: 302 302 134
Width: 614
GlyphClass: 2
Flags: W
AnchorPoint: "Anchor-0" 380 688 basechar 0
LayerCount: 2
Fore
SplineSet
220 -232 m 0,0,1
 176 -232 176 -232 146.5 -211 c 128,-1,2
 117 -190 117 -190 117 -151 c 0,3,4
 117 -117 117 -117 135 -87 c 128,-1,5
 153 -57 153 -57 177.5 -34.5 c 128,-1,6
 202 -12 202 -12 222 0 c 1,7,-1
 15 0 l 1,8,-1
 41 118 l 1,9,-1
 196 118 l 1,10,-1
 284 550 l 1,11,-1
 126 550 l 1,12,-1
 151 668 l 1,13,-1
 605 668 l 1,14,-1
 581 550 l 1,15,-1
 424 550 l 1,16,-1
 337 118 l 1,17,-1
 495 118 l 1,18,-1
 470 0 l 1,19,-1
 325 0 l 1,20,21
 276 -20 276 -20 251.5 -51 c 128,-1,22
 227 -82 227 -82 227 -105 c 0,23,24
 227 -122 227 -122 240.5 -132 c 128,-1,25
 254 -142 254 -142 272 -142 c 0,26,27
 281 -142 281 -142 289.5 -139 c 128,-1,28
 298 -136 298 -136 307 -132 c 1,29,-1
 335 -199 l 1,30,31
 312 -215 312 -215 280.5 -223.5 c 128,-1,32
 249 -232 249 -232 220 -232 c 0,0,1
EndSplineSet
Ligature2: "'ccmp' Glyph Composition/Decomposition lookup 7 subtable" I uni0328
EndChar

StartChar: Lslash
Encoding: 321 321 148
Width: 614
GlyphClass: 2
Flags: W
AnchorPoint: "Anchor-3" 294 -20 basechar 0
AnchorPoint: "Anchor-0" 274 688 basechar 0
LayerCount: 2
Fore
SplineSet
42 178 m 1,0,-1
 8 268 l 1,1,-1
 168 345 l 1,2,-1
 270 392 l 1,3,-1
 485 500 l 1,4,-1
 519 410 l 1,5,-1
 247 275 l 1,6,-1
 145 228 l 1,7,-1
 42 178 l 1,0,-1
67 0 m 1,8,-1
 200 668 l 1,9,-1
 340 668 l 1,10,-1
 230 118 l 1,11,-1
 529 118 l 1,12,-1
 507 0 l 1,13,-1
 67 0 l 1,8,-1
EndSplineSet
EndChar

StartChar: uni01EA
Encoding: 490 490 170
Width: 614
GlyphClass: 2
Flags: W
AnchorPoint: "Anchor-0" 380 688 basechar 0
LayerCount: 2
Fore
SplineSet
220 -232 m 0,0,1
 175 -232 175 -232 146 -211 c 128,-1,2
 117 -190 117 -190 117 -151 c 0,3,4
 117 -121 117 -121 131 -94.5 c 128,-1,5
 145 -68 145 -68 167 -46.5 c 128,-1,6
 189 -25 189 -25 212 -10 c 1,7,8
 157 2 157 2 116 36.5 c 128,-1,9
 75 71 75 71 53 126.5 c 128,-1,10
 31 182 31 182 31 260 c 0,11,12
 31 329 31 329 46.5 391.5 c 128,-1,13
 62 454 62 454 92 506.5 c 128,-1,14
 122 559 122 559 163 598 c 128,-1,15
 204 637 204 637 255 658.5 c 128,-1,16
 306 680 306 680 366 680 c 0,17,18
 436 680 436 680 486 647 c 128,-1,19
 536 614 536 614 563 553 c 128,-1,20
 590 492 590 492 590 408 c 0,21,22
 590 337 590 337 572 269.5 c 128,-1,23
 554 202 554 202 519.5 144.5 c 128,-1,24
 485 87 485 87 435 47 c 128,-1,25
 385 7 385 7 318 -8 c 0,26,27
 285 -16 285 -16 265.5 -34 c 128,-1,28
 246 -52 246 -52 236 -72 c 128,-1,29
 226 -92 226 -92 226 -105 c 0,30,31
 226 -122 226 -122 240 -132 c 128,-1,32
 254 -142 254 -142 271 -142 c 0,33,34
 281 -142 281 -142 289 -139 c 128,-1,35
 297 -136 297 -136 307 -132 c 1,36,-1
 335 -199 l 1,37,38
 312 -215 312 -215 280.5 -223.5 c 128,-1,39
 249 -232 249 -232 220 -232 c 0,0,1
271 105 m 0,40,41
 302 105 302 105 329 121 c 128,-1,42
 356 137 356 137 377.5 166 c 128,-1,43
 399 195 399 195 414.5 234 c 128,-1,44
 430 273 430 273 438 321 c 128,-1,45
 446 369 446 369 446 421 c 0,46,47
 446 467 446 467 436 497 c 128,-1,48
 426 527 426 527 405.5 542.5 c 128,-1,49
 385 558 385 558 352 558 c 0,50,51
 320 558 320 558 293 542.5 c 128,-1,52
 266 527 266 527 244 498 c 128,-1,53
 222 469 222 469 206.5 430 c 128,-1,54
 191 391 191 391 183 344.5 c 128,-1,55
 175 298 175 298 175 247 c 0,56,57
 175 199 175 199 185.5 167.5 c 128,-1,58
 196 136 196 136 217 120.5 c 128,-1,59
 238 105 238 105 271 105 c 0,40,41
EndSplineSet
Ligature2: "'ccmp' Glyph Composition/Decomposition lookup 7 subtable" O uni0328
EndChar

StartChar: Ohorn
Encoding: 416 416 178
Width: 614
GlyphClass: 2
Flags: W
AnchorPoint: "Anchor-3" 237 -20 basechar 0
AnchorPoint: "Anchor-0" 380 688 basechar 0
LayerCount: 2
Fore
SplineSet
522 598 m 1,0,-1
 474 650 l 1,1,2
 525 654 525 654 550 681 c 128,-1,3
 575 708 575 708 575 752 c 0,4,5
 575 764 575 764 572 780.5 c 128,-1,6
 569 797 569 797 564 810 c 1,7,-1
 670 843 l 1,8,9
 678 824 678 824 682 802.5 c 128,-1,10
 686 781 686 781 686 763 c 0,11,12
 686 715 686 715 667.5 681 c 128,-1,13
 649 647 649 647 612.5 626.5 c 128,-1,14
 576 606 576 606 522 598 c 1,0,-1
257 -12 m 0,15,16
 187 -12 187 -12 136.5 20.5 c 128,-1,17
 86 53 86 53 58.5 114 c 128,-1,18
 31 175 31 175 31 260 c 0,19,20
 31 329 31 329 46.5 391.5 c 128,-1,21
 62 454 62 454 92 506.5 c 128,-1,22
 122 559 122 559 163 598 c 128,-1,23
 204 637 204 637 255 658.5 c 128,-1,24
 306 680 306 680 366 680 c 0,25,26
 436 680 436 680 486 647 c 128,-1,27
 536 614 536 614 563 553 c 128,-1,28
 590 492 590 492 590 408 c 0,29,30
 590 339 590 339 574.5 276 c 128,-1,31
 559 213 559 213 530 161 c 128,-1,32
 501 109 501 109 460 70 c 128,-1,33
 419 31 419 31 367.5 9.5 c 128,-1,34
 316 -12 316 -12 257 -12 c 0,15,16
271 109 m 0,35,36
 302 109 302 109 329 124.5 c 128,-1,37
 356 140 356 140 377.5 169.5 c 128,-1,38
 399 199 399 199 414.5 237.5 c 128,-1,39
 430 276 430 276 438 323 c 128,-1,40
 446 370 446 370 446 421 c 0,41,42
 446 467 446 467 436 497 c 128,-1,43
 426 527 426 527 405.5 542.5 c 128,-1,44
 385 558 385 558 352 558 c 0,45,46
 320 558 320 558 293 542.5 c 128,-1,47
 266 527 266 527 244 498 c 128,-1,48
 222 469 222 469 206.5 430 c 128,-1,49
 191 391 191 391 183 344.5 c 128,-1,50
 175 298 175 298 175 247 c 0,51,52
 175 201 175 201 185.5 170 c 128,-1,53
 196 139 196 139 217 124 c 128,-1,54
 238 109 238 109 271 109 c 0,35,36
EndSplineSet
EndChar

StartChar: Oslash
Encoding: 216 216 185
Width: 614
GlyphClass: 2
Flags: W
AnchorPoint: "Anchor-2" 244 0 basechar 0
AnchorPoint: "Anchor-0" 379 688 basechar 0
LayerCount: 2
Fore
SplineSet
257 -12 m 0,0,1
 187 -12 187 -12 136.5 20.5 c 128,-1,2
 86 53 86 53 58.5 114 c 128,-1,3
 31 175 31 175 31 259 c 0,4,5
 31 329 31 329 46.5 392 c 128,-1,6
 62 455 62 455 91.5 507 c 128,-1,7
 121 559 121 559 162.5 598 c 128,-1,8
 204 637 204 637 255 658.5 c 128,-1,9
 306 680 306 680 366 680 c 0,10,11
 436 680 436 680 486 646.5 c 128,-1,12
 536 613 536 613 563 553 c 128,-1,13
 590 493 590 493 590 408 c 0,14,15
 590 339 590 339 574 276 c 128,-1,16
 558 213 558 213 529.5 160.5 c 128,-1,17
 501 108 501 108 460 69.5 c 128,-1,18
 419 31 419 31 367.5 9.5 c 128,-1,19
 316 -12 316 -12 257 -12 c 0,0,1
271 109 m 0,20,21
 302 109 302 109 329.5 125 c 128,-1,22
 357 141 357 141 379.5 169 c 128,-1,23
 402 197 402 197 418 234 c 128,-1,24
 434 271 434 271 443 313 c 128,-1,25
 452 355 452 355 452 398 c 0,26,27
 452 455 452 455 440.5 490.5 c 128,-1,28
 429 526 429 526 407 542 c 128,-1,29
 385 558 385 558 352 558 c 0,30,31
 320 558 320 558 292.5 542 c 128,-1,32
 265 526 265 526 242.5 498 c 128,-1,33
 220 470 220 470 203.5 433 c 128,-1,34
 187 396 187 396 178.5 354 c 128,-1,35
 170 312 170 312 170 269 c 0,36,37
 170 212 170 212 181.5 176.5 c 128,-1,38
 193 141 193 141 215.5 125 c 128,-1,39
 238 109 238 109 271 109 c 0,20,21
42 -42 m 1,40,-1
 -25 9 l 1,41,-1
 581 710 l 1,42,-1
 648 658 l 1,43,-1
 42 -42 l 1,40,-1
EndSplineSet
EndChar

StartChar: OE
Encoding: 338 338 187
Width: 614
GlyphClass: 2
Flags: W
AnchorPoint: "Anchor-2" 369 0 basechar 0
AnchorPoint: "Anchor-0" 356 688 basechar 0
LayerCount: 2
Fore
SplineSet
259 0 m 2,0,1
 180 0 180 0 125.5 28 c 128,-1,2
 71 56 71 56 42.5 112 c 128,-1,3
 14 168 14 168 14 252 c 0,4,5
 14 350 14 350 42.5 427.5 c 128,-1,6
 71 505 71 505 119.5 558.5 c 128,-1,7
 168 612 168 612 231.5 640 c 128,-1,8
 295 668 295 668 365 668 c 2,9,-1
 672 668 l 1,10,-1
 648 550 l 1,11,-1
 476 550 l 1,12,-1
 449 404 l 1,13,-1
 577 404 l 1,14,-1
 554 287 l 1,15,-1
 426 287 l 1,16,-1
 390 118 l 1,17,-1
 570 118 l 1,18,-1
 548 0 l 1,19,-1
 259 0 l 2,0,1
263 113 m 2,20,-1
 267 113 l 1,21,-1
 355 555 l 1,22,-1
 342 555 l 2,23,24
 306 555 306 555 273 534 c 128,-1,25
 240 513 240 513 213.5 474 c 128,-1,26
 187 435 187 435 173 381 c 128,-1,27
 159 327 159 327 159 261 c 0,28,29
 159 209 159 209 171 176 c 128,-1,30
 183 143 183 143 206 128 c 128,-1,31
 229 113 229 113 263 113 c 2,20,-1
EndSplineSet
EndChar

StartChar: uni1E9E
Encoding: 7838 7838 203
Width: 614
GlyphClass: 1
Flags: W
LayerCount: 2
Fore
SplineSet
350 -12 m 0,0,1
 297 -12 297 -12 257 9.5 c 128,-1,2
 217 31 217 31 198 54 c 1,3,-1
 262 142 l 1,4,5
 277 123 277 123 296 112.5 c 128,-1,6
 315 102 315 102 340 102 c 0,7,8
 366 102 366 102 384 112.5 c 128,-1,9
 402 123 402 123 413 141 c 128,-1,10
 424 159 424 159 424 183 c 0,11,12
 424 225 424 225 394.5 249.5 c 128,-1,13
 365 274 365 274 311 289 c 1,14,-1
 318 370 l 1,15,-1
 467 549 l 1,16,-1
 456 503 l 1,17,18
 450 531 450 531 426.5 549.5 c 128,-1,19
 403 568 403 568 368 568 c 0,20,21
 333 568 333 568 306 554 c 128,-1,22
 279 540 279 540 259.5 509 c 128,-1,23
 240 478 240 478 230 430 c 2,24,-1
 144 0 l 1,25,-1
 4 0 l 1,26,-1
 95 453 l 2,27,28
 117 561 117 561 186 620.5 c 128,-1,29
 255 680 255 680 374 680 c 0,30,31
 453 680 453 680 508 636 c 128,-1,32
 563 592 563 592 577 509 c 1,33,-1
 428 332 l 1,34,-1
 427 360 l 1,35,36
 458 350 458 350 489 327 c 128,-1,37
 520 304 520 304 541.5 268.5 c 128,-1,38
 563 233 563 233 563 184 c 0,39,40
 563 127 563 127 536.5 82.5 c 128,-1,41
 510 38 510 38 463 13 c 128,-1,42
 416 -12 416 -12 350 -12 c 0,0,1
EndSplineSet
EndChar

StartChar: Tbar
Encoding: 358 358 209
Width: 614
GlyphClass: 2
Flags: W
AnchorPoint: "Anchor-3" 242 -20 basechar 0
AnchorPoint: "Anchor-0" 380 688 basechar 0
LayerCount: 2
Fore
SplineSet
97 300 m 1,0,-1
 111 366 l 1,1,-1
 185 372 l 1,2,-1
 524 372 l 1,3,-1
 509 300 l 1,4,-1
 97 300 l 1,0,-1
173 0 m 1,5,-1
 283 549 l 1,6,-1
 80 549 l 1,7,-1
 102 668 l 1,8,-1
 648 668 l 1,9,-1
 625 549 l 1,10,-1
 422 549 l 1,11,-1
 313 0 l 1,12,-1
 173 0 l 1,5,-1
EndSplineSet
EndChar

StartChar: Uogonek
Encoding: 370 370 220
Width: 614
GlyphClass: 2
Flags: W
AnchorPoint: "Anchor-0" 380 688 basechar 0
LayerCount: 2
Fore
SplineSet
220 -232 m 0,0,1
 175 -232 175 -232 146 -211 c 128,-1,2
 117 -190 117 -190 117 -151 c 0,3,4
 117 -120 117 -120 132 -93 c 128,-1,5
 147 -66 147 -66 169 -44 c 128,-1,6
 191 -22 191 -22 212 -8 c 1,7,8
 139 3 139 3 96.5 55.5 c 128,-1,9
 54 108 54 108 54 198 c 0,10,11
 54 227 54 227 56.5 253.5 c 128,-1,12
 59 280 59 280 66 307 c 2,13,-1
 137 668 l 1,14,-1
 278 668 l 1,15,-1
 203 292 l 2,16,17
 199 270 199 270 194.5 249.5 c 128,-1,18
 190 229 190 229 190 209 c 0,19,20
 190 161 190 161 211.5 135 c 128,-1,21
 233 109 233 109 273 109 c 0,22,23
 305 109 305 109 328.5 123.5 c 128,-1,24
 352 138 352 138 370 174.5 c 128,-1,25
 388 211 388 211 400 275 c 2,26,-1
 478 668 l 1,27,-1
 615 668 l 1,28,-1
 536 267 l 2,29,30
 521 190 521 190 496.5 137.5 c 128,-1,31
 472 85 472 85 433 49.5 c 128,-1,32
 394 14 394 14 332 -9 c 0,33,34
 298 -21 298 -21 274.5 -37.5 c 128,-1,35
 251 -54 251 -54 238.5 -71 c 128,-1,36
 226 -88 226 -88 226 -105 c 256,37,38
 226 -122 226 -122 240 -132 c 128,-1,39
 254 -142 254 -142 271 -142 c 0,40,41
 281 -142 281 -142 289 -139 c 128,-1,42
 297 -136 297 -136 307 -132 c 1,43,-1
 335 -199 l 1,44,45
 312 -215 312 -215 280.5 -223.5 c 128,-1,46
 249 -232 249 -232 220 -232 c 0,0,1
EndSplineSet
Ligature2: "'ccmp' Glyph Composition/Decomposition lookup 7 subtable" U uni0328
EndChar

StartChar: Uhorn
Encoding: 431 431 227
Width: 614
GlyphClass: 2
Flags: W
AnchorPoint: "Anchor-3" 237 -20 basechar 0
AnchorPoint: "Anchor-0" 380 688 basechar 0
LayerCount: 2
Fore
SplineSet
598 614 m 1,0,-1
 551 667 l 1,1,2
 596 671 596 671 618.5 693.5 c 128,-1,3
 641 716 641 716 641 755 c 0,4,5
 641 766 641 766 638 783 c 128,-1,6
 635 800 635 800 630 813 c 1,7,-1
 734 846 l 1,8,9
 743 827 743 827 747.5 805.5 c 128,-1,10
 752 784 752 784 752 766 c 0,11,12
 752 722 752 722 734.5 692 c 128,-1,13
 717 662 717 662 682.5 642 c 128,-1,14
 648 622 648 622 598 614 c 1,0,-1
255 -12 m 0,15,16
 155 -12 155 -12 104.5 46 c 128,-1,17
 54 104 54 104 54 198 c 0,18,19
 54 227 54 227 56.5 253.5 c 128,-1,20
 59 280 59 280 66 307 c 2,21,-1
 137 668 l 1,22,-1
 278 668 l 1,23,-1
 203 292 l 2,24,25
 199 270 199 270 194.5 249.5 c 128,-1,26
 190 229 190 229 190 209 c 0,27,28
 190 161 190 161 211.5 135 c 128,-1,29
 233 109 233 109 273 109 c 0,30,31
 305 109 305 109 328.5 123.5 c 128,-1,32
 352 138 352 138 370 174.5 c 128,-1,33
 388 211 388 211 400 275 c 2,34,-1
 478 668 l 1,35,-1
 615 668 l 1,36,-1
 536 267 l 2,37,38
 516 163 516 163 477.5 102 c 128,-1,39
 439 41 439 41 384.5 14.5 c 128,-1,40
 330 -12 330 -12 255 -12 c 0,15,16
EndSplineSet
EndChar

StartChar: Eth
Encoding: 208 208 252
Width: 614
GlyphClass: 2
Flags: W
AnchorPoint: "Anchor-3" 233 -20 basechar 0
AnchorPoint: "Anchor-0" 377 688 basechar 0
LayerCount: 2
Fore
SplineSet
335 311 m 1,0,-1
 5 311 l 1,1,-1
 19 378 l 1,2,-1
 95 383 l 1,3,-1
 351 383 l 1,4,-1
 335 311 l 1,0,-1
16 0 m 1,5,-1
 150 668 l 1,6,-1
 300 668 l 2,7,8
 433 668 433 668 508 603 c 128,-1,9
 583 538 583 538 583 406 c 0,10,11
 583 307 583 307 556.5 231.5 c 128,-1,12
 530 156 530 156 481.5 104.5 c 128,-1,13
 433 53 433 53 368 26.5 c 128,-1,14
 303 0 303 0 225 0 c 2,15,-1
 16 0 l 1,5,-1
179 113 m 1,16,-1
 222 113 l 2,17,18
 282 113 282 113 331.5 143 c 128,-1,19
 381 173 381 173 410 235.5 c 128,-1,20
 439 298 439 298 439 396 c 0,21,22
 439 480 439 480 399.5 517.5 c 128,-1,23
 360 555 360 555 296 555 c 2,24,-1
 267 555 l 1,25,-1
 179 113 l 1,16,-1
EndSplineSet
EndChar

StartChar: Thorn
Encoding: 222 222 253
Width: 614
GlyphClass: 1
Flags: W
LayerCount: 2
Fore
SplineSet
18 0 m 1,0,-1
 152 668 l 1,1,-1
 293 668 l 1,2,-1
 271 564 l 1,3,-1
 364 564 l 2,4,5
 424 564 424 564 472.5 546 c 128,-1,6
 521 528 521 528 549.5 489.5 c 128,-1,7
 578 451 578 451 578 387 c 0,8,9
 578 317 578 317 553 267.5 c 128,-1,10
 528 218 528 218 485 187.5 c 128,-1,11
 442 157 442 157 386.5 143 c 128,-1,12
 331 129 331 129 267 129 c 2,13,-1
 183 129 l 1,14,-1
 159 0 l 1,15,-1
 18 0 l 1,0,-1
207 240 m 1,16,-1
 282 240 l 2,17,18
 358 240 358 240 398 272 c 128,-1,19
 438 304 438 304 438 367 c 0,20,21
 438 412 438 412 411 432.5 c 128,-1,22
 384 453 384 453 334 453 c 2,23,-1
 248 453 l 1,24,-1
 207 240 l 1,16,-1
EndSplineSet
EndChar

StartChar: uni018F
Encoding: 399 399 254
Width: 614
GlyphClass: 2
Flags: W
AnchorPoint: "Anchor-6" 263 0 basechar 0
AnchorPoint: "Anchor-3" 255 -20 basechar 0
AnchorPoint: "Anchor-2" 263 0 basechar 0
AnchorPoint: "Anchor-0" 372 688 basechar 0
LayerCount: 2
Fore
SplineSet
242 -12 m 0,0,1
 151 -12 151 -12 98 51.5 c 128,-1,2
 45 115 45 115 45 228 c 0,3,4
 45 276 45 276 52.5 313.5 c 128,-1,5
 60 351 60 351 68 376 c 1,6,-1
 476 376 l 1,7,-1
 456 273 l 1,8,-1
 184 273 l 1,9,10
 176 217 176 217 183.5 178.5 c 128,-1,11
 191 140 191 140 211 121 c 128,-1,12
 231 102 231 102 262 102 c 0,13,14
 299 102 299 102 332.5 124.5 c 128,-1,15
 366 147 366 147 390.5 188.5 c 128,-1,16
 415 230 415 230 429 288 c 128,-1,17
 443 346 443 346 443 417 c 256,18,19
 443 488 443 488 417 525.5 c 128,-1,20
 391 563 391 563 340 563 c 0,21,22
 297 563 297 563 261 547 c 128,-1,23
 225 531 225 531 197 512 c 1,24,-1
 140 607 l 1,25,26
 180 637 180 637 239.5 659 c 128,-1,27
 299 681 299 681 370 681 c 0,28,29
 474 681 474 681 528 614 c 128,-1,30
 582 547 582 547 582 428 c 0,31,32
 582 331 582 331 556 250.5 c 128,-1,33
 530 170 530 170 484.5 111 c 128,-1,34
 439 52 439 52 377 20 c 128,-1,35
 315 -12 315 -12 242 -12 c 0,0,1
EndSplineSet
EndChar

StartChar: Eng
Encoding: 330 330 255
Width: 614
GlyphClass: 2
Flags: W
AnchorPoint: "Anchor-3" 261 -20 basechar 0
AnchorPoint: "Anchor-0" 389 688 basechar 0
LayerCount: 2
Fore
SplineSet
328 -12 m 0,0,1
 301 -12 301 -12 271.5 -7.5 c 128,-1,2
 242 -3 242 -3 227 7 c 1,3,-1
 279 119 l 1,4,5
 285 115 285 115 293 112 c 128,-1,6
 301 109 301 109 311 109 c 0,7,8
 336 109 336 109 358.5 136.5 c 128,-1,9
 381 164 381 164 398.5 210.5 c 128,-1,10
 416 257 416 257 426 314.5 c 128,-1,11
 436 372 436 372 436 432 c 0,12,13
 436 478 436 478 427.5 506 c 128,-1,14
 419 534 419 534 403 546 c 128,-1,15
 387 558 387 558 365 558 c 0,16,17
 339 558 339 558 305.5 539.5 c 128,-1,18
 272 521 272 521 238 483 c 1,19,-1
 142 0 l 1,20,-1
 2 0 l 1,21,-1
 136 668 l 1,22,-1
 269 668 l 1,23,-1
 257 604 l 1,24,25
 280 628 280 628 307.5 645 c 128,-1,26
 335 662 335 662 363.5 671 c 128,-1,27
 392 680 392 680 420 680 c 0,28,29
 492 680 492 680 536 625 c 128,-1,30
 580 570 580 570 580 441 c 0,31,32
 580 351 580 351 562.5 268.5 c 128,-1,33
 545 186 545 186 511.5 123 c 128,-1,34
 478 60 478 60 432 24 c 128,-1,35
 386 -12 386 -12 328 -12 c 0,0,1
EndSplineSet
Substitution2: "'ss05' Style Set 5 lookup 0 subtable" uni014A.a
EndChar

StartChar: IJ
Encoding: 306 306 256
Width: 614
GlyphClass: 1
Flags: W
LayerCount: 2
Fore
SplineSet
12 0 m 1,0,-1
 145 668 l 1,1,-1
 286 668 l 1,2,-1
 153 0 l 1,3,-1
 12 0 l 1,0,-1
288 -180 m 0,4,5
 261 -180 261 -180 237.5 -175 c 128,-1,6
 214 -170 214 -170 189 -158 c 1,7,-1
 232 -56 l 1,8,9
 242 -62 242 -62 253 -66 c 128,-1,10
 264 -70 264 -70 276 -70 c 0,11,12
 302 -70 302 -70 315.5 -51 c 128,-1,13
 329 -32 329 -32 338 10 c 2,14,-1
 469 668 l 1,15,-1
 609 668 l 1,16,-1
 477 4 l 2,17,18
 466 -47 466 -47 444 -89 c 128,-1,19
 422 -131 422 -131 383.5 -155.5 c 128,-1,20
 345 -180 345 -180 288 -180 c 0,4,5
EndSplineSet
EndChar

StartChar: uni004C00B7004C
Encoding: 1114114 -1 257
Width: 614
GlyphClass: 1
Flags: W
LayerCount: 2
Fore
SplineSet
-22 0 m 1,0,-1
 112 668 l 1,1,-1
 246 668 l 1,2,-1
 135 118 l 1,3,-1
 252 118 l 1,4,-1
 229 0 l 1,5,-1
 -22 0 l 1,0,-1
266 306 m 0,6,7
 235 306 235 306 218.5 326.5 c 128,-1,8
 202 347 202 347 207 377 c 0,9,10
 211 410 211 410 236 433 c 128,-1,11
 261 456 261 456 294 456 c 256,12,13
 327 456 327 456 342.5 435.5 c 128,-1,14
 358 415 358 415 353 385 c 0,15,16
 349 352 349 352 324.5 329 c 128,-1,17
 300 306 300 306 266 306 c 0,6,7
297 0 m 1,18,-1
 430 668 l 1,19,-1
 563 668 l 1,20,-1
 454 118 l 1,21,-1
 570 118 l 1,22,-1
 548 0 l 1,23,-1
 297 0 l 1,18,-1
EndSplineSet
Ligature2: "'ccmp' Glyph Composition/Decomposition lookup 7 subtable" L periodcentered L
EndChar

StartChar: aringacute
Encoding: 507 507 267
Width: 614
GlyphClass: 1
Flags: W
LayerCount: 2
Fore
SplineSet
356 734 m 1,0,-1
 315 766 l 1,1,-1
 472 902 l 1,2,-1
 534 842 l 1,3,-1
 356 734 l 1,0,-1
202 -12 m 0,4,5
 126 -12 126 -12 81 38.5 c 128,-1,6
 36 89 36 89 36 184 c 0,7,8
 36 254 36 254 58 315 c 128,-1,9
 80 376 80 376 118 422 c 128,-1,10
 156 468 156 468 205 494 c 128,-1,11
 254 520 254 520 308 520 c 0,12,13
 358 520 358 520 394.5 502 c 128,-1,14
 431 484 431 484 449 454 c 1,15,-1
 453 454 l 1,16,-1
 474 508 l 1,17,-1
 587 508 l 1,18,-1
 484 0 l 1,19,-1
 371 0 l 1,20,-1
 373 70 l 1,21,-1
 369 70 l 1,22,23
 333 32 333 32 289 10 c 128,-1,24
 245 -12 245 -12 202 -12 c 0,4,5
254 102 m 0,25,26
 283 102 283 102 317 121 c 128,-1,27
 351 140 351 140 381 180 c 1,28,-1
 418 357 l 1,29,30
 404 383 404 383 379.5 394.5 c 128,-1,31
 355 406 355 406 333 406 c 0,32,33
 303 406 303 406 275.5 390.5 c 128,-1,34
 248 375 248 375 226.5 347 c 128,-1,35
 205 319 205 319 192.5 282.5 c 128,-1,36
 180 246 180 246 180 202 c 0,37,38
 180 151 180 151 200.5 126.5 c 128,-1,39
 221 102 221 102 254 102 c 0,25,26
374 580 m 0,40,41
 323 580 323 580 289.5 604 c 128,-1,42
 256 628 256 628 256 671 c 0,43,44
 256 721 256 721 298 754.5 c 128,-1,45
 340 788 340 788 403 788 c 0,46,47
 455 788 455 788 488 764.5 c 128,-1,48
 521 741 521 741 521 697 c 0,49,50
 521 648 521 648 480 614 c 128,-1,51
 439 580 439 580 374 580 c 0,40,41
382 634 m 0,52,53
 402 634 402 634 417 652 c 128,-1,54
 432 670 432 670 432 693 c 0,55,56
 432 709 432 709 423.5 721.5 c 128,-1,57
 415 734 415 734 395 734 c 0,58,59
 375 734 375 734 360 716 c 128,-1,60
 345 698 345 698 345 675 c 0,61,62
 345 658 345 658 354.5 646 c 128,-1,63
 364 634 364 634 382 634 c 0,52,53
EndSplineSet
Substitution2: "'ss02' Style Set 2 lookup 25 subtable" aringacute.a
EndChar

StartChar: aogonek
Encoding: 261 261 269
Width: 614
GlyphClass: 2
Flags: W
AnchorPoint: "Anchor-0" 354 528 basechar 0
LayerCount: 2
Fore
SplineSet
365 -232 m 0,0,1
 321 -232 321 -232 292 -210 c 128,-1,2
 263 -188 263 -188 263 -145 c 0,3,4
 263 -110 263 -110 281 -81 c 128,-1,5
 299 -52 299 -52 324 -31 c 128,-1,6
 349 -10 349 -10 371 2 c 1,7,-1
 373 70 l 1,8,-1
 369 70 l 1,9,10
 333 32 333 32 289 10 c 128,-1,11
 245 -12 245 -12 202 -12 c 0,12,13
 126 -12 126 -12 81 38.5 c 128,-1,14
 36 89 36 89 36 184 c 0,15,16
 36 254 36 254 58 315 c 128,-1,17
 80 376 80 376 118 422 c 128,-1,18
 156 468 156 468 205 494 c 128,-1,19
 254 520 254 520 308 520 c 0,20,21
 358 520 358 520 394.5 502 c 128,-1,22
 431 484 431 484 449 454 c 1,23,-1
 453 454 l 1,24,-1
 474 508 l 1,25,-1
 587 508 l 1,26,-1
 484 -1 l 1,27,28
 417 -23 417 -23 391 -50.5 c 128,-1,29
 365 -78 365 -78 365 -105 c 0,30,31
 365 -125 365 -125 379.5 -136.5 c 128,-1,32
 394 -148 394 -148 415 -148 c 0,33,34
 427 -148 427 -148 436.5 -145.5 c 128,-1,35
 446 -143 446 -143 459 -137 c 1,36,-1
 482 -194 l 1,37,38
 459 -211 459 -211 429.5 -221.5 c 128,-1,39
 400 -232 400 -232 365 -232 c 0,0,1
254 102 m 0,40,41
 283 102 283 102 317 121 c 128,-1,42
 351 140 351 140 381 180 c 1,43,-1
 418 357 l 1,44,45
 404 383 404 383 379.5 394.5 c 128,-1,46
 355 406 355 406 333 406 c 0,47,48
 303 406 303 406 275.5 390.5 c 128,-1,49
 248 375 248 375 226.5 347 c 128,-1,50
 205 319 205 319 192.5 282.5 c 128,-1,51
 180 246 180 246 180 202 c 0,52,53
 180 151 180 151 200.5 126.5 c 128,-1,54
 221 102 221 102 254 102 c 0,40,41
EndSplineSet
Substitution2: "'ss02' Style Set 2 lookup 25 subtable" aogonek.a
Ligature2: "'ccmp' Glyph Composition/Decomposition lookup 7 subtable" a uni0328
EndChar

StartChar: ae
Encoding: 230 230 282
Width: 614
GlyphClass: 2
Flags: W
AnchorPoint: "Anchor-3" 258 -20 basechar 0
AnchorPoint: "Anchor-2" 393 0 basechar 0
AnchorPoint: "Anchor-0" 348 528 basechar 0
LayerCount: 2
Fore
SplineSet
103 -12 m 0,0,1
 42 -12 42 -12 11.5 22 c 128,-1,2
 -19 56 -19 56 -19 108 c 0,3,4
 -19 202 -19 202 50.5 253 c 128,-1,5
 120 304 120 304 269 326 c 1,6,-1
 260 242 l 1,7,8
 206 234 206 234 171.5 219 c 128,-1,9
 137 204 137 204 122.5 183.5 c 128,-1,10
 108 163 108 163 108 137 c 0,11,12
 108 115 108 115 118.5 104.5 c 128,-1,13
 129 94 129 94 147 94 c 0,14,15
 171 94 171 94 197.5 110.5 c 128,-1,16
 224 127 224 127 244 148 c 1,17,-1
 280 83 l 1,18,19
 239 37 239 37 195.5 12.5 c 128,-1,20
 152 -12 152 -12 103 -12 c 0,0,1
321 215 m 1,21,-1
 322 305 l 1,22,-1
 516 305 l 1,23,-1
 495 288 l 1,24,25
 499 304 499 304 501 319.5 c 128,-1,26
 503 335 503 335 503 350 c 0,27,28
 503 379 503 379 492.5 396 c 128,-1,29
 482 413 482 413 459 413 c 256,30,31
 435 413 435 413 414 395 c 128,-1,32
 393 377 393 377 376.5 345 c 128,-1,33
 360 313 360 313 351 272 c 128,-1,34
 342 231 342 231 342 184 c 0,35,36
 342 141 342 141 361.5 118 c 128,-1,37
 381 95 381 95 417 95 c 0,38,39
 443 95 443 95 465 102.5 c 128,-1,40
 487 110 487 110 513 127 c 1,41,-1
 552 40 l 1,42,43
 522 15 522 15 480.5 1.5 c 128,-1,44
 439 -12 439 -12 404 -12 c 0,45,46
 361 -12 361 -12 329 1.5 c 128,-1,47
 297 15 297 15 275 39 c 128,-1,48
 253 63 253 63 242 95 c 128,-1,49
 231 127 231 127 231 163 c 0,50,51
 231 198 231 198 234.5 224.5 c 128,-1,52
 238 251 238 251 243 273.5 c 128,-1,53
 248 296 248 296 254 318 c 0,54,55
 262 358 262 358 250 384.5 c 128,-1,56
 238 411 238 411 203 411 c 0,57,58
 174 411 174 411 148 401 c 128,-1,59
 122 391 122 391 95 374 c 1,60,-1
 48 455 l 1,61,62
 86 484 86 484 133.5 502 c 128,-1,63
 181 520 181 520 238 520 c 0,64,65
 284 520 284 520 313.5 493 c 128,-1,66
 343 466 343 466 349 424 c 1,67,-1
 330 431 l 1,68,69
 363 477 363 477 404 498.5 c 128,-1,70
 445 520 445 520 487 520 c 0,71,72
 531 520 531 520 558 497 c 128,-1,73
 585 474 585 474 597.5 436.5 c 128,-1,74
 610 399 610 399 610 355 c 0,75,76
 610 304 610 304 601 268 c 128,-1,77
 592 232 592 232 584 215 c 1,78,-1
 321 215 l 1,21,-1
EndSplineSet
EndChar

StartChar: uni0180
Encoding: 384 384 285
Width: 614
GlyphClass: 1
Flags: W
LayerCount: 2
Fore
SplineSet
294 -12 m 0,0,1
 251 -12 251 -12 213 6.5 c 128,-1,2
 175 25 175 25 156 54 c 1,3,-1
 154 54 l 1,4,-1
 132 0 l 1,5,-1
 16 0 l 1,6,-1
 160 717 l 1,7,-1
 300 717 l 1,8,-1
 263 535 l 1,9,-1
 233 426 l 1,10,-1
 236 426 l 1,11,12
 271 460 271 460 313 480 c 128,-1,13
 355 500 355 500 396 500 c 0,14,15
 477 500 477 500 521 451 c 128,-1,16
 565 402 565 402 565 310 c 0,17,18
 565 242 565 242 543 183.5 c 128,-1,19
 521 125 521 125 483 81 c 128,-1,20
 445 37 445 37 396.5 12.5 c 128,-1,21
 348 -12 348 -12 294 -12 c 0,0,1
274 102 m 0,22,23
 303 102 303 102 329 116.5 c 128,-1,24
 355 131 355 131 376 156.5 c 128,-1,25
 397 182 397 182 408.5 217 c 128,-1,26
 420 252 420 252 420 292 c 0,27,28
 420 340 420 340 398.5 362.5 c 128,-1,29
 377 385 377 385 342 385 c 0,30,31
 313 385 313 385 280.5 365.5 c 128,-1,32
 248 346 248 346 217 302 c 1,33,-1
 186 151 l 1,34,35
 202 125 202 125 225 113.5 c 128,-1,36
 248 102 248 102 274 102 c 0,22,23
61 570 m 1,37,-1
 75 636 l 1,38,-1
 154 642 l 1,39,-1
 475 642 l 1,40,-1
 462 570 l 1,41,-1
 61 570 l 1,37,-1
EndSplineSet
EndChar

StartChar: dcaron
Encoding: 271 271 292
Width: 614
GlyphClass: 1
Flags: W
LayerCount: 2
Fore
SplineSet
143 -12 m 0,0,1
 84 -12 84 -12 48 38.5 c 128,-1,2
 12 89 12 89 12 184 c 0,3,4
 12 254 12 254 32 315 c 128,-1,5
 52 376 52 376 87.5 422 c 128,-1,6
 123 468 123 468 170 494 c 128,-1,7
 217 520 217 520 269 520 c 0,8,9
 301 520 301 520 327 506.5 c 128,-1,10
 353 493 353 493 371 467 c 1,11,-1
 373 467 l 1,12,-1
 385 563 l 1,13,-1
 415 718 l 1,14,-1
 555 718 l 1,15,-1
 411 0 l 1,16,-1
 296 0 l 1,17,-1
 295 53 l 1,18,-1
 293 53 l 1,19,20
 259 18 259 18 220 3 c 128,-1,21
 181 -12 181 -12 143 -12 c 0,0,1
212 102 m 0,22,23
 232 102 232 102 255.5 115 c 128,-1,24
 279 128 279 128 303 164 c 1,25,-1
 345 366 l 1,26,27
 334 388 334 388 319 397 c 128,-1,28
 304 406 304 406 286 406 c 0,29,30
 261 406 261 406 237.5 390.5 c 128,-1,31
 214 375 214 375 196 347 c 128,-1,32
 178 319 178 319 167.5 282.5 c 128,-1,33
 157 246 157 246 157 202 c 0,34,35
 157 151 157 151 172.5 126.5 c 128,-1,36
 188 102 188 102 212 102 c 0,22,23
577 561 m 1,37,-1
 625 842 l 1,38,-1
 754 842 l 1,39,-1
 731 741 l 1,40,-1
 666 561 l 1,41,-1
 577 561 l 1,37,-1
EndSplineSet
Ligature2: "'ccmp' Glyph Composition/Decomposition lookup 7 subtable" d uni030C
EndChar

StartChar: dcroat
Encoding: 273 273 296
Width: 614
GlyphClass: 2
Flags: W
AnchorPoint: "Anchor-3" 256 -20 basechar 0
AnchorPoint: "Anchor-0" 558 750 basechar 0
LayerCount: 2
Fore
SplineSet
191 -12 m 0,0,1
 115 -12 115 -12 70.5 38.5 c 128,-1,2
 26 89 26 89 26 184 c 0,3,4
 26 250 26 250 46.5 307 c 128,-1,5
 67 364 67 364 103.5 407.5 c 128,-1,6
 140 451 140 451 189 475.5 c 128,-1,7
 238 500 238 500 295 500 c 0,8,9
 345 500 345 500 377.5 483.5 c 128,-1,10
 410 467 410 467 429 438 c 1,11,-1
 431 438 l 1,12,-1
 443 535 l 1,13,-1
 479 717 l 1,14,-1
 618 717 l 1,15,-1
 475 0 l 1,16,-1
 360 0 l 1,17,-1
 362 70 l 1,18,-1
 358 70 l 1,19,20
 322 32 322 32 278 10 c 128,-1,21
 234 -12 234 -12 191 -12 c 0,0,1
244 102 m 0,22,23
 273 102 273 102 307 121 c 128,-1,24
 341 140 341 140 371 180 c 1,25,-1
 403 337 l 1,26,27
 389 363 389 363 365 374 c 128,-1,28
 341 385 341 385 319 385 c 0,29,30
 286 385 286 385 258.5 371.5 c 128,-1,31
 231 358 231 358 212 333 c 128,-1,32
 193 308 193 308 181.5 274.5 c 128,-1,33
 170 241 170 241 170 203 c 0,34,35
 170 152 170 152 190.5 127 c 128,-1,36
 211 102 211 102 244 102 c 0,22,23
290 570 m 1,37,-1
 303 642 l 1,38,-1
 673 642 l 1,39,-1
 659 577 l 1,40,-1
 582 570 l 1,41,-1
 290 570 l 1,37,-1
EndSplineSet
EndChar

StartChar: eogonek
Encoding: 281 281 304
Width: 614
GlyphClass: 2
Flags: W
AnchorPoint: "Anchor-0" 350 528 basechar 0
LayerCount: 2
Fore
SplineSet
337 -232 m 0,0,1
 293 -232 293 -232 264.5 -210 c 128,-1,2
 236 -188 236 -188 236 -145 c 0,3,4
 236 -114 236 -114 249 -89.5 c 128,-1,5
 262 -65 262 -65 283 -44 c 128,-1,6
 304 -23 304 -23 326 -6 c 1,7,8
 315 -8 315 -8 300.5 -10 c 128,-1,9
 286 -12 286 -12 273 -12 c 0,10,11
 207 -12 207 -12 156.5 12 c 128,-1,12
 106 36 106 36 76.5 86 c 128,-1,13
 47 136 47 136 47 213 c 0,14,15
 47 283 47 283 71 338.5 c 128,-1,16
 95 394 95 394 136 435 c 128,-1,17
 177 476 177 476 230.5 498 c 128,-1,18
 284 520 284 520 342 520 c 0,19,20
 440 520 440 520 494.5 465 c 128,-1,21
 549 410 549 410 549 321 c 0,22,23
 549 289 549 289 543 258 c 128,-1,24
 537 227 537 227 531 215 c 1,25,-1
 153 215 l 1,26,-1
 168 305 l 1,27,-1
 455 305 l 1,28,-1
 414 285 l 1,29,30
 417 293 417 293 418.5 303.5 c 128,-1,31
 420 314 420 314 420 324 c 0,32,33
 420 368 420 368 398 390.5 c 128,-1,34
 376 413 376 413 338 413 c 0,35,36
 314 413 314 413 287.5 400.5 c 128,-1,37
 261 388 261 388 238.5 364 c 128,-1,38
 216 340 216 340 201.5 303.5 c 128,-1,39
 187 267 187 267 187 219 c 0,40,41
 187 173 187 173 203 146 c 128,-1,42
 219 119 219 119 246 107 c 128,-1,43
 273 95 273 95 306 95 c 0,44,45
 350 95 350 95 386.5 110.5 c 128,-1,46
 423 126 423 126 458 148 c 1,47,-1
 505 55 l 1,48,49
 424 7 424 7 380.5 -31.5 c 128,-1,50
 337 -70 337 -70 337 -105 c 0,51,52
 337 -127 337 -127 352 -137.5 c 128,-1,53
 367 -148 367 -148 387 -148 c 0,54,55
 398 -148 398 -148 408 -145.5 c 128,-1,56
 418 -143 418 -143 430 -136 c 1,57,-1
 455 -194 l 1,58,59
 432 -211 432 -211 402 -221.5 c 128,-1,60
 372 -232 372 -232 337 -232 c 0,0,1
EndSplineSet
Substitution2: "'sups' Superscript lookup 19 subtable" eogonek.sups
Ligature2: "'ccmp' Glyph Composition/Decomposition lookup 7 subtable" e uni0328
EndChar

StartChar: hbar
Encoding: 295 295 329
Width: 614
GlyphClass: 1
Flags: W
LayerCount: 2
Fore
SplineSet
18 0 m 1,0,-1
 162 717 l 1,1,-1
 302 717 l 1,2,-1
 255 484 l 1,3,-1
 231 402 l 1,4,-1
 236 402 l 1,5,6
 262 429 262 429 292 450.5 c 128,-1,7
 322 472 322 472 355.5 485 c 128,-1,8
 389 498 389 498 424 498 c 0,9,10
 487 498 487 498 521 464.5 c 128,-1,11
 555 431 555 431 555 368 c 0,12,13
 555 350 555 350 553 330 c 128,-1,14
 551 310 551 310 547 292 c 2,15,-1
 487 0 l 1,16,-1
 348 0 l 1,17,-1
 403 274 l 2,18,19
 406 290 406 290 408.5 302.5 c 128,-1,20
 411 315 411 315 411 327 c 0,21,22
 411 354 411 354 397.5 366.5 c 128,-1,23
 384 379 384 379 358 379 c 0,24,25
 325 379 325 379 287.5 355.5 c 128,-1,26
 250 332 250 332 215 288 c 1,27,-1
 158 0 l 1,28,-1
 18 0 l 1,0,-1
61 570 m 1,29,-1
 74 636 l 1,30,-1
 155 642 l 1,31,-1
 476 642 l 1,32,-1
 463 570 l 1,33,-1
 61 570 l 1,29,-1
EndSplineSet
EndChar

StartChar: dotlessi
Encoding: 305 305 341
Width: 614
GlyphClass: 2
Flags: W
AnchorPoint: "Anchor-6" 352 0 basechar 0
AnchorPoint: "Anchor-3" 319 -20 basechar 0
AnchorPoint: "Anchor-2" 348 0 basechar 0
AnchorPoint: "Anchor-0" 328 528 basechar 0
LayerCount: 2
Fore
SplineSet
350 -12 m 0,0,1
 277 -12 277 -12 232.5 27 c 128,-1,2
 188 66 188 66 188 133 c 0,3,4
 188 147 188 147 191.5 162.5 c 128,-1,5
 195 178 195 178 199 195 c 2,6,-1
 249 398 l 1,7,-1
 81 398 l 1,8,-1
 104 508 l 1,9,-1
 412 508 l 1,10,-1
 336 187 l 2,11,12
 335 181 335 181 333.5 174.5 c 128,-1,13
 332 168 332 168 332 161 c 0,14,15
 332 129 332 129 349.5 115.5 c 128,-1,16
 367 102 367 102 393 102 c 0,17,18
 412 102 412 102 431 107.5 c 128,-1,19
 450 113 450 113 473 123 c 1,20,-1
 502 17 l 1,21,22
 469 4 469 4 433 -4 c 128,-1,23
 397 -12 397 -12 350 -12 c 0,0,1
EndSplineSet
EndChar

StartChar: kgreenlandic
Encoding: 312 312 346
Width: 614
GlyphClass: 1
Flags: W
LayerCount: 2
Fore
SplineSet
22 0 m 1,0,-1
 122 508 l 1,1,-1
 261 508 l 1,2,-1
 220 298 l 1,3,-1
 224 298 l 1,4,-1
 461 508 l 1,5,-1
 624 508 l 1,6,-1
 350 259 l 1,7,-1
 185 121 l 1,8,-1
 162 0 l 1,9,-1
 22 0 l 1,0,-1
290 234 m 1,10,-1
 379 330 l 1,11,-1
 537 0 l 1,12,-1
 396 0 l 1,13,-1
 290 234 l 1,10,-1
EndSplineSet
EndChar

StartChar: lslash
Encoding: 322 322 353
Width: 614
GlyphClass: 2
Flags: W
AnchorPoint: "Anchor-3" 322 -20 basechar 0
AnchorPoint: "Anchor-0" 366 750 basechar 0
LayerCount: 2
Fore
SplineSet
110 243 m 1,0,-1
 77 326 l 1,1,-1
 244 409 l 1,2,-1
 367 461 l 1,3,-1
 528 543 l 1,4,-1
 562 460 l 1,5,-1
 343 350 l 1,6,-1
 220 298 l 1,7,-1
 110 243 l 1,0,-1
334 -12 m 0,8,9
 266 -12 266 -12 222 30 c 128,-1,10
 178 72 178 72 178 147 c 0,11,12
 178 161 178 161 180 177.5 c 128,-1,13
 182 194 182 194 186 211 c 2,14,-1
 275 608 l 1,15,-1
 130 608 l 1,16,-1
 154 718 l 1,17,-1
 436 718 l 1,18,-1
 322 195 l 2,19,20
 321 187 321 187 319 178 c 128,-1,21
 317 169 317 169 317 157 c 0,22,23
 317 128 317 128 334 115 c 128,-1,24
 351 102 351 102 377 102 c 0,25,26
 400 102 400 102 418 108 c 128,-1,27
 436 114 436 114 461 124 c 1,28,-1
 490 20 l 1,29,30
 451 3 451 3 414 -4.5 c 128,-1,31
 377 -12 377 -12 334 -12 c 0,8,9
EndSplineSet
EndChar

StartChar: napostrophe
Encoding: 329 329 366
Width: 614
GlyphClass: 1
Flags: W
LayerCount: 2
Fore
SplineSet
169 0 m 1,0,-1
 268 508 l 1,1,-1
 383 508 l 1,2,-1
 380 434 l 1,3,-1
 384 434 l 1,4,5
 409 457 409 457 436.5 477 c 128,-1,6
 464 497 464 497 494.5 508.5 c 128,-1,7
 525 520 525 520 560 520 c 0,8,9
 620 520 620 520 647.5 487 c 128,-1,10
 675 454 675 454 675 390 c 0,11,12
 675 372 675 372 672.5 352.5 c 128,-1,13
 670 333 670 333 666 313 c 2,14,-1
 603 0 l 1,15,-1
 463 0 l 1,16,-1
 522 297 l 2,17,18
 526 312 526 312 528.5 324.5 c 128,-1,19
 531 337 531 337 531 348 c 0,20,21
 531 375 531 375 519 387.5 c 128,-1,22
 507 400 507 400 484 400 c 0,23,24
 458 400 458 400 431 382 c 128,-1,25
 404 364 404 364 373 329 c 1,26,-1
 309 0 l 1,27,-1
 169 0 l 1,0,-1
-22 325 m 1,28,-1
 -38 397 l 1,29,30
 27 412 27 412 66 447.5 c 128,-1,31
 105 483 105 483 117 523 c 1,32,-1
 135 638 l 1,33,-1
 170 540 l 1,34,35
 158 532 158 532 134.5 523 c 128,-1,36
 111 514 111 514 90 514 c 0,37,38
 61 514 61 514 40.5 535.5 c 128,-1,39
 20 557 20 557 20 597 c 0,40,41
 20 646 20 646 53 680 c 128,-1,42
 86 714 86 714 132 714 c 256,43,44
 178 714 178 714 206 683 c 128,-1,45
 234 652 234 652 234 595 c 0,46,47
 234 528 234 528 201.5 473.5 c 128,-1,48
 169 419 169 419 111.5 380.5 c 128,-1,49
 54 342 54 342 -22 325 c 1,28,-1
EndSplineSet
EndChar

StartChar: uni01EB
Encoding: 491 491 375
Width: 614
GlyphClass: 2
Flags: W
AnchorPoint: "Anchor-0" 348 528 basechar 0
LayerCount: 2
Fore
SplineSet
220 -232 m 0,0,1
 177 -232 177 -232 148 -210 c 128,-1,2
 119 -188 119 -188 119 -145 c 0,3,4
 119 -114 119 -114 132.5 -87.5 c 128,-1,5
 146 -61 146 -61 167 -40 c 128,-1,6
 188 -19 188 -19 208 -7 c 1,7,8
 130 6 130 6 83 64.5 c 128,-1,9
 36 123 36 123 36 214 c 0,10,11
 36 283 36 283 60 339 c 128,-1,12
 84 395 84 395 125.5 435.5 c 128,-1,13
 167 476 167 476 220 498 c 128,-1,14
 273 520 273 520 331 520 c 0,15,16
 401 520 401 520 451 492 c 128,-1,17
 501 464 501 464 528.5 413 c 128,-1,18
 556 362 556 362 556 294 c 0,19,20
 556 213 556 213 525 151.5 c 128,-1,21
 494 90 494 90 442.5 50.5 c 128,-1,22
 391 11 391 11 331 -6 c 0,23,24
 289 -18 289 -18 265.5 -35.5 c 128,-1,25
 242 -53 242 -53 231 -71.5 c 128,-1,26
 220 -90 220 -90 220 -105 c 0,27,28
 220 -125 220 -125 235.5 -136.5 c 128,-1,29
 251 -148 251 -148 270 -148 c 0,30,31
 282 -148 282 -148 292 -145.5 c 128,-1,32
 302 -143 302 -143 314 -137 c 1,33,-1
 338 -194 l 1,34,35
 315 -211 315 -211 285 -221.5 c 128,-1,36
 255 -232 255 -232 220 -232 c 0,0,1
270 98 m 0,37,38
 299 98 299 98 324.5 112.5 c 128,-1,39
 350 127 350 127 370 152 c 128,-1,40
 390 177 390 177 402 212.5 c 128,-1,41
 414 248 414 248 414 290 c 0,42,43
 414 345 414 345 389 375.5 c 128,-1,44
 364 406 364 406 321 406 c 0,45,46
 293 406 293 406 267 392 c 128,-1,47
 241 378 241 378 221 353.5 c 128,-1,48
 201 329 201 329 189 294.5 c 128,-1,49
 177 260 177 260 177 218 c 0,50,51
 177 160 177 160 202.5 129 c 128,-1,52
 228 98 228 98 270 98 c 0,37,38
EndSplineSet
Ligature2: "'ccmp' Glyph Composition/Decomposition lookup 7 subtable" o uni0328
EndChar

StartChar: ohorn
Encoding: 417 417 385
Width: 614
GlyphClass: 2
Flags: W
AnchorPoint: "Anchor-3" 240 -20 basechar 0
AnchorPoint: "Anchor-0" 348 528 basechar 0
LayerCount: 2
Fore
SplineSet
494 445 m 1,0,-1
 436 497 l 1,1,2
 484 503 484 503 510.5 533 c 128,-1,3
 537 563 537 563 537 616 c 0,4,5
 537 630 537 630 534.5 644 c 128,-1,6
 532 658 532 658 527 673 c 1,7,-1
 632 706 l 1,8,9
 641 682 641 682 644 664 c 128,-1,10
 647 646 647 646 647 624 c 0,11,12
 647 572 647 572 629 537 c 128,-1,13
 611 502 611 502 577.5 479.5 c 128,-1,14
 544 457 544 457 494 445 c 1,0,-1
260 -12 m 0,15,16
 190 -12 190 -12 140 16 c 128,-1,17
 90 44 90 44 63 94.5 c 128,-1,18
 36 145 36 145 36 214 c 256,19,20
 36 283 36 283 60 339 c 128,-1,21
 84 395 84 395 125.5 435.5 c 128,-1,22
 167 476 167 476 220 498 c 128,-1,23
 273 520 273 520 331 520 c 0,24,25
 401 520 401 520 451 492 c 128,-1,26
 501 464 501 464 528.5 413 c 128,-1,27
 556 362 556 362 556 294 c 0,28,29
 556 226 556 226 532 169.5 c 128,-1,30
 508 113 508 113 466 72.5 c 128,-1,31
 424 32 424 32 370.5 10 c 128,-1,32
 317 -12 317 -12 260 -12 c 0,15,16
270 102 m 0,33,34
 299 102 299 102 324.5 116 c 128,-1,35
 350 130 350 130 370 154.5 c 128,-1,36
 390 179 390 179 402 214 c 128,-1,37
 414 249 414 249 414 290 c 0,38,39
 414 345 414 345 389 375.5 c 128,-1,40
 364 406 364 406 321 406 c 0,41,42
 293 406 293 406 267 392 c 128,-1,43
 241 378 241 378 221 353.5 c 128,-1,44
 201 329 201 329 189 294.5 c 128,-1,45
 177 260 177 260 177 218 c 0,46,47
 177 163 177 163 202.5 132.5 c 128,-1,48
 228 102 228 102 270 102 c 0,33,34
EndSplineSet
EndChar

StartChar: oslash
Encoding: 248 248 391
Width: 614
GlyphClass: 2
Flags: W
AnchorPoint: "Anchor-3" 240 -20 basechar 0
AnchorPoint: "Anchor-2" 244 0 basechar 0
AnchorPoint: "Anchor-0" 348 528 basechar 0
LayerCount: 2
Fore
SplineSet
260 -12 m 0,0,1
 190 -12 190 -12 140 16 c 128,-1,2
 90 44 90 44 62.5 94.5 c 128,-1,3
 35 145 35 145 35 214 c 256,4,5
 35 283 35 283 59.5 339 c 128,-1,6
 84 395 84 395 125.5 435.5 c 128,-1,7
 167 476 167 476 220 498 c 128,-1,8
 273 520 273 520 331 520 c 0,9,10
 401 520 401 520 451 492 c 128,-1,11
 501 464 501 464 528.5 413 c 128,-1,12
 556 362 556 362 556 294 c 256,13,14
 556 225 556 225 532 169 c 128,-1,15
 508 113 508 113 466 72.5 c 128,-1,16
 424 32 424 32 370.5 10 c 128,-1,17
 317 -12 317 -12 260 -12 c 0,0,1
264 97 m 0,18,19
 300 97 300 97 328.5 112.5 c 128,-1,20
 357 128 357 128 377.5 155 c 128,-1,21
 398 182 398 182 409.5 218.5 c 128,-1,22
 421 255 421 255 421 296 c 0,23,24
 421 347 421 347 397 379 c 128,-1,25
 373 411 373 411 327 411 c 0,26,27
 292 411 292 411 263 396 c 128,-1,28
 234 381 234 381 213.5 353.5 c 128,-1,29
 193 326 193 326 181.5 289.5 c 128,-1,30
 170 253 170 253 170 212 c 0,31,32
 170 161 170 161 194.5 129 c 128,-1,33
 219 97 219 97 264 97 c 0,18,19
47 -28 m 1,34,-1
 1 18 l 1,35,-1
 544 536 l 1,36,-1
 590 489 l 1,37,-1
 47 -28 l 1,34,-1
EndSplineSet
EndChar

StartChar: oe
Encoding: 339 339 393
Width: 614
GlyphClass: 2
Flags: W
AnchorPoint: "Anchor-3" 276 -20 basechar 0
AnchorPoint: "Anchor-2" 404 0 basechar 0
AnchorPoint: "Anchor-0" 348 528 basechar 0
LayerCount: 2
Fore
SplineSet
133 -12 m 0,0,1
 70 -12 70 -12 31 39.5 c 128,-1,2
 -8 91 -8 91 -8 183 c 0,3,4
 -8 284 -8 284 26 360 c 128,-1,5
 60 436 60 436 116 478 c 128,-1,6
 172 520 172 520 237 520 c 0,7,8
 286 520 286 520 313.5 492.5 c 128,-1,9
 341 465 341 465 347 413 c 1,10,-1
 332 417 l 1,11,12
 348 454 348 454 373 476.5 c 128,-1,13
 398 499 398 499 427.5 509.5 c 128,-1,14
 457 520 457 520 482 520 c 0,15,16
 548 520 548 520 579 473.5 c 128,-1,17
 610 427 610 427 610 349 c 0,18,19
 610 306 610 306 600.5 268.5 c 128,-1,20
 591 231 591 231 585 215 c 1,21,-1
 326 215 l 1,22,-1
 333 305 l 1,23,-1
 510 305 l 1,24,-1
 495 291 l 1,25,26
 499 306 499 306 501 321 c 128,-1,27
 503 336 503 336 503 348 c 0,28,29
 503 377 503 377 493.5 395 c 128,-1,30
 484 413 484 413 458 413 c 0,31,32
 434 413 434 413 414 393.5 c 128,-1,33
 394 374 394 374 379 341.5 c 128,-1,34
 364 309 364 309 355.5 268.5 c 128,-1,35
 347 228 347 228 347 185 c 0,36,37
 347 136 347 136 369 115.5 c 128,-1,38
 391 95 391 95 423 95 c 0,39,40
 454 95 454 95 476.5 106.5 c 128,-1,41
 499 118 499 118 521 132 c 1,42,-1
 560 42 l 1,43,44
 529 17 529 17 487.5 2.5 c 128,-1,45
 446 -12 446 -12 401 -12 c 0,46,47
 371 -12 371 -12 343 -1 c 128,-1,48
 315 10 315 10 295 31.5 c 128,-1,49
 275 53 275 53 271 85 c 1,50,-1
 293 76 l 1,51,52
 263 30 263 30 223.5 9 c 128,-1,53
 184 -12 184 -12 133 -12 c 0,0,1
117 189 m 0,54,55
 117 148 117 148 128 123.5 c 128,-1,56
 139 99 139 99 164 99 c 0,57,58
 187 99 187 99 206 118 c 128,-1,59
 225 137 225 137 239 169 c 128,-1,60
 253 201 253 201 260.5 239.5 c 128,-1,61
 268 278 268 278 268 316 c 0,62,63
 268 357 268 357 258 382 c 128,-1,64
 248 407 248 407 223 407 c 256,65,66
 198 407 198 407 178.5 385.5 c 128,-1,67
 159 364 159 364 145 329.5 c 128,-1,68
 131 295 131 295 124 258 c 128,-1,69
 117 221 117 221 117 189 c 0,54,55
EndSplineSet
EndChar

StartChar: germandbls
Encoding: 223 223 409
Width: 614
GlyphClass: 1
Flags: W
LayerCount: 2
Fore
SplineSet
362 -12 m 0,0,1
 322 -12 322 -12 283.5 -1 c 128,-1,2
 245 10 245 10 210 37 c 1,3,-1
 267 131 l 1,4,5
 289 114 289 114 309.5 103 c 128,-1,6
 330 92 330 92 358 92 c 0,7,8
 377 92 377 92 393 100 c 128,-1,9
 409 108 409 108 418 121 c 128,-1,10
 427 134 427 134 427 152 c 0,11,12
 427 174 427 174 413.5 189.5 c 128,-1,13
 400 205 400 205 380.5 221 c 128,-1,14
 361 237 361 237 341.5 254 c 128,-1,15
 322 271 322 271 308.5 293.5 c 128,-1,16
 295 316 295 316 295 347 c 0,17,18
 295 376 295 376 306 397 c 128,-1,19
 317 418 317 418 333 436.5 c 128,-1,20
 349 455 349 455 365.5 472 c 128,-1,21
 382 489 382 489 392.5 510 c 128,-1,22
 403 531 403 531 403 558 c 0,23,24
 403 587 403 587 391 602.5 c 128,-1,25
 379 618 379 618 349 618 c 0,26,27
 309 618 309 618 282 584.5 c 128,-1,28
 255 551 255 551 243 488 c 2,29,-1
 146 0 l 1,30,-1
 6 0 l 1,31,-1
 110 516 l 2,32,33
 122 577 122 577 154 626 c 128,-1,34
 186 675 186 675 237 702.5 c 128,-1,35
 288 730 288 730 355 730 c 0,36,37
 404 730 404 730 446 713.5 c 128,-1,38
 488 697 488 697 513.5 663.5 c 128,-1,39
 539 630 539 630 539 577 c 0,40,41
 539 543 539 543 528 517.5 c 128,-1,42
 517 492 517 492 501 473 c 128,-1,43
 485 454 485 454 470 438.5 c 128,-1,44
 455 423 455 423 443.5 407.5 c 128,-1,45
 432 392 432 392 432 374 c 0,46,47
 432 357 432 357 445 341.5 c 128,-1,48
 458 326 458 326 476.5 310 c 128,-1,49
 495 294 495 294 513 274.5 c 128,-1,50
 531 255 531 255 544 228.5 c 128,-1,51
 557 202 557 202 557 166 c 0,52,53
 557 116 557 116 533 76 c 128,-1,54
 509 36 509 36 465 12 c 128,-1,55
 421 -12 421 -12 362 -12 c 0,0,1
EndSplineSet
EndChar

StartChar: longs
Encoding: 383 383 410
Width: 614
GlyphClass: 1
Flags: W
LayerCount: 2
Fore
SplineSet
147 0 m 1,0,-1
 254 529 l 2,1,2
 274 629 274 629 334 679.5 c 128,-1,3
 394 730 394 730 493 730 c 0,4,5
 550 730 550 730 590.5 713 c 128,-1,6
 631 696 631 696 655 677 c 1,7,-1
 593 589 l 1,8,9
 573 604 573 604 551 611 c 128,-1,10
 529 618 529 618 499 618 c 0,11,12
 459 618 459 618 430 598 c 128,-1,13
 401 578 401 578 392 528 c 2,14,-1
 288 0 l 1,15,-1
 147 0 l 1,0,-1
90 398 m 1,16,-1
 112 502 l 1,17,-1
 251 508 l 1,18,-1
 319 508 l 1,19,-1
 298 398 l 1,20,-1
 90 398 l 1,16,-1
EndSplineSet
EndChar

StartChar: tbar
Encoding: 359 359 417
Width: 614
GlyphClass: 2
Flags: W
AnchorPoint: "Anchor-3" 312 -20 basechar 0
AnchorPoint: "Anchor-0" 326 657 basechar 0
LayerCount: 2
Fore
SplineSet
32 225 m 1,0,-1
 45 293 l 1,1,-1
 175 298 l 1,2,-1
 524 298 l 1,3,-1
 509 225 l 1,4,-1
 32 225 l 1,0,-1
316 -12 m 0,5,6
 226 -12 226 -12 185 30 c 128,-1,7
 144 72 144 72 144 141 c 0,8,9
 144 156 144 156 146 171.5 c 128,-1,10
 148 187 148 187 153 208 c 2,11,-1
 191 398 l 1,12,-1
 58 398 l 1,13,-1
 79 502 l 1,14,-1
 219 508 l 1,15,-1
 269 657 l 1,16,-1
 384 657 l 1,17,-1
 352 508 l 1,18,-1
 569 508 l 1,19,-1
 548 398 l 1,20,-1
 330 398 l 1,21,-1
 291 213 l 2,22,23
 288 200 288 200 287.5 191.5 c 128,-1,24
 287 183 287 183 287 174 c 0,25,26
 287 135 287 135 307 118.5 c 128,-1,27
 327 102 327 102 359 102 c 0,28,29
 391 102 391 102 420.5 113.5 c 128,-1,30
 450 125 450 125 472 138 c 1,31,-1
 515 41 l 1,32,33
 480 18 480 18 427.5 3 c 128,-1,34
 375 -12 375 -12 316 -12 c 0,5,6
EndSplineSet
EndChar

StartChar: uogonek
Encoding: 371 371 428
Width: 614
GlyphClass: 2
Flags: W
AnchorPoint: "Anchor-0" 343 528 basechar 0
LayerCount: 2
Fore
SplineSet
357 -232 m 0,0,1
 313 -232 313 -232 284.5 -210 c 128,-1,2
 256 -188 256 -188 256 -145 c 0,3,4
 256 -110 256 -110 274 -81 c 128,-1,5
 292 -52 292 -52 317 -31 c 128,-1,6
 342 -10 342 -10 364 2 c 1,7,-1
 370 87 l 1,8,-1
 366 87 l 1,9,10
 341 62 341 62 309.5 39 c 128,-1,11
 278 16 278 16 243 2 c 128,-1,12
 208 -12 208 -12 171 -12 c 0,13,14
 108 -12 108 -12 74 21.5 c 128,-1,15
 40 55 40 55 40 119 c 0,16,17
 40 137 40 137 42 156 c 128,-1,18
 44 175 44 175 48 195 c 2,19,-1
 111 508 l 1,20,-1
 251 508 l 1,21,-1
 191 211 l 2,22,23
 188 197 188 197 185.5 184 c 128,-1,24
 183 171 183 171 183 160 c 0,25,26
 183 134 183 134 197.5 121 c 128,-1,27
 212 108 212 108 237 108 c 0,28,29
 269 108 269 108 305 131 c 128,-1,30
 341 154 341 154 377 199 c 1,31,-1
 437 508 l 1,32,-1
 578 508 l 1,33,-1
 477 -1 l 1,34,35
 410 -23 410 -23 383.5 -50.5 c 128,-1,36
 357 -78 357 -78 357 -105 c 0,37,38
 357 -125 357 -125 372 -136.5 c 128,-1,39
 387 -148 387 -148 408 -148 c 0,40,41
 420 -148 420 -148 429.5 -145.5 c 128,-1,42
 439 -143 439 -143 452 -137 c 1,43,-1
 475 -194 l 1,44,45
 452 -211 452 -211 422 -221.5 c 128,-1,46
 392 -232 392 -232 357 -232 c 0,0,1
EndSplineSet
Ligature2: "'ccmp' Glyph Composition/Decomposition lookup 7 subtable" u uni0328
EndChar

StartChar: uhorn
Encoding: 432 432 435
Width: 614
GlyphClass: 2
Flags: W
AnchorPoint: "Anchor-3" 253 -20 basechar 0
AnchorPoint: "Anchor-0" 343 528 basechar 0
LayerCount: 2
Fore
SplineSet
558 456 m 1,0,-1
 502 508 l 1,1,2
 526 511 526 511 543 526 c 128,-1,3
 560 541 560 541 571 565.5 c 128,-1,4
 582 590 582 590 582 620 c 0,5,6
 582 634 582 634 579.5 648 c 128,-1,7
 577 662 577 662 571 676 c 1,8,-1
 676 709 l 1,9,10
 685 685 685 685 688 667 c 128,-1,11
 691 649 691 649 691 627 c 0,12,13
 691 585 691 585 675 550.5 c 128,-1,14
 659 516 659 516 629 492 c 128,-1,15
 599 468 599 468 558 456 c 1,0,-1
171 -12 m 0,16,17
 108 -12 108 -12 74 21.5 c 128,-1,18
 40 55 40 55 40 119 c 0,19,20
 40 137 40 137 42 156 c 128,-1,21
 44 175 44 175 48 195 c 2,22,-1
 111 508 l 1,23,-1
 251 508 l 1,24,-1
 191 211 l 2,25,26
 188 197 188 197 185.5 184 c 128,-1,27
 183 171 183 171 183 160 c 0,28,29
 183 134 183 134 197.5 121 c 128,-1,30
 212 108 212 108 237 108 c 0,31,32
 269 108 269 108 305 131 c 128,-1,33
 341 154 341 154 377 199 c 1,34,-1
 437 508 l 1,35,-1
 578 508 l 1,36,-1
 477 0 l 1,37,-1
 364 0 l 1,38,-1
 370 87 l 1,39,-1
 366 87 l 1,40,41
 341 62 341 62 309.5 39 c 128,-1,42
 278 16 278 16 243 2 c 128,-1,43
 208 -12 208 -12 171 -12 c 0,16,17
EndSplineSet
EndChar

StartChar: eth
Encoding: 240 240 460
Width: 614
GlyphClass: 2
Flags: W
AnchorPoint: "Anchor-3" 261 -20 basechar 0
AnchorPoint: "Anchor-0" 433 750 basechar 0
LayerCount: 2
Fore
SplineSet
247 -12 m 0,0,1
 187 -12 187 -12 136.5 12 c 128,-1,2
 86 36 86 36 56.5 82.5 c 128,-1,3
 27 129 27 129 27 199 c 0,4,5
 27 281 27 281 63 340 c 128,-1,6
 99 399 99 399 158.5 431 c 128,-1,7
 218 463 218 463 286 463 c 0,8,9
 333 463 333 463 366 449.5 c 128,-1,10
 399 436 399 436 419.5 414 c 128,-1,11
 440 392 440 392 451 368 c 1,12,-1
 439 292 l 1,13,14
 416 329 416 329 384.5 345 c 128,-1,15
 353 361 353 361 311 361 c 0,16,17
 265 361 265 361 231.5 339.5 c 128,-1,18
 198 318 198 318 180 283.5 c 128,-1,19
 162 249 162 249 162 208 c 0,20,21
 162 156 162 156 188 128 c 128,-1,22
 214 100 214 100 260 100 c 0,23,24
 297 100 297 100 328.5 116 c 128,-1,25
 360 132 360 132 383.5 163.5 c 128,-1,26
 407 195 407 195 420 242 c 128,-1,27
 433 289 433 289 433 351 c 0,28,29
 433 429 433 429 409.5 487.5 c 128,-1,30
 386 546 386 546 339.5 590 c 128,-1,31
 293 634 293 634 223 669 c 1,32,-1
 283 767 l 1,33,34
 367 731 367 731 431 671 c 128,-1,35
 495 611 495 611 531 530 c 128,-1,36
 567 449 567 449 567 347 c 0,37,38
 567 232 567 232 526 152 c 128,-1,39
 485 72 485 72 413 30 c 128,-1,40
 341 -12 341 -12 247 -12 c 0,0,1
221 498 m 1,41,-1
 194 563 l 1,42,-1
 579 743 l 1,43,-1
 605 677 l 1,44,-1
 221 498 l 1,41,-1
EndSplineSet
EndChar

StartChar: thorn
Encoding: 254 254 461
Width: 614
GlyphClass: 2
Flags: W
AnchorPoint: "Anchor-3" 57 -210 basechar 0
AnchorPoint: "Anchor-0" 237 750 basechar 0
LayerCount: 2
Fore
SplineSet
-23 -188 m 1,0,-1
 160 718 l 1,1,-1
 300 718 l 1,2,-1
 267 555 l 1,3,-1
 238 446 l 1,4,-1
 240 446 l 1,5,6
 274 480 274 480 316.5 500 c 128,-1,7
 359 520 359 520 399 520 c 0,8,9
 479 520 479 520 523 468.5 c 128,-1,10
 567 417 567 417 567 322 c 0,11,12
 567 230 567 230 533 153.5 c 128,-1,13
 499 77 499 77 437.5 32.5 c 128,-1,14
 376 -12 376 -12 294 -12 c 0,15,16
 254 -12 254 -12 218 4 c 128,-1,17
 182 20 182 20 161 48 c 1,18,-1
 159 48 l 1,19,-1
 144 -51 l 1,20,-1
 118 -188 l 1,21,-1
 -23 -188 l 1,0,-1
280 102 m 0,22,23
 310 102 310 102 335 117 c 128,-1,24
 360 132 360 132 379.5 159 c 128,-1,25
 399 186 399 186 410.5 223 c 128,-1,26
 422 260 422 260 422 304 c 0,27,28
 422 356 422 356 400.5 381 c 128,-1,29
 379 406 379 406 345 406 c 0,30,31
 316 406 316 406 285 386.5 c 128,-1,32
 254 367 254 367 223 324 c 1,33,-1
 186 150 l 1,34,35
 202 125 202 125 228 113.5 c 128,-1,36
 254 102 254 102 280 102 c 0,22,23
EndSplineSet
EndChar

StartChar: eng
Encoding: 331 331 462
Width: 614
GlyphClass: 2
Flags: W
AnchorPoint: "Anchor-0" 361 528 basechar 0
LayerCount: 2
Fore
SplineSet
295 -191 m 0,0,1
 269 -191 269 -191 245.5 -185.5 c 128,-1,2
 222 -180 222 -180 198 -168 c 1,3,-1
 240 -68 l 1,4,5
 251 -74 251 -74 261.5 -77 c 128,-1,6
 272 -80 272 -80 284 -80 c 0,7,8
 311 -80 311 -80 324 -62 c 128,-1,9
 337 -44 337 -44 346 -2 c 2,10,-1
 406 297 l 2,11,12
 409 312 409 312 411 325 c 128,-1,13
 413 338 413 338 413 349 c 0,14,15
 413 375 413 375 399.5 387.5 c 128,-1,16
 386 400 386 400 360 400 c 0,17,18
 328 400 328 400 290.5 377 c 128,-1,19
 253 354 253 354 217 310 c 1,20,-1
 157 0 l 1,21,-1
 16 0 l 1,22,-1
 116 508 l 1,23,-1
 229 508 l 1,24,-1
 223 421 l 1,25,-1
 227 421 l 1,26,27
 253 446 253 446 285.5 469 c 128,-1,28
 318 492 318 492 354 506 c 128,-1,29
 390 520 390 520 426 520 c 0,30,31
 489 520 489 520 523 487 c 128,-1,32
 557 454 557 454 557 390 c 0,33,34
 557 372 557 372 555 352.5 c 128,-1,35
 553 333 553 333 549 313 c 2,36,-1
 484 -8 l 2,37,38
 473 -60 473 -60 451 -101 c 128,-1,39
 429 -142 429 -142 391 -166.5 c 128,-1,40
 353 -191 353 -191 295 -191 c 0,0,1
EndSplineSet
EndChar

StartChar: uni0237
Encoding: 567 567 463
Width: 614
GlyphClass: 2
Flags: W
AnchorPoint: "Anchor-3" 167 -210 basechar 0
AnchorPoint: "Anchor-0" 407 528 basechar 0
LayerCount: 2
Fore
SplineSet
142 -201 m 0,0,1
 85 -201 85 -201 43.5 -186 c 128,-1,2
 2 -171 2 -171 -25 -153 c 1,3,-1
 33 -54 l 1,4,5
 56 -69 56 -69 79.5 -79.5 c 128,-1,6
 103 -90 103 -90 133 -90 c 0,7,8
 184 -90 184 -90 213 -60 c 128,-1,9
 242 -30 242 -30 255 38 c 2,10,-1
 328 398 l 1,11,-1
 119 398 l 1,12,-1
 142 508 l 1,13,-1
 488 508 l 1,14,-1
 392 27 l 2,15,16
 370 -83 370 -83 310.5 -142 c 128,-1,17
 251 -201 251 -201 142 -201 c 0,0,1
EndSplineSet
EndChar

StartChar: ij
Encoding: 307 307 464
Width: 614
GlyphClass: 1
Flags: W
LayerCount: 2
Fore
SplineSet
22 0 m 1,0,-1
 124 508 l 1,1,-1
 263 508 l 1,2,-1
 162 0 l 1,3,-1
 22 0 l 1,0,-1
221 584 m 0,4,5
 187 584 187 584 159.5 604 c 128,-1,6
 132 624 132 624 132 664 c 0,7,8
 132 691 132 691 146 712.5 c 128,-1,9
 160 734 160 734 183.5 747.5 c 128,-1,10
 207 761 207 761 234 761 c 0,11,12
 273 761 273 761 298.5 740.5 c 128,-1,13
 324 720 324 720 324 681 c 0,14,15
 324 639 324 639 293.5 611.5 c 128,-1,16
 263 584 263 584 221 584 c 0,4,5
271 -201 m 0,17,18
 244 -201 244 -201 221 -195 c 128,-1,19
 198 -189 198 -189 173 -178 c 1,20,-1
 216 -77 l 1,21,22
 226 -83 226 -83 237 -86.5 c 128,-1,23
 248 -90 248 -90 260 -90 c 0,24,25
 286 -90 286 -90 299 -70.5 c 128,-1,26
 312 -51 312 -51 322 -10 c 2,27,-1
 426 508 l 1,28,-1
 565 508 l 1,29,-1
 460 -16 l 2,30,31
 450 -67 450 -67 428 -109.5 c 128,-1,32
 406 -152 406 -152 367 -176.5 c 128,-1,33
 328 -201 328 -201 271 -201 c 0,17,18
521 584 m 0,34,35
 487 584 487 584 459.5 604 c 128,-1,36
 432 624 432 624 432 664 c 0,37,38
 432 691 432 691 446 712.5 c 128,-1,39
 460 734 460 734 483.5 747.5 c 128,-1,40
 507 761 507 761 535 761 c 0,41,42
 574 761 574 761 599.5 740.5 c 128,-1,43
 625 720 625 720 625 681 c 0,44,45
 625 639 625 639 594.5 611.5 c 128,-1,46
 564 584 564 584 521 584 c 0,34,35
EndSplineSet
EndChar

StartChar: uni006C00B7006C
Encoding: 1114117 -1 465
Width: 614
GlyphClass: 1
Flags: W
LayerCount: 2
Fore
SplineSet
166 -12 m 0,0,1
 99 -12 99 -12 55.5 29 c 128,-1,2
 12 70 12 70 12 139 c 0,3,4
 12 159 12 159 14 176.5 c 128,-1,5
 16 194 16 194 20 211 c 2,6,-1
 110 608 l 1,7,-1
 2 608 l 1,8,-1
 25 717 l 1,9,-1
 262 717 l 1,10,-1
 147 195 l 2,11,12
 146 187 146 187 144.5 178 c 128,-1,13
 143 169 143 169 143 157 c 0,14,15
 143 128 143 128 157.5 115 c 128,-1,16
 172 102 172 102 194 102 c 0,17,18
 221 102 221 102 245 115 c 1,19,-1
 273 10 l 1,20,21
 245 -2 245 -2 220.5 -7 c 128,-1,22
 196 -12 196 -12 166 -12 c 0,0,1
267 305 m 0,23,24
 236 305 236 305 220 326 c 128,-1,25
 204 347 204 347 208 377 c 0,26,27
 213 409 213 409 237.5 432.5 c 128,-1,28
 262 456 262 456 296 456 c 0,29,30
 328 456 328 456 343.5 435 c 128,-1,31
 359 414 359 414 355 384 c 0,32,33
 350 352 350 352 326 328.5 c 128,-1,34
 302 305 302 305 267 305 c 0,23,24
484 -12 m 0,35,36
 416 -12 416 -12 373.5 29 c 128,-1,37
 331 70 331 70 331 139 c 0,38,39
 331 159 331 159 333 176.5 c 128,-1,40
 335 194 335 194 339 211 c 2,41,-1
 428 608 l 1,42,-1
 321 608 l 1,43,-1
 343 717 l 1,44,-1
 581 717 l 1,45,-1
 466 195 l 2,46,47
 464 187 464 187 462.5 178 c 128,-1,48
 461 169 461 169 461 157 c 0,49,50
 461 128 461 128 475.5 115 c 128,-1,51
 490 102 490 102 512 102 c 0,52,53
 538 102 538 102 563 115 c 1,54,-1
 592 10 l 1,55,56
 563 -2 563 -2 538.5 -7 c 128,-1,57
 514 -12 514 -12 484 -12 c 0,35,36
EndSplineSet
Ligature2: "'ccmp' Glyph Composition/Decomposition lookup 7 subtable" l periodcentered l
EndChar

StartChar: uni01330301
Encoding: 1114118 -1 466
Width: 614
GlyphClass: 1
Flags: W
LayerCount: 2
Fore
SplineSet
22 0 m 1,0,-1
 124 508 l 1,1,-1
 263 508 l 1,2,-1
 162 0 l 1,3,-1
 22 0 l 1,0,-1
271 -201 m 0,4,5
 244 -201 244 -201 221 -195 c 128,-1,6
 198 -189 198 -189 173 -178 c 1,7,-1
 216 -77 l 1,8,9
 226 -83 226 -83 237 -86.5 c 128,-1,10
 248 -90 248 -90 260 -90 c 0,11,12
 286 -90 286 -90 299 -70.5 c 128,-1,13
 312 -51 312 -51 322 -10 c 2,14,-1
 426 508 l 1,15,-1
 565 508 l 1,16,-1
 460 -16 l 2,17,18
 450 -67 450 -67 428 -109.5 c 128,-1,19
 406 -152 406 -152 367 -176.5 c 128,-1,20
 328 -201 328 -201 271 -201 c 0,4,5
181 592 m 1,21,-1
 121 672 l 1,22,-1
 309 842 l 1,23,-1
 393 735 l 1,24,-1
 181 592 l 1,21,-1
482 592 m 1,25,-1
 422 672 l 1,26,-1
 610 842 l 1,27,-1
 694 735 l 1,28,-1
 482 592 l 1,25,-1
EndSplineSet
Substitution2: "'case' Case-Sensitive Forms lookup 24 subtable" uni01320301
Ligature2: "'ccmp' Glyph Composition/Decomposition lookup 7 subtable" ij uni0301
EndChar

StartChar: uni0252
Encoding: 594 594 468
Width: 614
GlyphClass: 2
Flags: W
AnchorPoint: "Anchor-3" 250 -20 basechar 0
AnchorPoint: "Anchor-0" 368 528 basechar 0
LayerCount: 2
Fore
SplineSet
294 -12 m 0,0,1
 251 -12 251 -12 211.5 6.5 c 128,-1,2
 172 25 172 25 153 54 c 1,3,-1
 150 54 l 1,4,-1
 128 0 l 1,5,-1
 16 0 l 1,6,-1
 118 508 l 1,7,-1
 231 508 l 1,8,-1
 229 438 l 1,9,-1
 231 438 l 1,10,11
 269 476 269 476 313 498 c 128,-1,12
 357 520 357 520 400 520 c 0,13,14
 477 520 477 520 522 468.5 c 128,-1,15
 567 417 567 417 567 322 c 0,16,17
 567 252 567 252 545 191.5 c 128,-1,18
 523 131 523 131 484.5 85 c 128,-1,19
 446 39 446 39 397.5 13.5 c 128,-1,20
 349 -12 349 -12 294 -12 c 0,0,1
269 102 m 0,21,22
 301 102 301 102 328 117 c 128,-1,23
 355 132 355 132 376 159 c 128,-1,24
 397 186 397 186 409.5 223 c 128,-1,25
 422 260 422 260 422 304 c 0,26,27
 422 356 422 356 402.5 381 c 128,-1,28
 383 406 383 406 348 406 c 0,29,30
 320 406 320 406 286 387.5 c 128,-1,31
 252 369 252 369 221 328 c 1,32,-1
 185 150 l 1,33,34
 200 125 200 125 223.5 113.5 c 128,-1,35
 247 102 247 102 269 102 c 0,21,22
EndSplineSet
EndChar

StartChar: uni0253
Encoding: 595 595 469
Width: 614
GlyphClass: 2
Flags: W
AnchorPoint: "Anchor-3" 250 -20 basechar 0
AnchorPoint: "Anchor-0" 360 750 basechar 0
LayerCount: 2
Fore
SplineSet
294 -12 m 0,0,1
 251 -12 251 -12 213 6.5 c 128,-1,2
 175 25 175 25 156 54 c 1,3,-1
 154 54 l 1,4,-1
 132 0 l 1,5,-1
 16 0 l 1,6,-1
 119 511 l 2,7,8
 131 572 131 572 160.5 622 c 128,-1,9
 190 672 190 672 242.5 701 c 128,-1,10
 295 730 295 730 373 730 c 0,11,12
 410 730 410 730 437.5 723 c 128,-1,13
 465 716 465 716 485 707 c 1,14,-1
 437 596 l 1,15,16
 406 612 406 612 371 612 c 0,17,18
 329 612 329 612 301.5 591.5 c 128,-1,19
 274 571 274 571 259 515 c 2,20,-1
 234 429 l 1,21,-1
 237 429 l 1,22,23
 271 464 271 464 313.5 484 c 128,-1,24
 356 504 356 504 396 504 c 0,25,26
 477 504 477 504 521 455 c 128,-1,27
 565 406 565 406 565 313 c 0,28,29
 565 245 565 245 543 185.5 c 128,-1,30
 521 126 521 126 483 82 c 128,-1,31
 445 38 445 38 396.5 13 c 128,-1,32
 348 -12 348 -12 294 -12 c 0,0,1
274 102 m 0,33,34
 303 102 303 102 329.5 116.5 c 128,-1,35
 356 131 356 131 376.5 157 c 128,-1,36
 397 183 397 183 408.5 219 c 128,-1,37
 420 255 420 255 420 296 c 0,38,39
 420 344 420 344 398.5 366.5 c 128,-1,40
 377 389 377 389 342 389 c 0,41,42
 313 389 313 389 281 369.5 c 128,-1,43
 249 350 249 350 218 306 c 1,44,-1
 186 150 l 1,45,46
 202 125 202 125 225 113.5 c 128,-1,47
 248 102 248 102 274 102 c 0,33,34
EndSplineSet
EndChar

StartChar: uni0254
Encoding: 596 596 470
Width: 614
GlyphClass: 2
Flags: W
AnchorPoint: "Anchor-3" 238 -20 basechar 0
AnchorPoint: "Anchor-2" 254 0 basechar 0
AnchorPoint: "Anchor-0" 336 528 basechar 0
LayerCount: 2
Fore
SplineSet
223 -12 m 0,0,1
 155 -12 155 -12 105.5 16.5 c 128,-1,2
 56 45 56 45 28 80 c 1,3,-1
 113 158 l 1,4,5
 138 130 138 130 168 116 c 128,-1,6
 198 102 198 102 232 102 c 0,7,8
 276 102 276 102 313 126.5 c 128,-1,9
 350 151 350 151 372 192 c 128,-1,10
 394 233 394 233 394 288 c 0,11,12
 394 347 394 347 359.5 376.5 c 128,-1,13
 325 406 325 406 275 406 c 0,14,15
 235 406 235 406 205.5 390 c 128,-1,16
 176 374 176 374 146 349 c 1,17,-1
 97 444 l 1,18,19
 134 479 134 479 183.5 499.5 c 128,-1,20
 233 520 233 520 296 520 c 0,21,22
 362 520 362 520 416 495.5 c 128,-1,23
 470 471 470 471 503.5 422.5 c 128,-1,24
 537 374 537 374 537 300 c 0,25,26
 537 206 537 206 494.5 135.5 c 128,-1,27
 452 65 452 65 380.5 26.5 c 128,-1,28
 309 -12 309 -12 223 -12 c 0,0,1
EndSplineSet
EndChar

StartChar: uni0255
Encoding: 597 597 471
Width: 614
GlyphClass: 2
Flags: W
AnchorPoint: "Anchor-3" 317 -20 basechar 0
AnchorPoint: "Anchor-0" 398 528 basechar 0
LayerCount: 2
Fore
SplineSet
121 -98 m 1,0,-1
 18 -47 l 1,1,2
 78 63 78 63 145 135 c 128,-1,3
 212 207 212 207 280.5 243 c 128,-1,4
 349 279 349 279 416 279 c 0,5,6
 479 279 479 279 512 250 c 128,-1,7
 545 221 545 221 545 171 c 256,8,9
 545 121 545 121 518.5 79.5 c 128,-1,10
 492 38 492 38 441 13 c 128,-1,11
 390 -12 390 -12 319 -12 c 0,12,13
 272 -12 272 -12 226 2.5 c 128,-1,14
 180 17 180 17 142.5 45 c 128,-1,15
 105 73 105 73 83 115 c 128,-1,16
 61 157 61 157 61 210 c 0,17,18
 61 280 61 280 86.5 337 c 128,-1,19
 112 394 112 394 155.5 434.5 c 128,-1,20
 199 475 199 475 254.5 497.5 c 128,-1,21
 310 520 310 520 372 520 c 0,22,23
 441 520 441 520 490.5 492 c 128,-1,24
 540 464 540 464 567 428 c 1,25,-1
 485 355 l 1,26,27
 459 384 459 384 428.5 398.5 c 128,-1,28
 398 413 398 413 364 413 c 0,29,30
 333 413 333 413 303.5 398.5 c 128,-1,31
 274 384 274 384 249.5 357.5 c 128,-1,32
 225 331 225 331 211 296.5 c 128,-1,33
 197 262 197 262 197 223 c 0,34,35
 197 179 197 179 217.5 151 c 128,-1,36
 238 123 238 123 271 109 c 128,-1,37
 304 95 304 95 342 95 c 0,38,39
 385 95 385 95 410 113.5 c 128,-1,40
 435 132 435 132 435 153 c 0,41,42
 435 164 435 164 426 172 c 128,-1,43
 417 180 417 180 393 180 c 0,44,45
 349 180 349 180 303 147.5 c 128,-1,46
 257 115 257 115 210.5 52.5 c 128,-1,47
 164 -10 164 -10 121 -98 c 1,0,-1
EndSplineSet
EndChar

StartChar: uni0256
Encoding: 598 598 472
Width: 614
GlyphClass: 2
Flags: W
AnchorPoint: "Anchor-3" 205 -172 basechar 0
AnchorPoint: "Anchor-0" 558 750 basechar 0
LayerCount: 2
Fore
SplineSet
441 -191 m 0,0,1
 384 -191 384 -191 358.5 -163 c 128,-1,2
 333 -135 333 -135 333 -86 c 0,3,4
 333 -56 333 -56 341 -20.5 c 128,-1,5
 349 15 349 15 359 58 c 1,6,-1
 355 58 l 1,7,8
 321 24 321 24 281 6 c 128,-1,9
 241 -12 241 -12 201 -12 c 0,10,11
 126 -12 126 -12 81 38.5 c 128,-1,12
 36 89 36 89 36 184 c 0,13,14
 36 254 36 254 58 315 c 128,-1,15
 80 376 80 376 118 422 c 128,-1,16
 156 468 156 468 205 494 c 128,-1,17
 254 520 254 520 308 520 c 0,18,19
 358 520 358 520 391 503.5 c 128,-1,20
 424 487 424 487 443 459 c 1,21,-1
 445 459 l 1,22,-1
 458 555 l 1,23,-1
 489 718 l 1,24,-1
 629 718 l 1,25,-1
 479 -23 l 2,26,27
 478 -31 478 -31 477 -37 c 128,-1,28
 476 -43 476 -43 476 -48 c 0,29,30
 476 -64 476 -64 485 -71 c 128,-1,31
 494 -78 494 -78 506 -78 c 0,32,33
 513 -78 513 -78 519.5 -76 c 128,-1,34
 526 -74 526 -74 532 -73 c 1,35,-1
 528 -177 l 1,36,37
 516 -181 516 -181 494.5 -186 c 128,-1,38
 473 -191 473 -191 441 -191 c 0,0,1
254 102 m 0,39,40
 283 102 283 102 317 121 c 128,-1,41
 351 140 351 140 381 181 c 1,42,-1
 418 357 l 1,43,44
 404 383 404 383 379.5 394.5 c 128,-1,45
 355 406 355 406 333 406 c 0,46,47
 303 406 303 406 275.5 390.5 c 128,-1,48
 248 375 248 375 226.5 347 c 128,-1,49
 205 319 205 319 192.5 282.5 c 128,-1,50
 180 246 180 246 180 202 c 0,51,52
 180 152 180 152 200.5 127 c 128,-1,53
 221 102 221 102 254 102 c 0,39,40
EndSplineSet
EndChar

StartChar: uni0257
Encoding: 599 599 473
Width: 614
GlyphClass: 2
Flags: W
AnchorPoint: "Anchor-3" 256 -20 basechar 0
AnchorPoint: "Anchor-0" 510 750 basechar 0
LayerCount: 2
Fore
SplineSet
201 -12 m 0,0,1
 126 -12 126 -12 81 38.5 c 128,-1,2
 36 89 36 89 36 184 c 0,3,4
 36 254 36 254 58 315 c 128,-1,5
 80 376 80 376 118 422 c 128,-1,6
 156 468 156 468 205 494 c 128,-1,7
 254 520 254 520 308 520 c 0,8,9
 358 520 358 520 391 503.5 c 128,-1,10
 424 487 424 487 443 459 c 1,11,-1
 445 459 l 1,12,-1
 463 573 l 2,13,14
 471 615 471 615 495 650.5 c 128,-1,15
 519 686 519 686 559.5 708 c 128,-1,16
 600 730 600 730 658 730 c 0,17,18
 682 730 682 730 698 727 c 128,-1,19
 714 724 714 724 725 719 c 1,20,-1
 678 608 l 1,21,22
 671 610 671 610 667.5 610.5 c 128,-1,23
 664 611 664 611 657 611 c 0,24,25
 629 611 629 611 615 594.5 c 128,-1,26
 601 578 601 578 593 540 c 2,27,-1
 484 0 l 1,28,-1
 371 0 l 1,29,-1
 373 70 l 1,30,-1
 369 70 l 1,31,32
 333 32 333 32 289 10 c 128,-1,33
 245 -12 245 -12 201 -12 c 0,0,1
254 102 m 0,34,35
 283 102 283 102 317 121 c 128,-1,36
 351 140 351 140 381 181 c 1,37,-1
 418 357 l 1,38,39
 404 383 404 383 379.5 394.5 c 128,-1,40
 355 406 355 406 333 406 c 0,41,42
 303 406 303 406 275.5 390.5 c 128,-1,43
 248 375 248 375 226.5 347 c 128,-1,44
 205 319 205 319 192.5 282.5 c 128,-1,45
 180 246 180 246 180 202 c 0,46,47
 180 152 180 152 200.5 127 c 128,-1,48
 221 102 221 102 254 102 c 0,34,35
EndSplineSet
EndChar

StartChar: uni0258
Encoding: 600 600 474
Width: 614
GlyphClass: 2
Flags: W
AnchorPoint: "Anchor-3" 258 -20 basechar 0
AnchorPoint: "Anchor-0" 346 528 basechar 0
LayerCount: 2
Fore
SplineSet
241 -12 m 0,0,1
 185 -12 185 -12 130.5 8 c 128,-1,2
 76 28 76 28 44 61 c 1,3,-1
 115 147 l 1,4,5
 145 122 145 122 176.5 108.5 c 128,-1,6
 208 95 208 95 250 95 c 0,7,8
 293 95 293 95 330 117 c 128,-1,9
 367 139 367 139 390 184 c 128,-1,10
 413 229 413 229 413 298 c 0,11,12
 413 360 413 360 383.5 386.5 c 128,-1,13
 354 413 354 413 315 413 c 0,14,15
 282 413 282 413 254 396 c 128,-1,16
 226 379 226 379 207.5 349 c 128,-1,17
 189 319 189 319 185 282 c 1,18,-1
 166 305 l 1,19,-1
 460 305 l 1,20,-1
 463 215 l 1,21,-1
 65 215 l 1,22,23
 64 223 64 223 62.5 234.5 c 128,-1,24
 61 246 61 246 61 264 c 0,25,26
 61 300 61 300 76 343.5 c 128,-1,27
 91 387 91 387 124 427.5 c 128,-1,28
 157 468 157 468 210 494 c 128,-1,29
 263 520 263 520 338 520 c 0,30,31
 397 520 397 520 446 495.5 c 128,-1,32
 495 471 495 471 524 422.5 c 128,-1,33
 553 374 553 374 553 301 c 0,34,35
 553 200 553 200 511.5 130 c 128,-1,36
 470 60 470 60 399.5 24 c 128,-1,37
 329 -12 329 -12 241 -12 c 0,0,1
EndSplineSet
EndChar

StartChar: uni0299
Encoding: 665 665 476
Width: 614
GlyphClass: 2
Flags: W
AnchorPoint: "Anchor-3" 260 -20 basechar 0
AnchorPoint: "Anchor-0" 356 528 basechar 0
LayerCount: 2
Fore
SplineSet
37 0 m 1,0,-1
 136 508 l 1,1,-1
 379 508 l 2,2,3
 428 508 428 508 467 498 c 128,-1,4
 506 488 506 488 529 465.5 c 128,-1,5
 552 443 552 443 552 403 c 0,6,7
 552 355 552 355 525 319.5 c 128,-1,8
 498 284 498 284 445 269 c 1,9,-1
 444 265 l 1,10,11
 483 255 483 255 504.5 233.5 c 128,-1,12
 526 212 526 212 526 174 c 0,13,14
 526 123 526 123 498.5 84 c 128,-1,15
 471 45 471 45 418.5 22.5 c 128,-1,16
 366 0 366 0 292 0 c 2,17,-1
 37 0 l 1,0,-1
197 99 m 1,18,-1
 301 99 l 2,19,20
 348 99 348 99 368 120.5 c 128,-1,21
 388 142 388 142 388 168 c 0,22,23
 388 190 388 190 371.5 203 c 128,-1,24
 355 216 355 216 323 216 c 2,25,-1
 219 216 l 1,26,-1
 197 99 l 1,18,-1
236 305 m 1,27,-1
 328 305 l 2,28,29
 372 305 372 305 391.5 324.5 c 128,-1,30
 411 344 411 344 411 371 c 0,31,32
 411 388 411 388 396 398.5 c 128,-1,33
 381 409 381 409 349 409 c 2,34,-1
 257 409 l 1,35,-1
 236 305 l 1,27,-1
EndSplineSet
EndChar

StartChar: uni0259
Encoding: 601 601 477
Width: 614
GlyphClass: 2
Flags: W
AnchorPoint: "Anchor-6" 246 0 basechar 0
AnchorPoint: "Anchor-3" 242 -20 basechar 0
AnchorPoint: "Anchor-2" 246 0 basechar 0
AnchorPoint: "Anchor-0" 360 528 basechar 0
LayerCount: 2
Fore
SplineSet
260 -12 m 0,0,1
 160 -12 160 -12 102.5 42.5 c 128,-1,2
 45 97 45 97 45 187 c 0,3,4
 45 221 45 221 51.5 252.5 c 128,-1,5
 58 284 58 284 62 296 c 1,6,-1
 446 296 l 1,7,-1
 432 205 l 1,8,-1
 141 205 l 1,9,-1
 179 226 l 1,10,11
 176 217 176 217 174.5 206 c 128,-1,12
 173 195 173 195 173 184 c 0,13,14
 173 140 173 140 198.5 117.5 c 128,-1,15
 224 95 224 95 264 95 c 0,16,17
 300 95 300 95 333.5 116.5 c 128,-1,18
 367 138 367 138 389 181.5 c 128,-1,19
 411 225 411 225 411 292 c 0,20,21
 411 337 411 337 396.5 363.5 c 128,-1,22
 382 390 382 390 357.5 401.5 c 128,-1,23
 333 413 333 413 302 413 c 0,24,25
 261 413 261 413 227 399 c 128,-1,26
 193 385 193 385 158 362 c 1,27,-1
 112 456 l 1,28,29
 156 487 156 487 212.5 503.5 c 128,-1,30
 269 520 269 520 335 520 c 0,31,32
 398 520 398 520 447 496 c 128,-1,33
 496 472 496 472 523 422.5 c 128,-1,34
 550 373 550 373 550 296 c 0,35,36
 550 227 550 227 527.5 170.5 c 128,-1,37
 505 114 505 114 464.5 73 c 128,-1,38
 424 32 424 32 371.5 10 c 128,-1,39
 319 -12 319 -12 260 -12 c 0,0,1
EndSplineSet
Substitution2: "'sups' Superscript lookup 19 subtable" uni0259.sups
EndChar

StartChar: uni025A
Encoding: 602 602 478
Width: 614
GlyphClass: 2
Flags: W
AnchorPoint: "Anchor-3" 158 -20 basechar 0
AnchorPoint: "Anchor-0" 258 528 basechar 0
LayerCount: 2
Fore
SplineSet
152 -12 m 0,0,1
 77 -12 77 -12 35.5 20.5 c 128,-1,2
 -6 53 -6 53 -19 107 c 128,-1,3
 -32 161 -32 161 -24 222 c 1,4,-1
 519 442 l 1,5,-1
 583 416 l 1,6,7
 577 378 577 378 577.5 356.5 c 128,-1,8
 578 335 578 335 586 326 c 128,-1,9
 594 317 594 317 609 317 c 0,10,11
 621 317 621 317 632 321 c 128,-1,12
 643 325 643 325 651 329 c 1,13,-1
 667 257 l 1,14,15
 650 248 650 248 629.5 239.5 c 128,-1,16
 609 231 609 231 587 231 c 0,17,18
 563 231 563 231 541 239 c 128,-1,19
 519 247 519 247 504 268.5 c 128,-1,20
 489 290 489 290 487 331 c 1,21,-1
 95 170 l 1,22,23
 96 137 96 137 116 118.5 c 128,-1,24
 136 100 136 100 169 100 c 0,25,26
 196 100 196 100 219.5 117 c 128,-1,27
 243 134 243 134 261 164 c 128,-1,28
 279 194 279 194 286 231 c 0,29,30
 298 292 298 292 292.5 331 c 128,-1,31
 287 370 287 370 263.5 388 c 128,-1,32
 240 406 240 406 199 406 c 0,33,34
 172 406 172 406 143.5 397 c 128,-1,35
 115 388 115 388 85 372 c 1,36,-1
 57 469 l 1,37,38
 103 498 103 498 152 509 c 128,-1,39
 201 520 201 520 242 520 c 0,40,41
 318 520 318 520 363 485.5 c 128,-1,42
 408 451 408 451 423 389 c 128,-1,43
 438 327 438 327 422 245 c 0,44,45
 408 174 408 174 368.5 115.5 c 128,-1,46
 329 57 329 57 273.5 22.5 c 128,-1,47
 218 -12 218 -12 152 -12 c 0,0,1
EndSplineSet
EndChar

StartChar: uni025B
Encoding: 603 603 479
Width: 614
GlyphClass: 2
Flags: W
AnchorPoint: "Anchor-3" 254 -20 basechar 0
AnchorPoint: "Anchor-2" 261 0 basechar 0
AnchorPoint: "Anchor-0" 377 528 basechar 0
LayerCount: 2
Fore
SplineSet
263 -12 m 0,0,1
 207 -12 207 -12 158 4 c 128,-1,2
 109 20 109 20 78.5 52 c 128,-1,3
 48 84 48 84 48 130 c 0,4,5
 48 166 48 166 66 194 c 128,-1,6
 84 222 84 222 117.5 241 c 128,-1,7
 151 260 151 260 196 267 c 1,8,-1
 197 271 l 1,9,10
 153 285 153 285 134 311 c 128,-1,11
 115 337 115 337 115 367 c 0,12,13
 115 415 115 415 149.5 449 c 128,-1,14
 184 483 184 483 241 501.5 c 128,-1,15
 298 520 298 520 365 520 c 0,16,17
 426 520 426 520 479 503.5 c 128,-1,18
 532 487 532 487 577 455 c 1,19,-1
 503 358 l 1,20,21
 468 383 468 383 433.5 398 c 128,-1,22
 399 413 399 413 355 413 c 256,23,24
 311 413 311 413 285.5 394.5 c 128,-1,25
 260 376 260 376 260 350 c 0,26,27
 260 328 260 328 277 316.5 c 128,-1,28
 294 305 294 305 335 305 c 2,29,-1
 422 305 l 1,30,-1
 404 215 l 1,31,-1
 303 215 l 2,32,33
 251 215 251 215 222 201 c 128,-1,34
 193 187 193 187 193 156 c 0,35,36
 193 139 193 139 206 125 c 128,-1,37
 219 111 219 111 243.5 103 c 128,-1,38
 268 95 268 95 301 95 c 0,39,40
 325 95 325 95 350.5 100 c 128,-1,41
 376 105 376 105 403.5 116 c 128,-1,42
 431 127 431 127 462 143 c 1,43,-1
 502 47 l 1,44,45
 458 21 458 21 419 8.5 c 128,-1,46
 380 -4 380 -4 342 -8 c 128,-1,47
 304 -12 304 -12 263 -12 c 0,0,1
EndSplineSet
EndChar

StartChar: uni025C
Encoding: 604 604 480
Width: 614
GlyphClass: 2
Flags: W
AnchorPoint: "Anchor-3" 243 -20 basechar 0
AnchorPoint: "Anchor-0" 340 528 basechar 0
LayerCount: 2
Fore
SplineSet
255 -12 m 0,0,1
 189 -12 189 -12 131 2.5 c 128,-1,2
 73 17 73 17 24 53 c 1,3,-1
 98 151 l 1,4,5
 137 125 137 125 175.5 111 c 128,-1,6
 214 97 214 97 262 97 c 0,7,8
 293 97 293 97 316 105.5 c 128,-1,9
 339 114 339 114 352 128 c 128,-1,10
 365 142 365 142 365 161 c 0,11,12
 365 188 365 188 343.5 201.5 c 128,-1,13
 322 215 322 215 269 215 c 2,14,-1
 181 215 l 1,15,-1
 200 305 l 1,16,-1
 298 305 l 2,17,18
 340 305 340 305 364 320 c 128,-1,19
 388 335 388 335 388 362 c 0,20,21
 388 388 388 388 361.5 400.5 c 128,-1,22
 335 413 335 413 288 413 c 0,23,24
 259 413 259 413 221.5 400.5 c 128,-1,25
 184 388 184 388 143 367 c 1,26,-1
 103 462 l 1,27,28
 163 497 163 497 216.5 508.5 c 128,-1,29
 270 520 270 520 324 520 c 0,30,31
 379 520 379 520 426.5 506 c 128,-1,32
 474 492 474 492 503 463 c 128,-1,33
 532 434 532 434 532 391 c 0,34,35
 532 360 532 360 519.5 335.5 c 128,-1,36
 507 311 507 311 483 294.5 c 128,-1,37
 459 278 459 278 425 271 c 1,38,-1
 424 267 l 1,39,40
 454 258 454 258 473 240.5 c 128,-1,41
 492 223 492 223 500.5 200.5 c 128,-1,42
 509 178 509 178 509 155 c 0,43,44
 509 104 509 104 474 66.5 c 128,-1,45
 439 29 439 29 381.5 8.5 c 128,-1,46
 324 -12 324 -12 255 -12 c 0,0,1
EndSplineSet
EndChar

StartChar: uni025E
Encoding: 606 606 481
Width: 614
GlyphClass: 2
Flags: W
AnchorPoint: "Anchor-3" 258 -20 basechar 0
AnchorPoint: "Anchor-0" 348 528 basechar 0
LayerCount: 2
Fore
SplineSet
275 -12 m 0,0,1
 202 -12 202 -12 148 16 c 128,-1,2
 94 44 94 44 64.5 94.5 c 128,-1,3
 35 145 35 145 35 214 c 256,4,5
 35 283 35 283 60 339 c 128,-1,6
 85 395 85 395 128.5 435.5 c 128,-1,7
 172 476 172 476 228 498 c 128,-1,8
 284 520 284 520 345 520 c 0,9,10
 399 520 399 520 447 506 c 128,-1,11
 495 492 495 492 524 463 c 128,-1,12
 553 434 553 434 553 391 c 0,13,14
 553 360 553 360 540 335.5 c 128,-1,15
 527 311 527 311 503 294.5 c 128,-1,16
 479 278 479 278 445 270 c 1,17,-1
 444 266 l 1,18,19
 488 254 488 254 508.5 222 c 128,-1,20
 529 190 529 190 529 155 c 0,21,22
 529 104 529 104 494.5 66.5 c 128,-1,23
 460 29 460 29 402 8.5 c 128,-1,24
 344 -12 344 -12 275 -12 c 0,0,1
295 97 m 0,25,26
 324 97 324 97 344 106.5 c 128,-1,27
 364 116 364 116 374.5 130.5 c 128,-1,28
 385 145 385 145 385 162 c 0,29,30
 385 188 385 188 363.5 201.5 c 128,-1,31
 342 215 342 215 290 215 c 2,32,-1
 276 215 l 1,33,-1
 294 305 l 1,34,-1
 317 305 l 2,35,36
 358 305 358 305 383 319 c 128,-1,37
 408 333 408 333 408 359 c 0,38,39
 408 383 408 383 389.5 398 c 128,-1,40
 371 413 371 413 339 413 c 0,41,42
 294 413 294 413 257.5 387 c 128,-1,43
 221 361 221 361 199 317 c 128,-1,44
 177 273 177 273 177 218 c 0,45,46
 177 181 177 181 192 154 c 128,-1,47
 207 127 207 127 233.5 112 c 128,-1,48
 260 97 260 97 295 97 c 0,25,26
EndSplineSet
EndChar

StartChar: uni025F
Encoding: 607 607 482
Width: 614
GlyphClass: 2
Flags: W
AnchorPoint: "Anchor-3" 167 -210 basechar 0
AnchorPoint: "Anchor-0" 407 528 basechar 0
LayerCount: 2
Fore
SplineSet
102 197 m 1,0,-1
 116 263 l 1,1,-1
 303 269 l 1,2,-1
 562 269 l 1,3,-1
 547 197 l 1,4,-1
 102 197 l 1,0,-1
142 -201 m 0,5,6
 85 -201 85 -201 43.5 -186 c 128,-1,7
 2 -171 2 -171 -25 -153 c 1,8,-1
 33 -54 l 1,9,10
 56 -69 56 -69 79.5 -79.5 c 128,-1,11
 103 -90 103 -90 133 -90 c 0,12,13
 184 -90 184 -90 213 -60 c 128,-1,14
 242 -30 242 -30 255 38 c 2,15,-1
 328 398 l 1,16,-1
 119 398 l 1,17,-1
 142 508 l 1,18,-1
 488 508 l 1,19,-1
 392 27 l 2,20,21
 370 -83 370 -83 310.5 -142 c 128,-1,22
 251 -201 251 -201 142 -201 c 0,5,6
EndSplineSet
EndChar

StartChar: uni0260
Encoding: 608 608 483
Width: 614
GlyphClass: 2
Flags: W
AnchorPoint: "Anchor-3" 293 -210 basechar 0
AnchorPoint: "Anchor-0" 343 596 basechar 0
LayerCount: 2
Fore
SplineSet
212 -201 m 0,0,1
 143 -201 143 -201 92 -182 c 128,-1,2
 41 -163 41 -163 3 -134 c 1,3,-1
 63 -37 l 1,4,5
 92 -62 92 -62 131 -76 c 128,-1,6
 170 -90 170 -90 209 -90 c 0,7,8
 240 -90 240 -90 269 -83 c 128,-1,9
 298 -76 298 -76 320 -55.5 c 128,-1,10
 342 -35 342 -35 353 4 c 2,11,-1
 375 81 l 1,12,-1
 371 81 l 1,13,14
 340 53 340 53 298.5 34 c 128,-1,15
 257 15 257 15 215 15 c 0,16,17
 134 15 134 15 88 67 c 128,-1,18
 42 119 42 119 42 205 c 0,19,20
 42 274 42 274 64 331.5 c 128,-1,21
 86 389 86 389 123.5 431.5 c 128,-1,22
 161 474 161 474 208.5 497.5 c 128,-1,23
 256 521 256 521 308 521 c 0,24,25
 358 521 358 521 391 504.5 c 128,-1,26
 424 488 424 488 443 460 c 1,27,-1
 445 460 l 1,28,-1
 452 512 l 2,29,30
 460 555 460 555 484 590.5 c 128,-1,31
 508 626 508 626 548.5 648 c 128,-1,32
 589 670 589 670 647 670 c 0,33,34
 671 670 671 670 686.5 667 c 128,-1,35
 702 664 702 664 714 658 c 1,36,-1
 667 548 l 1,37,38
 660 550 660 550 656 550.5 c 128,-1,39
 652 551 652 551 645 551 c 0,40,41
 618 551 618 551 604 534 c 128,-1,42
 590 517 590 517 582 479 c 2,43,-1
 486 9 l 2,44,45
 471 -71 471 -71 430 -117 c 128,-1,46
 389 -163 389 -163 332 -182 c 128,-1,47
 275 -201 275 -201 212 -201 c 0,0,1
264 130 m 0,48,49
 295 130 295 130 325 146 c 128,-1,50
 355 162 355 162 383 191 c 1,51,-1
 418 355 l 1,52,53
 401 382 401 382 378.5 394 c 128,-1,54
 356 406 356 406 331 406 c 256,55,56
 305 406 305 406 279.5 393.5 c 128,-1,57
 254 381 254 381 233 357 c 128,-1,58
 212 333 212 333 199.5 300 c 128,-1,59
 187 267 187 267 187 226 c 0,60,61
 187 176 187 176 206.5 153 c 128,-1,62
 226 130 226 130 264 130 c 0,48,49
EndSplineSet
EndChar

StartChar: uni0262
Encoding: 610 610 485
Width: 614
GlyphClass: 2
Flags: W
AnchorPoint: "Anchor-3" 278 -20 basechar 0
AnchorPoint: "Anchor-2" 285 0 basechar 0
AnchorPoint: "Anchor-0" 358 528 basechar 0
LayerCount: 2
Fore
SplineSet
295 -12 m 0,0,1
 250 -12 250 -12 206.5 2 c 128,-1,2
 163 16 163 16 128 44 c 128,-1,3
 93 72 93 72 72.5 113 c 128,-1,4
 52 154 52 154 52 208 c 0,5,6
 52 269 52 269 73.5 325.5 c 128,-1,7
 95 382 95 382 136 425.5 c 128,-1,8
 177 469 177 469 236.5 494.5 c 128,-1,9
 296 520 296 520 372 520 c 0,10,11
 438 520 438 520 484 497.5 c 128,-1,12
 530 475 530 475 559 444 c 1,13,-1
 479 358 l 1,14,15
 459 381 459 381 427.5 397 c 128,-1,16
 396 413 396 413 358 413 c 0,17,18
 310 413 310 413 273.5 385.5 c 128,-1,19
 237 358 237 358 215.5 314 c 128,-1,20
 194 270 194 270 194 220 c 0,21,22
 194 174 194 174 211 146.5 c 128,-1,23
 228 119 228 119 255.5 107 c 128,-1,24
 283 95 283 95 312 95 c 0,25,26
 331 95 331 95 350.5 99.5 c 128,-1,27
 370 104 370 104 383 112 c 1,28,-1
 400 210 l 1,29,-1
 312 210 l 1,30,-1
 330 299 l 1,31,-1
 543 299 l 1,32,-1
 492 47 l 1,33,34
 459 21 459 21 408.5 4.5 c 128,-1,35
 358 -12 358 -12 295 -12 c 0,0,1
EndSplineSet
EndChar

StartChar: uni0263
Encoding: 611 611 486
Width: 614
GlyphClass: 2
Flags: W
AnchorPoint: "Anchor-3" 211 -210 basechar 0
AnchorPoint: "Anchor-0" 338 528 basechar 0
LayerCount: 2
Fore
SplineSet
178 61 m 1,0,-1
 72 508 l 1,1,-1
 211 508 l 1,2,-1
 249 296 l 2,3,4
 255 266 255 266 260.5 233.5 c 128,-1,5
 266 201 266 201 274 160 c 1,6,-1
 279 160 l 1,7,8
 305 201 305 201 323 233.5 c 128,-1,9
 341 266 341 266 358 296 c 2,10,-1
 477 508 l 1,11,-1
 616 508 l 1,12,-1
 344 61 l 1,13,-1
 178 61 l 1,0,-1
207 -216 m 0,14,15
 148 -216 148 -216 115 -185.5 c 128,-1,16
 82 -155 82 -155 82 -102 c 0,17,18
 82 -67 82 -67 95.5 -34.5 c 128,-1,19
 109 -2 109 -2 136.5 38.5 c 128,-1,20
 164 79 164 79 207 134 c 1,21,-1
 345 134 l 1,22,23
 364 78 364 78 377 40.5 c 128,-1,24
 390 3 390 3 390 -33 c 0,25,26
 390 -82 390 -82 367.5 -124 c 128,-1,27
 345 -166 345 -166 303.5 -191 c 128,-1,28
 262 -216 262 -216 207 -216 c 0,14,15
225 -122 m 0,29,30
 244 -122 244 -122 257 -103 c 128,-1,31
 270 -84 270 -84 270 -53 c 0,32,33
 270 -35 270 -35 266.5 -16 c 128,-1,34
 263 3 263 3 256 26 c 1,35,-1
 251 26 l 1,36,37
 235 0 235 0 222.5 -22 c 128,-1,38
 210 -44 210 -44 204 -61 c 128,-1,39
 198 -78 198 -78 198 -91 c 0,40,41
 197 -122 197 -122 225 -122 c 0,29,30
EndSplineSet
EndChar

StartChar: uni0264
Encoding: 612 612 487
Width: 614
GlyphClass: 2
Flags: W
AnchorPoint: "Anchor-3" 242 -20 basechar 0
AnchorPoint: "Anchor-0" 343 528 basechar 0
LayerCount: 2
Fore
SplineSet
244 -12 m 0,0,1
 169 -12 169 -12 125 24 c 128,-1,2
 81 60 81 60 81 131 c 0,3,4
 81 170 81 170 97.5 208 c 128,-1,5
 114 246 114 246 145.5 283.5 c 128,-1,6
 177 321 177 321 220 356 c 1,7,8
 204 383 204 383 185.5 395.5 c 128,-1,9
 167 408 167 408 146 408 c 0,10,11
 133 408 133 408 120.5 403.5 c 128,-1,12
 108 399 108 399 98 393 c 1,13,-1
 78 494 l 1,14,15
 98 507 98 507 130 513.5 c 128,-1,16
 162 520 162 520 189 520 c 0,17,18
 230 520 230 520 268 500.5 c 128,-1,19
 306 481 306 481 332 439 c 1,20,21
 377 481 377 481 422.5 500.5 c 128,-1,22
 468 520 468 520 508 520 c 0,23,24
 537 520 537 520 566 513.5 c 128,-1,25
 595 507 595 507 610 494 c 1,26,-1
 547 393 l 1,27,28
 540 399 540 399 528.5 403.5 c 128,-1,29
 517 408 517 408 504 408 c 0,30,31
 482 408 482 408 461 394.5 c 128,-1,32
 440 381 440 381 415 356 c 1,33,34
 444 321 444 321 460.5 282.5 c 128,-1,35
 477 244 477 244 477 204 c 0,36,37
 477 146 477 146 448 96.5 c 128,-1,38
 419 47 419 47 367 17.5 c 128,-1,39
 315 -12 315 -12 244 -12 c 0,0,1
265 102 m 256,40,41
 289 102 289 102 306.5 114.5 c 128,-1,42
 324 127 324 127 333.5 148 c 128,-1,43
 343 169 343 169 343 195 c 0,44,45
 343 220 343 220 332.5 244 c 128,-1,46
 322 268 322 268 303 289 c 1,47,48
 277 270 277 270 258 247 c 128,-1,49
 239 224 239 224 227.5 201 c 128,-1,50
 216 178 216 178 216 156 c 0,51,52
 216 132 216 132 228.5 117 c 128,-1,53
 241 102 241 102 265 102 c 256,40,41
EndSplineSet
EndChar

StartChar: uni0265
Encoding: 613 613 488
Width: 614
GlyphClass: 2
Flags: W
AnchorPoint: "Anchor-3" 242 -20 basechar 0
AnchorPoint: "Anchor-0" 343 528 basechar 0
LayerCount: 2
Fore
SplineSet
301 -188 m 1,0,-1
 340 1 l 1,1,-1
 364 84 l 1,2,-1
 359 84 l 1,3,4
 333 57 333 57 302.5 35 c 128,-1,5
 272 13 272 13 239.5 0.5 c 128,-1,6
 207 -12 207 -12 171 -12 c 0,7,8
 108 -12 108 -12 74 21.5 c 128,-1,9
 40 55 40 55 40 119 c 0,10,11
 40 137 40 137 42 156 c 128,-1,12
 44 175 44 175 48 195 c 2,13,-1
 111 508 l 1,14,-1
 251 508 l 1,15,-1
 191 211 l 2,16,17
 188 197 188 197 186 183.5 c 128,-1,18
 184 170 184 170 184 159 c 0,19,20
 184 133 184 133 198 120.5 c 128,-1,21
 212 108 212 108 237 108 c 0,22,23
 269 108 269 108 307 131 c 128,-1,24
 345 154 345 154 380 199 c 1,25,-1
 441 508 l 1,26,-1
 581 508 l 1,27,-1
 441 -188 l 1,28,-1
 301 -188 l 1,0,-1
EndSplineSet
EndChar

StartChar: uni0266
Encoding: 614 614 489
Width: 614
GlyphClass: 2
Flags: W
AnchorPoint: "Anchor-3" 259 -20 basechar 0
AnchorPoint: "Anchor-0" 349 750 basechar 0
LayerCount: 2
Fore
SplineSet
16 0 m 1,0,-1
 119 511 l 2,1,2
 131 572 131 572 160.5 622 c 128,-1,3
 190 672 190 672 242.5 701 c 128,-1,4
 295 730 295 730 373 730 c 0,5,6
 410 730 410 730 437.5 723 c 128,-1,7
 465 716 465 716 485 707 c 1,8,-1
 437 596 l 1,9,10
 406 612 406 612 371 612 c 0,11,12
 329 612 329 612 301.5 591 c 128,-1,13
 274 570 274 570 259 515 c 2,14,-1
 230 408 l 1,15,-1
 234 408 l 1,16,17
 259 435 259 435 290 456.5 c 128,-1,18
 321 478 321 478 354.5 491 c 128,-1,19
 388 504 388 504 422 504 c 0,20,21
 487 504 487 504 520.5 470 c 128,-1,22
 554 436 554 436 554 373 c 0,23,24
 554 356 554 356 552 336 c 128,-1,25
 550 316 550 316 546 297 c 2,26,-1
 486 0 l 1,27,-1
 346 0 l 1,28,-1
 402 280 l 2,29,30
 405 296 405 296 407.5 309 c 128,-1,31
 410 322 410 322 410 333 c 0,32,33
 410 359 410 359 396.5 371.5 c 128,-1,34
 383 384 383 384 357 384 c 0,35,36
 324 384 324 384 286.5 361 c 128,-1,37
 249 338 249 338 214 293 c 1,38,-1
 157 0 l 1,39,-1
 16 0 l 1,0,-1
EndSplineSet
Substitution2: "'sups' Superscript lookup 19 subtable" uni0266.sups
EndChar

StartChar: uni0267
Encoding: 615 615 490
Width: 614
GlyphClass: 2
Flags: W
AnchorPoint: "Anchor-0" 349 750 basechar 0
LayerCount: 2
Fore
SplineSet
295 -191 m 0,0,1
 269 -191 269 -191 245.5 -185.5 c 128,-1,2
 222 -180 222 -180 198 -168 c 1,3,-1
 240 -68 l 1,4,5
 251 -74 251 -74 261.5 -77 c 128,-1,6
 272 -80 272 -80 284 -80 c 0,7,8
 311 -80 311 -80 324.5 -62 c 128,-1,9
 338 -44 338 -44 346 -2 c 2,10,-1
 402 280 l 2,11,12
 404 296 404 296 407 309 c 128,-1,13
 410 322 410 322 410 333 c 0,14,15
 410 359 410 359 396.5 371.5 c 128,-1,16
 383 384 383 384 357 384 c 0,17,18
 324 384 324 384 286.5 361 c 128,-1,19
 249 338 249 338 214 293 c 1,20,-1
 157 0 l 1,21,-1
 16 0 l 1,22,-1
 119 511 l 2,23,24
 131 572 131 572 160.5 622 c 128,-1,25
 190 672 190 672 242.5 701 c 128,-1,26
 295 730 295 730 373 730 c 0,27,28
 410 730 410 730 437.5 723 c 128,-1,29
 465 716 465 716 485 707 c 1,30,-1
 437 596 l 1,31,32
 406 612 406 612 371 612 c 0,33,34
 329 612 329 612 301.5 591 c 128,-1,35
 274 570 274 570 259 515 c 2,36,-1
 230 408 l 1,37,-1
 234 408 l 1,38,39
 259 435 259 435 290 456.5 c 128,-1,40
 321 478 321 478 354.5 491 c 128,-1,41
 388 504 388 504 422 504 c 0,42,43
 487 504 487 504 520.5 470 c 128,-1,44
 554 436 554 436 554 373 c 0,45,46
 554 356 554 356 552 336 c 128,-1,47
 550 316 550 316 546 297 c 2,48,-1
 484 -8 l 2,49,50
 474 -60 474 -60 451.5 -101 c 128,-1,51
 429 -142 429 -142 391 -166.5 c 128,-1,52
 353 -191 353 -191 295 -191 c 0,0,1
EndSplineSet
EndChar

StartChar: uni029C
Encoding: 668 668 491
Width: 614
GlyphClass: 2
Flags: W
AnchorPoint: "Anchor-3" 240 -20 basechar 0
AnchorPoint: "Anchor-0" 340 528 basechar 0
LayerCount: 2
Fore
SplineSet
17 1 m 1,0,-1
 118 509 l 1,1,-1
 257 509 l 1,2,-1
 221 321 l 1,3,-1
 396 321 l 1,4,-1
 432 509 l 1,5,-1
 572 509 l 1,6,-1
 472 1 l 1,7,-1
 333 1 l 1,8,-1
 372 199 l 1,9,-1
 197 199 l 1,10,-1
 158 1 l 1,11,-1
 17 1 l 1,0,-1
EndSplineSet
EndChar

StartChar: uni026A
Encoding: 618 618 493
Width: 614
GlyphClass: 2
Flags: W
AnchorPoint: "Anchor-3" 240 -20 basechar 0
AnchorPoint: "Anchor-0" 348 528 basechar 0
LayerCount: 2
Fore
SplineSet
28 0 m 1,0,-1
 50 118 l 1,1,-1
 196 118 l 1,2,-1
 250 390 l 1,3,-1
 104 390 l 1,4,-1
 128 508 l 1,5,-1
 566 508 l 1,6,-1
 544 390 l 1,7,-1
 395 390 l 1,8,-1
 341 118 l 1,9,-1
 489 118 l 1,10,-1
 466 0 l 1,11,-1
 28 0 l 1,0,-1
EndSplineSet
EndChar

StartChar: uni029E
Encoding: 670 670 495
Width: 614
GlyphClass: 2
Flags: W
AnchorPoint: "Anchor-3" 358 -210 basechar 0
AnchorPoint: "Anchor-0" 326 528 basechar 0
LayerCount: 2
Fore
SplineSet
293 -188 m 1,0,-1
 374 210 l 1,1,-1
 370 210 l 1,2,-1
 133 0 l 1,3,-1
 -30 0 l 1,4,-1
 244 249 l 1,5,-1
 409 387 l 1,6,-1
 432 508 l 1,7,-1
 572 508 l 1,8,-1
 432 -188 l 1,9,-1
 293 -188 l 1,0,-1
215 178 m 1,10,-1
 57 508 l 1,11,-1
 200 508 l 1,12,-1
 306 273 l 1,13,-1
 215 178 l 1,10,-1
EndSplineSet
EndChar

StartChar: uni026C
Encoding: 620 620 497
Width: 614
GlyphClass: 2
Flags: W
AnchorPoint: "Anchor-3" 322 -20 basechar 0
AnchorPoint: "Anchor-0" 366 750 basechar 0
LayerCount: 2
Fore
SplineSet
191 281 m 2,0,1
 123 281 123 281 88.5 312.5 c 128,-1,2
 54 344 54 344 54 390 c 256,3,4
 54 436 54 436 84 465 c 128,-1,5
 114 494 114 494 157 494 c 0,6,7
 199 494 199 494 223 471.5 c 128,-1,8
 247 449 247 449 257 413.5 c 128,-1,9
 267 378 267 378 266 339 c 1,10,-1
 218 357 l 1,11,12
 223 380 223 380 210 400.5 c 128,-1,13
 197 421 197 421 166 421 c 0,14,15
 151 421 151 421 142 412 c 128,-1,16
 133 403 133 403 133 390 c 256,17,18
 133 377 133 377 146.5 367 c 128,-1,19
 160 357 160 357 187 357 c 2,20,-1
 494 357 l 1,21,-1
 477 281 l 1,22,-1
 191 281 l 2,0,1
334 -11 m 0,23,24
 266 -11 266 -11 222 30.5 c 128,-1,25
 178 72 178 72 178 147 c 0,26,27
 178 162 178 162 180 178.5 c 128,-1,28
 182 195 182 195 186 212 c 2,29,-1
 275 608 l 1,30,-1
 130 608 l 1,31,-1
 154 718 l 1,32,-1
 436 718 l 1,33,-1
 322 195 l 2,34,35
 321 188 321 188 319 178.5 c 128,-1,36
 317 169 317 169 317 158 c 0,37,38
 317 129 317 129 334 115.5 c 128,-1,39
 351 102 351 102 377 102 c 0,40,41
 400 102 400 102 418 108 c 128,-1,42
 436 114 436 114 461 125 c 1,43,-1
 490 22 l 1,44,45
 451 4 451 4 413.5 -3.5 c 128,-1,46
 376 -11 376 -11 334 -11 c 0,23,24
EndSplineSet
EndChar

StartChar: uni026D
Encoding: 621 621 498
Width: 614
GlyphClass: 2
Flags: W
AnchorPoint: "Anchor-3" 279 -201 basechar 0
AnchorPoint: "Anchor-0" 366 750 basechar 0
LayerCount: 2
Fore
SplineSet
295 -191 m 0,0,1
 227 -191 227 -191 183.5 -149.5 c 128,-1,2
 140 -108 140 -108 140 -32 c 0,3,4
 140 -18 140 -18 142 -1.5 c 128,-1,5
 144 15 144 15 147 33 c 2,6,-1
 275 608 l 1,7,-1
 130 608 l 1,8,-1
 154 718 l 1,9,-1
 436 718 l 1,10,-1
 284 15 l 2,11,12
 282 8 282 8 280.5 -1 c 128,-1,13
 279 -10 279 -10 279 -23 c 0,14,15
 279 -52 279 -52 296 -64.5 c 128,-1,16
 313 -77 313 -77 338 -77 c 0,17,18
 362 -77 362 -77 379.5 -71.5 c 128,-1,19
 397 -66 397 -66 423 -54 c 1,20,-1
 452 -159 l 1,21,22
 414 -176 414 -176 376 -183.5 c 128,-1,23
 338 -191 338 -191 295 -191 c 0,0,1
EndSplineSet
EndChar

StartChar: uni026E
Encoding: 622 622 499
Width: 614
GlyphClass: 2
Flags: W
AnchorPoint: "Anchor-3" 282 -210 basechar 0
AnchorPoint: "Anchor-0" 199 750 basechar 0
LayerCount: 2
Fore
SplineSet
-17 0 m 1,0,-1
 126 718 l 1,1,-1
 266 718 l 1,2,-1
 123 0 l 1,3,-1
 -17 0 l 1,0,-1
285 -201 m 0,4,5
 214 -201 214 -201 165.5 -175.5 c 128,-1,6
 117 -150 117 -150 89 -117 c 1,7,-1
 162 -36 l 1,8,9
 185 -59 185 -59 215.5 -74.5 c 128,-1,10
 246 -90 246 -90 290 -90 c 0,11,12
 316 -90 316 -90 337 -80 c 128,-1,13
 358 -70 358 -70 375 -51 c 128,-1,14
 392 -32 392 -32 401.5 -6.5 c 128,-1,15
 411 19 411 19 411 52 c 0,16,17
 411 94 411 94 386 113.5 c 128,-1,18
 361 133 361 133 326 133 c 0,19,20
 306 133 306 133 294 130.5 c 128,-1,21
 282 128 282 128 264 122 c 1,22,-1
 231 193 l 1,23,-1
 431 398 l 1,24,-1
 157 398 l 1,25,-1
 178 508 l 1,26,-1
 618 508 l 1,27,-1
 603 427 l 1,28,-1
 411 226 l 1,29,30
 453 223 453 223 484.5 204 c 128,-1,31
 516 185 516 185 534 153 c 128,-1,32
 552 121 552 121 552 80 c 0,33,34
 552 24 552 24 531.5 -27 c 128,-1,35
 511 -78 511 -78 475 -117 c 128,-1,36
 439 -156 439 -156 390.5 -178.5 c 128,-1,37
 342 -201 342 -201 285 -201 c 0,4,5
EndSplineSet
EndChar

StartChar: uni029F
Encoding: 671 671 500
Width: 614
GlyphClass: 2
Flags: W
AnchorPoint: "Anchor-3" 301 -20 basechar 0
AnchorPoint: "Anchor-0" 246 528 basechar 0
LayerCount: 2
Fore
SplineSet
79 0 m 1,0,-1
 179 508 l 1,1,-1
 318 508 l 1,2,-1
 241 110 l 1,3,-1
 516 110 l 1,4,-1
 494 0 l 1,5,-1
 79 0 l 1,0,-1
EndSplineSet
EndChar

StartChar: uni0270
Encoding: 624 624 502
Width: 614
GlyphClass: 2
Flags: W
AnchorPoint: "Anchor-3" 401 -210 basechar 0
AnchorPoint: "Anchor-0" 346 528 basechar 0
LayerCount: 2
Fore
SplineSet
346 -188 m 1,0,-1
 376 -48 l 2,1,2
 380 -29 380 -29 390 -1 c 128,-1,3
 400 27 400 27 415 67 c 1,4,-1
 411 67 l 1,5,6
 388 34 388 34 354.5 11 c 128,-1,7
 321 -12 321 -12 275 -12 c 0,8,9
 242 -12 242 -12 224.5 7.5 c 128,-1,10
 207 27 207 27 205 69 c 1,11,-1
 216 77 l 1,12,13
 187 32 187 32 151 10 c 128,-1,14
 115 -12 115 -12 72 -12 c 0,15,16
 36 -12 36 -12 14.5 11.5 c 128,-1,17
 -7 35 -7 35 -7 79 c 0,18,19
 -7 92 -7 92 -5.5 104 c 128,-1,20
 -4 116 -4 116 -1 131 c 2,21,-1
 76 508 l 1,22,-1
 205 508 l 1,23,-1
 133 158 l 2,24,25
 132 149 132 149 131.5 143.5 c 128,-1,26
 131 138 131 138 131 133 c 0,27,28
 131 119 131 119 136.5 113.5 c 128,-1,29
 142 108 142 108 153 108 c 0,30,31
 170 108 170 108 185 120 c 128,-1,32
 200 132 200 132 216 160 c 1,33,-1
 288 508 l 1,34,-1
 400 508 l 1,35,-1
 328 158 l 2,36,37
 327 149 327 149 326 143.5 c 128,-1,38
 325 138 325 138 325 133 c 0,39,40
 325 119 325 119 331.5 113.5 c 128,-1,41
 338 108 338 108 348 108 c 0,42,43
 366 108 366 108 382 120 c 128,-1,44
 398 132 398 132 416 161 c 1,45,-1
 483 508 l 1,46,-1
 614 508 l 1,47,-1
 474 -188 l 1,48,-1
 346 -188 l 1,0,-1
EndSplineSet
EndChar

StartChar: uni0271
Encoding: 625 625 503
Width: 614
GlyphClass: 2
Flags: W
AnchorPoint: "Anchor-0" 358 528 basechar 0
LayerCount: 2
Fore
SplineSet
350 -191 m 0,0,1
 325 -191 325 -191 303.5 -186.5 c 128,-1,2
 282 -182 282 -182 260 -171 c 1,3,-1
 302 -71 l 1,4,5
 310 -76 310 -76 318 -78 c 128,-1,6
 326 -80 326 -80 336 -80 c 0,7,8
 359 -80 359 -80 370 -59.5 c 128,-1,9
 381 -39 381 -39 390 6 c 2,10,-1
 460 350 l 2,11,12
 462 359 462 359 462.5 364.5 c 128,-1,13
 463 370 463 370 463 375 c 0,14,15
 463 390 463 390 457.5 395.5 c 128,-1,16
 452 401 452 401 441 401 c 0,17,18
 424 401 424 401 408.5 388.5 c 128,-1,19
 393 376 393 376 377 348 c 1,20,-1
 306 0 l 1,21,-1
 194 0 l 1,22,-1
 266 350 l 2,23,24
 268 359 268 359 268 364.5 c 128,-1,25
 268 370 268 370 268 375 c 0,26,27
 268 390 268 390 262 395.5 c 128,-1,28
 256 401 256 401 246 401 c 0,29,30
 228 401 228 401 212 388.5 c 128,-1,31
 196 376 196 376 177 347 c 1,32,-1
 111 0 l 1,33,-1
 -20 0 l 1,34,-1
 80 508 l 1,35,-1
 180 508 l 1,36,-1
 178 442 l 1,37,-1
 182 442 l 1,38,39
 205 474 205 474 239 497 c 128,-1,40
 273 520 273 520 317 520 c 0,41,42
 350 520 350 520 368 500.5 c 128,-1,43
 386 481 386 481 389 439 c 1,44,-1
 378 431 l 1,45,46
 406 476 406 476 442.5 498 c 128,-1,47
 479 520 479 520 521 520 c 0,48,49
 558 520 558 520 579.5 497 c 128,-1,50
 601 474 601 474 601 429 c 0,51,52
 601 416 601 416 599.5 404 c 128,-1,53
 598 392 598 392 595 377 c 2,54,-1
 517 -4 l 2,55,56
 506 -60 506 -60 486.5 -102 c 128,-1,57
 467 -144 467 -144 434.5 -167.5 c 128,-1,58
 402 -191 402 -191 350 -191 c 0,0,1
EndSplineSet
EndChar

StartChar: uni0272
Encoding: 626 626 504
Width: 614
GlyphClass: 2
Flags: W
AnchorPoint: "Anchor-0" 364 528 basechar 0
LayerCount: 2
Fore
SplineSet
-34 -191 m 0,0,1
 -63 -191 -63 -191 -79.5 -187 c 128,-1,2
 -96 -183 -96 -183 -110 -177 c 1,3,-1
 -60 -67 l 1,4,5
 -45 -73 -45 -73 -34 -73 c 0,6,7
 -14 -73 -14 -73 -3.5 -58.5 c 128,-1,8
 7 -44 7 -44 12 -17 c 2,9,-1
 116 508 l 1,10,-1
 229 508 l 1,11,-1
 223 421 l 1,12,-1
 227 421 l 1,13,14
 253 446 253 446 285.5 469 c 128,-1,15
 318 492 318 492 354 506 c 128,-1,16
 390 520 390 520 426 520 c 0,17,18
 489 520 489 520 523 487 c 128,-1,19
 557 454 557 454 557 390 c 0,20,21
 557 372 557 372 555 352.5 c 128,-1,22
 553 333 553 333 549 313 c 2,23,-1
 486 0 l 1,24,-1
 346 0 l 1,25,-1
 406 297 l 2,26,27
 409 312 409 312 411 325 c 128,-1,28
 413 338 413 338 413 349 c 0,29,30
 413 375 413 375 399.5 387.5 c 128,-1,31
 386 400 386 400 360 400 c 0,32,33
 328 400 328 400 290.5 377 c 128,-1,34
 253 354 253 354 217 310 c 1,35,-1
 155 -12 l 2,36,37
 145 -64 145 -64 123 -104 c 128,-1,38
 101 -144 101 -144 63 -167.5 c 128,-1,39
 25 -191 25 -191 -34 -191 c 0,0,1
EndSplineSet
EndChar

StartChar: uni0273
Encoding: 627 627 505
Width: 614
GlyphClass: 2
Flags: W
AnchorPoint: "Anchor-0" 364 528 basechar 0
LayerCount: 2
Fore
SplineSet
442 -191 m 0,0,1
 386 -191 386 -191 360.5 -163 c 128,-1,2
 335 -135 335 -135 335 -86 c 0,3,4
 335 -71 335 -71 337 -55 c 128,-1,5
 339 -39 339 -39 342 -19 c 2,6,-1
 406 297 l 2,7,8
 409 312 409 312 411 325 c 128,-1,9
 413 338 413 338 413 349 c 0,10,11
 413 375 413 375 399.5 387.5 c 128,-1,12
 386 400 386 400 360 400 c 0,13,14
 328 400 328 400 290.5 377 c 128,-1,15
 253 354 253 354 217 310 c 1,16,-1
 157 0 l 1,17,-1
 16 0 l 1,18,-1
 116 508 l 1,19,-1
 229 508 l 1,20,-1
 223 421 l 1,21,-1
 227 421 l 1,22,23
 253 446 253 446 285.5 469 c 128,-1,24
 318 492 318 492 354 506 c 128,-1,25
 390 520 390 520 426 520 c 0,26,27
 489 520 489 520 523 487 c 128,-1,28
 557 454 557 454 557 390 c 0,29,30
 557 372 557 372 555 352.5 c 128,-1,31
 553 333 553 333 549 313 c 2,32,-1
 480 -25 l 2,33,34
 479 -32 479 -32 478.5 -37.5 c 128,-1,35
 478 -43 478 -43 478 -49 c 0,36,37
 478 -64 478 -64 487 -71.5 c 128,-1,38
 496 -79 496 -79 508 -79 c 0,39,40
 515 -79 515 -79 521 -77 c 128,-1,41
 527 -75 527 -75 534 -74 c 1,42,-1
 529 -177 l 1,43,44
 517 -181 517 -181 496 -186 c 128,-1,45
 475 -191 475 -191 442 -191 c 0,0,1
EndSplineSet
EndChar

StartChar: uni0274
Encoding: 628 628 506
Width: 614
GlyphClass: 2
Flags: W
AnchorPoint: "Anchor-3" 254 -20 basechar 0
AnchorPoint: "Anchor-0" 338 528 basechar 0
LayerCount: 2
Fore
SplineSet
27 0 m 1,0,-1
 126 508 l 1,1,-1
 260 508 l 1,2,-1
 340 294 l 2,3,4
 348 272 348 272 358.5 241.5 c 128,-1,5
 369 211 369 211 375 187 c 1,6,-1
 379 187 l 1,7,8
 383 235 383 235 388.5 281.5 c 128,-1,9
 394 328 394 328 401 366 c 2,10,-1
 429 508 l 1,11,-1
 563 508 l 1,12,-1
 463 0 l 1,13,-1
 330 0 l 1,14,-1
 249 214 l 2,15,16
 242 237 242 237 231.5 267.5 c 128,-1,17
 221 298 221 298 214 321 c 1,18,-1
 210 321 l 1,19,20
 206 274 206 274 201 227.5 c 128,-1,21
 196 181 196 181 187 142 c 2,22,-1
 160 0 l 1,23,-1
 27 0 l 1,0,-1
EndSplineSet
EndChar

StartChar: uni0275
Encoding: 629 629 507
Width: 614
GlyphClass: 2
Flags: W
AnchorPoint: "Anchor-3" 240 -20 basechar 0
AnchorPoint: "Anchor-0" 348 528 basechar 0
LayerCount: 2
Fore
SplineSet
260 -12 m 0,0,1
 190 -12 190 -12 140 16 c 128,-1,2
 90 44 90 44 62.5 94.5 c 128,-1,3
 35 145 35 145 35 214 c 256,4,5
 35 283 35 283 59.5 339 c 128,-1,6
 84 395 84 395 125.5 435.5 c 128,-1,7
 167 476 167 476 219.5 498 c 128,-1,8
 272 520 272 520 331 520 c 0,9,10
 401 520 401 520 451 492 c 128,-1,11
 501 464 501 464 528.5 413 c 128,-1,12
 556 362 556 362 556 294 c 256,13,14
 556 225 556 225 532 169 c 128,-1,15
 508 113 508 113 466 72.5 c 128,-1,16
 424 32 424 32 371 10 c 128,-1,17
 318 -12 318 -12 260 -12 c 0,0,1
271 95 m 0,18,19
 302 95 302 95 329.5 109 c 128,-1,20
 357 123 357 123 377.5 149 c 128,-1,21
 398 175 398 175 410 211 c 128,-1,22
 422 247 422 247 422 290 c 0,23,24
 422 349 422 349 396 381 c 128,-1,25
 370 413 370 413 321 413 c 0,26,27
 290 413 290 413 262 399 c 128,-1,28
 234 385 234 385 213.5 359 c 128,-1,29
 193 333 193 333 181 297 c 128,-1,30
 169 261 169 261 169 218 c 0,31,32
 169 159 169 159 195 127 c 128,-1,33
 221 95 221 95 271 95 c 0,18,19
146 213 m 1,34,-1
 165 307 l 1,35,-1
 444 307 l 1,36,-1
 426 213 l 1,37,-1
 146 213 l 1,34,-1
EndSplineSet
EndChar

StartChar: uni0276
Encoding: 630 630 508
Width: 614
GlyphClass: 2
Flags: W
AnchorPoint: "Anchor-3" 301 -20 basechar 0
AnchorPoint: "Anchor-0" 381 528 basechar 0
LayerCount: 2
Fore
SplineSet
194 -12 m 0,0,1
 143 -12 143 -12 98.5 9.5 c 128,-1,2
 54 31 54 31 27.5 76 c 128,-1,3
 1 121 1 121 1 189 c 0,4,5
 1 261 1 261 23 321.5 c 128,-1,6
 45 382 45 382 83.5 426.5 c 128,-1,7
 122 471 122 471 172 495.5 c 128,-1,8
 222 520 222 520 278 520 c 0,9,10
 307 520 307 520 332.5 517 c 128,-1,11
 358 514 358 514 388 508 c 1,12,-1
 635 508 l 1,13,-1
 614 408 l 1,14,-1
 447 408 l 1,15,-1
 428 305 l 1,16,-1
 562 305 l 1,17,-1
 546 215 l 1,18,-1
 410 215 l 1,19,-1
 387 100 l 1,20,-1
 563 100 l 1,21,-1
 544 0 l 1,22,-1
 287 0 l 1,23,24
 262 -6 262 -6 241 -9 c 128,-1,25
 220 -12 220 -12 194 -12 c 0,0,1
217 102 m 0,26,27
 227 102 227 102 237 104 c 128,-1,28
 247 106 247 106 257 110 c 1,29,-1
 313 400 l 1,30,31
 305 402 305 402 296 404 c 128,-1,32
 287 406 287 406 275 406 c 0,33,34
 239 406 239 406 209 377 c 128,-1,35
 179 348 179 348 160.5 301 c 128,-1,36
 142 254 142 254 142 199 c 0,37,38
 142 145 142 145 164 123.5 c 128,-1,39
 186 102 186 102 217 102 c 0,26,27
EndSplineSet
EndChar

StartChar: uni0278
Encoding: 632 632 509
Width: 614
GlyphClass: 2
Flags: W
AnchorPoint: "Anchor-3" 195 -210 basechar 0
AnchorPoint: "Anchor-0" 408 750 basechar 0
LayerCount: 2
Fore
SplineSet
223 -8 m 1,0,1
 181 -8 181 -8 142.5 5 c 128,-1,2
 104 18 104 18 74.5 45 c 128,-1,3
 45 72 45 72 27 112.5 c 128,-1,4
 9 153 9 153 9 208 c 0,5,6
 9 281 9 281 33 337.5 c 128,-1,7
 57 394 57 394 98.5 433.5 c 128,-1,8
 140 473 140 473 192 493.5 c 128,-1,9
 244 514 244 514 300 515 c 1,10,-1
 272 411 l 1,11,12
 238 410 238 410 209 383 c 128,-1,13
 180 356 180 356 162 313.5 c 128,-1,14
 144 271 144 271 144 219 c 0,15,16
 144 179 144 179 155.5 151.5 c 128,-1,17
 167 124 167 124 186 110 c 128,-1,18
 205 96 205 96 227 95 c 1,19,-1
 223 -8 l 1,0,1
295 -8 m 1,20,-1
 323 95 l 1,21,22
 358 97 358 97 387 124 c 128,-1,23
 416 151 416 151 433.5 193.5 c 128,-1,24
 451 236 451 236 451 287 c 0,25,26
 451 329 451 329 440 356 c 128,-1,27
 429 383 429 383 410 397 c 128,-1,28
 391 411 391 411 368 411 c 1,29,-1
 372 515 l 1,30,31
 414 514 414 514 451.5 501 c 128,-1,32
 489 488 489 488 519.5 461.5 c 128,-1,33
 550 435 550 435 568 394.5 c 128,-1,34
 586 354 586 354 586 298 c 0,35,36
 586 225 586 225 562 168.5 c 128,-1,37
 538 112 538 112 497 73 c 128,-1,38
 456 34 456 34 403.5 13.5 c 128,-1,39
 351 -7 351 -7 295 -8 c 1,20,-1
136 -188 m 1,40,-1
 336 717 l 1,41,-1
 465 717 l 1,42,-1
 265 -188 l 1,43,-1
 136 -188 l 1,40,-1
EndSplineSet
EndChar

StartChar: uni027A
Encoding: 634 634 511
Width: 614
GlyphClass: 2
Flags: W
AnchorPoint: "Anchor-3" 231 -20 basechar 0
AnchorPoint: "Anchor-0" 519 750 basechar 0
LayerCount: 2
Fore
SplineSet
118 -12 m 0,0,1
 85 -12 85 -12 59.5 -6 c 128,-1,2
 34 0 34 0 18 9 c 1,3,-1
 69 130 l 1,4,5
 87 121 87 121 108.5 117 c 128,-1,6
 130 113 130 113 155 115 c 0,7,8
 202 118 202 118 252.5 162.5 c 128,-1,9
 303 207 303 207 346 286 c 1,10,-1
 450 718 l 1,11,-1
 590 718 l 1,12,-1
 432 0 l 1,13,-1
 317 0 l 1,14,-1
 333 135 l 1,15,-1
 329 135 l 1,16,17
 302 90 302 90 267.5 57 c 128,-1,18
 233 24 233 24 195.5 6 c 128,-1,19
 158 -12 158 -12 118 -12 c 0,0,1
EndSplineSet
EndChar

StartChar: uni027B
Encoding: 635 635 512
Width: 614
GlyphClass: 2
Flags: W
AnchorPoint: "Anchor-3" 117 -20 basechar 0
AnchorPoint: "Anchor-0" 351 528 basechar 0
LayerCount: 2
Fore
SplineSet
361 -191 m 0,0,1
 293 -191 293 -191 267 -157.5 c 128,-1,2
 241 -124 241 -124 241 -75 c 0,3,4
 241 -62 241 -62 242.5 -47.5 c 128,-1,5
 244 -33 244 -33 247 -18 c 2,6,-1
 268 89 l 1,7,-1
 264 89 l 1,8,9
 227 37 227 37 192 12.5 c 128,-1,10
 157 -12 157 -12 105 -12 c 0,11,12
 85 -12 85 -12 63.5 -6.5 c 128,-1,13
 42 -1 42 -1 18 9 c 1,14,-1
 69 130 l 1,15,16
 92 120 92 120 111.5 116.5 c 128,-1,17
 131 113 131 113 147 113 c 0,18,19
 167 113 167 113 189.5 121 c 128,-1,20
 212 129 212 129 234.5 150.5 c 128,-1,21
 257 172 257 172 276 214 c 1,22,-1
 335 508 l 1,23,-1
 475 508 l 1,24,-1
 374 -1 l 2,25,26
 372 -9 372 -9 370.5 -19 c 128,-1,27
 369 -29 369 -29 369 -39 c 0,28,29
 369 -59 369 -59 382 -69 c 128,-1,30
 395 -79 395 -79 414 -79 c 0,31,32
 424 -79 424 -79 432.5 -76 c 128,-1,33
 441 -73 441 -73 451 -68 c 1,34,-1
 446 -173 l 1,35,36
 431 -180 431 -180 410.5 -185.5 c 128,-1,37
 390 -191 390 -191 361 -191 c 0,0,1
EndSplineSet
EndChar

StartChar: uni027D
Encoding: 637 637 513
Width: 614
GlyphClass: 2
Flags: W
AnchorPoint: "Anchor-3" 236 -201 basechar 0
AnchorPoint: "Anchor-0" 397 528 basechar 0
LayerCount: 2
Fore
SplineSet
243 -191 m 0,0,1
 153 -191 153 -191 112.5 -149.5 c 128,-1,2
 72 -108 72 -108 72 -38 c 0,3,4
 72 -22 72 -22 74.5 -6.5 c 128,-1,5
 77 9 77 9 80 29 c 2,6,-1
 175 509 l 1,7,-1
 289 508 l 1,8,-1
 274 373 l 1,9,-1
 279 373 l 1,10,11
 306 418 306 418 340 451 c 128,-1,12
 374 484 374 484 412 502 c 128,-1,13
 450 520 450 520 488 520 c 0,14,15
 521 520 521 520 547.5 514 c 128,-1,16
 574 508 574 508 589 499 c 1,17,-1
 538 378 l 1,18,19
 522 387 522 387 502.5 391 c 128,-1,20
 483 395 483 395 461 395 c 0,21,22
 411 395 411 395 358 349.5 c 128,-1,23
 305 304 305 304 260 224 c 1,24,-1
 222 35 l 2,25,26
 219 22 219 22 218 13 c 128,-1,27
 217 4 217 4 217 -5 c 0,28,29
 217 -43 217 -43 235.5 -60 c 128,-1,30
 254 -77 254 -77 285 -77 c 256,31,32
 316 -77 316 -77 343.5 -65 c 128,-1,33
 371 -53 371 -53 392 -40 c 1,34,-1
 435 -138 l 1,35,36
 401 -160 401 -160 350.5 -175.5 c 128,-1,37
 300 -191 300 -191 243 -191 c 0,0,1
EndSplineSet
EndChar

StartChar: uni027E
Encoding: 638 638 514
Width: 614
GlyphClass: 2
Flags: W
AnchorPoint: "Anchor-3" 150 -20 basechar 0
AnchorPoint: "Anchor-0" 388 528 basechar 0
LayerCount: 2
Fore
SplineSet
75 0 m 1,0,-1
 136 305 l 2,1,2
 148 367 148 367 183.5 416 c 128,-1,3
 219 465 219 465 279.5 492.5 c 128,-1,4
 340 520 340 520 426 520 c 0,5,6
 461 520 461 520 491 517.5 c 128,-1,7
 521 515 521 515 546 510 c 128,-1,8
 571 505 571 505 589 499 c 1,9,-1
 540 373 l 1,10,11
 518 381 518 381 500 385 c 128,-1,12
 482 389 482 389 463.5 390.5 c 128,-1,13
 445 392 445 392 422 392 c 0,14,15
 390 392 390 392 359 380 c 128,-1,16
 328 368 328 368 304.5 341 c 128,-1,17
 281 314 281 314 272 272 c 2,18,-1
 219 0 l 1,19,-1
 75 0 l 1,0,-1
EndSplineSet
EndChar

StartChar: uni0280
Encoding: 640 640 515
Width: 614
GlyphClass: 2
Flags: W
AnchorPoint: "Anchor-3" 279 -20 basechar 0
AnchorPoint: "Anchor-0" 360 528 basechar 0
LayerCount: 2
Fore
SplineSet
45 0 m 1,0,-1
 145 508 l 1,1,-1
 374 508 l 2,2,3
 423 508 423 508 462 494 c 128,-1,4
 501 480 501 480 523.5 449.5 c 128,-1,5
 546 419 546 419 546 371 c 0,6,7
 546 311 546 311 513 264 c 128,-1,8
 480 217 480 217 425.5 191.5 c 128,-1,9
 371 166 371 166 303 166 c 2,10,-1
 218 166 l 1,11,-1
 185 0 l 1,12,-1
 45 0 l 1,0,-1
239 266 m 1,13,-1
 308 266 l 2,14,15
 352 266 352 266 376 289.5 c 128,-1,16
 400 313 400 313 400 342 c 0,17,18
 400 373 400 373 383.5 387 c 128,-1,19
 367 401 367 401 334 400 c 2,20,-1
 264 400 l 1,21,-1
 239 266 l 1,13,-1
357 0 m 1,22,-1
 286 205 l 1,23,-1
 396 246 l 1,24,-1
 500 0 l 1,25,-1
 357 0 l 1,22,-1
EndSplineSet
EndChar

StartChar: uni0281
Encoding: 641 641 516
Width: 614
GlyphClass: 2
Flags: W
AnchorPoint: "Anchor-3" 258 -20 basechar 0
AnchorPoint: "Anchor-0" 373 528 basechar 0
LayerCount: 2
Fore
SplineSet
45 0 m 1,0,-1
 145 508 l 1,1,-1
 286 508 l 1,2,-1
 254 343 l 1,3,-1
 342 343 l 2,4,5
 391 343 391 343 430 328.5 c 128,-1,6
 469 314 469 314 491.5 283.5 c 128,-1,7
 514 253 514 253 514 205 c 0,8,9
 514 145 514 145 481.5 98.5 c 128,-1,10
 449 52 449 52 394 26 c 128,-1,11
 339 0 339 0 272 0 c 2,12,-1
 45 0 l 1,0,-1
207 108 m 1,13,-1
 276 108 l 2,14,15
 320 108 320 108 345 131.5 c 128,-1,16
 370 155 370 155 370 183 c 0,17,18
 370 214 370 214 353 228.5 c 128,-1,19
 336 243 336 243 302 242 c 2,20,-1
 232 242 l 1,21,-1
 207 108 l 1,13,-1
400 262 m 1,22,-1
 305 303 l 1,23,-1
 458 508 l 1,24,-1
 600 508 l 1,25,-1
 400 262 l 1,22,-1
EndSplineSet
EndChar

StartChar: uni0282
Encoding: 642 642 517
Width: 614
GlyphClass: 2
Flags: W
AnchorPoint: "Anchor-3" 257 -210 basechar 0
AnchorPoint: "Anchor-0" 354 528 basechar 0
LayerCount: 2
Fore
SplineSet
151 -191 m 0,0,1
 101 -191 101 -191 71.5 -173 c 128,-1,2
 42 -155 42 -155 29 -125 c 128,-1,3
 16 -95 16 -95 16 -61 c 0,4,5
 16 -43 16 -43 19 -22.5 c 128,-1,6
 22 -2 22 -2 27 23 c 128,-1,7
 32 48 32 48 39 81 c 1,8,-1
 164 62 l 1,9,10
 157 33 157 33 152.5 14 c 128,-1,11
 148 -5 148 -5 147 -17.5 c 128,-1,12
 146 -30 146 -30 146 -37 c 0,13,14
 146 -59 146 -59 156.5 -68 c 128,-1,15
 167 -77 167 -77 186 -77 c 256,16,17
 205 -77 205 -77 224 -70 c 1,18,-1
 230 -177 l 1,19,20
 215 -183 215 -183 197.5 -187 c 128,-1,21
 180 -191 180 -191 151 -191 c 0,0,1
272 -12 m 0,22,23
 224 -12 224 -12 181 -0.5 c 128,-1,24
 138 11 138 11 102.5 31.5 c 128,-1,25
 67 52 67 52 39 81 c 1,26,-1
 117 169 l 1,27,28
 156 129 156 129 202.5 110.5 c 128,-1,29
 249 92 249 92 295 92 c 0,30,31
 332 92 332 92 352 103 c 128,-1,32
 372 114 372 114 372 135 c 0,33,34
 372 149 372 149 362.5 159.5 c 128,-1,35
 353 170 353 170 331 179.5 c 128,-1,36
 309 189 309 189 271 201 c 0,37,38
 194 227 194 227 154 263.5 c 128,-1,39
 114 300 114 300 114 357 c 0,40,41
 114 410 114 410 143.5 446.5 c 128,-1,42
 173 483 173 483 221.5 501.5 c 128,-1,43
 270 520 270 520 328 520 c 0,44,45
 403 520 403 520 455 496 c 128,-1,46
 507 472 507 472 543 437 c 1,47,-1
 466 355 l 1,48,49
 435 380 435 380 395.5 398 c 128,-1,50
 356 416 356 416 312 416 c 0,51,52
 281 416 281 416 263 405.5 c 128,-1,53
 245 395 245 395 245 374 c 0,54,55
 245 354 245 354 269 340.5 c 128,-1,56
 293 327 293 327 351 306 c 0,57,58
 397 291 397 291 431.5 271.5 c 128,-1,59
 466 252 466 252 485 224 c 128,-1,60
 504 196 504 196 504 154 c 0,61,62
 504 97 504 97 473 60 c 128,-1,63
 442 23 442 23 389.5 5.5 c 128,-1,64
 337 -12 337 -12 272 -12 c 0,22,23
EndSplineSet
EndChar

StartChar: uni0283
Encoding: 643 643 518
Width: 614
GlyphClass: 2
Flags: W
AnchorPoint: "Anchor-3" 139 -210 basechar 0
AnchorPoint: "Anchor-0" 485 748 basechar 0
LayerCount: 2
Fore
SplineSet
103 -201 m 0,0,1
 60 -201 60 -201 28.5 -187 c 128,-1,2
 -3 -173 -3 -173 -25 -153 c 1,3,-1
 33 -61 l 1,4,5
 51 -76 51 -76 68.5 -83 c 128,-1,6
 86 -90 86 -90 105 -90 c 0,7,8
 135 -90 135 -90 151.5 -69.5 c 128,-1,9
 168 -49 168 -49 177 -1 c 2,10,-1
 283 525 l 2,11,12
 294 581 294 581 319.5 628 c 128,-1,13
 345 675 345 675 390 702 c 128,-1,14
 435 729 435 729 502 729 c 0,15,16
 548 729 548 729 588 713.5 c 128,-1,17
 628 698 628 698 655 677 c 1,18,-1
 593 589 l 1,19,20
 570 604 570 604 550 611 c 128,-1,21
 530 618 530 618 511 618 c 0,22,23
 474 618 474 618 453 598 c 128,-1,24
 432 578 432 578 422 530 c 2,25,-1
 319 3 l 2,26,27
 309 -52 309 -52 283.5 -98.5 c 128,-1,28
 258 -145 258 -145 214.5 -173 c 128,-1,29
 171 -201 171 -201 103 -201 c 0,0,1
EndSplineSet
EndChar

StartChar: uni0284
Encoding: 644 644 519
Width: 614
GlyphClass: 2
Flags: W
AnchorPoint: "Anchor-3" 139 -210 basechar 0
AnchorPoint: "Anchor-0" 485 748 basechar 0
LayerCount: 2
Fore
SplineSet
78 230 m 1,0,-1
 91 297 l 1,1,-1
 240 303 l 1,2,-1
 537 303 l 1,3,-1
 521 230 l 1,4,-1
 78 230 l 1,0,-1
103 -201 m 0,5,6
 60 -201 60 -201 28.5 -187 c 128,-1,7
 -3 -173 -3 -173 -25 -153 c 1,8,-1
 33 -61 l 1,9,10
 51 -76 51 -76 68.5 -83 c 128,-1,11
 86 -90 86 -90 105 -90 c 0,12,13
 135 -90 135 -90 151.5 -69.5 c 128,-1,14
 168 -49 168 -49 177 -1 c 2,15,-1
 283 525 l 2,16,17
 294 581 294 581 319.5 628 c 128,-1,18
 345 675 345 675 390 702 c 128,-1,19
 435 729 435 729 502 729 c 0,20,21
 548 729 548 729 588 713.5 c 128,-1,22
 628 698 628 698 655 677 c 1,23,-1
 593 589 l 1,24,25
 570 604 570 604 550 611 c 128,-1,26
 530 618 530 618 511 618 c 0,27,28
 474 618 474 618 453 598 c 128,-1,29
 432 578 432 578 422 530 c 2,30,-1
 319 3 l 2,31,32
 309 -52 309 -52 283.5 -98.5 c 128,-1,33
 258 -145 258 -145 214.5 -173 c 128,-1,34
 171 -201 171 -201 103 -201 c 0,5,6
EndSplineSet
EndChar

StartChar: uni0288
Encoding: 648 648 521
Width: 614
GlyphClass: 2
Flags: W
AnchorPoint: "Anchor-3" 274 -201 basechar 0
AnchorPoint: "Anchor-0" 326 657 basechar 0
LayerCount: 2
Fore
SplineSet
281 -191 m 0,0,1
 190 -191 190 -191 149 -149.5 c 128,-1,2
 108 -108 108 -108 108 -38 c 0,3,4
 108 -22 108 -22 110.5 -6.5 c 128,-1,5
 113 9 113 9 116 29 c 2,6,-1
 191 398 l 1,7,-1
 58 398 l 1,8,-1
 79 502 l 1,9,-1
 219 508 l 1,10,-1
 271 664 l 1,11,-1
 386 664 l 1,12,-1
 353 508 l 1,13,-1
 568 508 l 1,14,-1
 548 398 l 1,15,-1
 330 398 l 1,16,-1
 254 35 l 2,17,18
 251 22 251 22 250.5 13 c 128,-1,19
 250 4 250 4 250 -5 c 0,20,21
 250 -43 250 -43 270.5 -60 c 128,-1,22
 291 -77 291 -77 323 -77 c 256,23,24
 355 -77 355 -77 384 -65.5 c 128,-1,25
 413 -54 413 -54 435 -40 c 1,26,-1
 478 -138 l 1,27,28
 444 -161 444 -161 391.5 -176 c 128,-1,29
 339 -191 339 -191 281 -191 c 0,0,1
EndSplineSet
EndChar

StartChar: uni0289
Encoding: 649 649 522
Width: 614
GlyphClass: 2
Flags: W
AnchorPoint: "Anchor-3" 253 -20 basechar 0
AnchorPoint: "Anchor-2" 407 0 basechar 0
AnchorPoint: "Anchor-0" 343 528 basechar 0
LayerCount: 2
Fore
SplineSet
177 -12 m 0,0,1
 115 -12 115 -12 86 21.5 c 128,-1,2
 57 55 57 55 57 118 c 0,3,4
 57 135 57 135 59 153.5 c 128,-1,5
 61 172 61 172 66 190 c 2,6,-1
 129 508 l 1,7,-1
 269 508 l 1,8,-1
 209 208 l 2,9,10
 206 194 206 194 203.5 182 c 128,-1,11
 201 170 201 170 201 160 c 0,12,13
 201 133 201 133 214 120.5 c 128,-1,14
 227 108 227 108 252 108 c 0,15,16
 276 108 276 108 300 123.5 c 128,-1,17
 324 139 324 139 354 173 c 1,18,-1
 419 508 l 1,19,-1
 559 508 l 1,20,-1
 460 0 l 1,21,-1
 345 0 l 1,22,-1
 347 69 l 1,23,-1
 343 69 l 1,24,25
 309 36 309 36 266 12 c 128,-1,26
 223 -12 223 -12 177 -12 c 0,0,1
6 272 m 1,27,-1
 19 339 l 1,28,-1
 100 345 l 1,29,-1
 600 345 l 1,30,-1
 586 272 l 1,31,-1
 6 272 l 1,27,-1
EndSplineSet
EndChar

StartChar: uni028A
Encoding: 650 650 523
Width: 614
GlyphClass: 2
Flags: W
AnchorPoint: "Anchor-3" 242 -20 basechar 0
AnchorPoint: "Anchor-0" 348 528 basechar 0
LayerCount: 2
Fore
SplineSet
244 -12 m 0,0,1
 178 -12 178 -12 134 13 c 128,-1,2
 90 38 90 38 68.5 78 c 128,-1,3
 47 118 47 118 47 165 c 0,4,5
 47 214 47 214 65.5 258.5 c 128,-1,6
 84 303 84 303 111.5 339 c 128,-1,7
 139 375 139 375 166 397 c 1,8,-1
 167 400 l 1,9,-1
 77 400 l 1,10,-1
 98 508 l 1,11,-1
 306 508 l 1,12,-1
 289 412 l 1,13,14
 261 384 261 384 238.5 348 c 128,-1,15
 216 312 216 312 203 273 c 128,-1,16
 190 234 190 234 190 193 c 0,17,18
 190 167 190 167 198.5 146.5 c 128,-1,19
 207 126 207 126 224 114 c 128,-1,20
 241 102 241 102 267 102 c 0,21,22
 296 102 296 102 319.5 117 c 128,-1,23
 343 132 343 132 361 159 c 128,-1,24
 379 186 379 186 388.5 221.5 c 128,-1,25
 398 257 398 257 398 297 c 0,26,27
 398 330 398 330 389.5 358 c 128,-1,28
 381 386 381 386 366 412 c 1,29,-1
 385 508 l 1,30,-1
 593 508 l 1,31,-1
 571 400 l 1,32,-1
 480 400 l 1,33,-1
 479 397 l 1,34,35
 497 373 497 373 512 338.5 c 128,-1,36
 527 304 527 304 527 259 c 0,37,38
 527 207 527 207 506 158.5 c 128,-1,39
 485 110 485 110 448 71.5 c 128,-1,40
 411 33 411 33 358.5 10.5 c 128,-1,41
 306 -12 306 -12 244 -12 c 0,0,1
EndSplineSet
EndChar

StartChar: uni028B
Encoding: 651 651 524
Width: 614
GlyphClass: 2
Flags: W
AnchorPoint: "Anchor-3" 244 -20 basechar 0
AnchorPoint: "Anchor-0" 348 528 basechar 0
LayerCount: 2
Fore
SplineSet
258 -12 m 0,0,1
 193 -12 193 -12 145.5 6 c 128,-1,2
 98 24 98 24 71.5 61 c 128,-1,3
 45 98 45 98 45 157 c 0,4,5
 45 171 45 171 48 191.5 c 128,-1,6
 51 212 51 212 55 230 c 2,7,-1
 111 508 l 1,8,-1
 251 508 l 1,9,-1
 196 233 l 2,10,11
 193 218 193 218 191.5 206.5 c 128,-1,12
 190 195 190 195 190 185 c 0,13,14
 190 155 190 155 199.5 137 c 128,-1,15
 209 119 209 119 226.5 110.5 c 128,-1,16
 244 102 244 102 269 102 c 0,17,18
 301 102 301 102 328 123.5 c 128,-1,19
 355 145 355 145 374 181 c 128,-1,20
 393 217 393 217 403.5 258.5 c 128,-1,21
 414 300 414 300 414 338 c 0,22,23
 414 372 414 372 401.5 388 c 128,-1,24
 389 404 389 404 360 404 c 0,25,26
 355 404 355 404 351 403.5 c 128,-1,27
 347 403 347 403 339 401 c 1,28,-1
 345 512 l 1,29,30
 360 517 360 517 376 518.5 c 128,-1,31
 392 520 392 520 415 520 c 0,32,33
 477 520 477 520 516.5 482.5 c 128,-1,34
 556 445 556 445 556 364 c 0,35,36
 556 291 556 291 535 223.5 c 128,-1,37
 514 156 514 156 474.5 102.5 c 128,-1,38
 435 49 435 49 381 18.5 c 128,-1,39
 327 -12 327 -12 258 -12 c 0,0,1
EndSplineSet
EndChar

StartChar: uni028E
Encoding: 654 654 527
Width: 614
GlyphClass: 2
Flags: W
AnchorPoint: "Anchor-3" 246 -20 basechar 0
AnchorPoint: "Anchor-0" 476 750 basechar 0
LayerCount: 2
Fore
SplineSet
-25 0 m 1,0,-1
 296 546 l 2,1,2
 332 609 332 609 370.5 649.5 c 128,-1,3
 409 690 409 690 453.5 710 c 128,-1,4
 498 730 498 730 555 730 c 0,5,6
 583 730 583 730 608.5 723 c 128,-1,7
 634 716 634 716 649 706 c 1,8,-1
 609 609 l 1,9,10
 597 615 597 615 579 620.5 c 128,-1,11
 561 626 561 626 546 626 c 0,12,13
 521 626 521 626 503 618.5 c 128,-1,14
 485 611 485 611 470.5 597 c 128,-1,15
 456 583 456 583 440 560 c 2,16,-1
 407 506 l 1,17,-1
 522 0 l 1,18,-1
 387 0 l 1,19,-1
 345 221 l 2,20,21
 339 258 339 258 332.5 303.5 c 128,-1,22
 326 349 326 349 323 381 c 1,23,-1
 318 381 l 1,24,25
 304 349 304 349 281 303.5 c 128,-1,26
 258 258 258 258 239 221 c 2,27,-1
 118 0 l 1,28,-1
 -25 0 l 1,0,-1
EndSplineSet
EndChar

StartChar: uni028F
Encoding: 655 655 528
Width: 614
GlyphClass: 2
Flags: W
AnchorPoint: "Anchor-3" 241 -20 basechar 0
AnchorPoint: "Anchor-0" 346 528 basechar 0
LayerCount: 2
Fore
SplineSet
175 0 m 1,0,-1
 205 154 l 1,1,-1
 80 508 l 1,2,-1
 231 508 l 1,3,-1
 264 398 l 1,4,5
 268 366 268 366 281.5 337.5 c 128,-1,6
 295 309 295 309 300 278 c 1,7,-1
 304 278 l 1,8,9
 321 310 321 310 346 338.5 c 128,-1,10
 371 367 371 367 388 398 c 2,11,-1
 463 508 l 1,12,-1
 613 508 l 1,13,-1
 350 154 l 1,14,-1
 319 0 l 1,15,-1
 175 0 l 1,0,-1
EndSplineSet
EndChar

StartChar: uni0290
Encoding: 656 656 529
Width: 614
GlyphClass: 2
Flags: W
AnchorPoint: "Anchor-0" 362 528 basechar 0
LayerCount: 2
Fore
SplineSet
463 -191 m 0,0,1
 414 -191 414 -191 384 -173 c 128,-1,2
 354 -155 354 -155 341.5 -125 c 128,-1,3
 329 -95 329 -95 329 -61 c 0,4,5
 329 -47 329 -47 331 -35 c 128,-1,6
 333 -23 333 -23 337 0 c 1,7,-1
 24 0 l 1,8,-1
 39 83 l 1,9,-1
 365 400 l 1,10,-1
 101 400 l 1,11,-1
 125 508 l 1,12,-1
 566 508 l 1,13,-1
 551 426 l 1,14,-1
 227 110 l 1,15,-1
 502 110 l 1,16,17
 489 44 489 44 482.5 9.5 c 128,-1,18
 476 -25 476 -25 476 -37 c 0,19,20
 476 -56 476 -56 484.5 -65 c 128,-1,21
 493 -74 493 -74 509 -74 c 0,22,23
 522 -74 522 -74 539 -67 c 1,24,-1
 544 -177 l 1,25,26
 529 -183 529 -183 510.5 -187 c 128,-1,27
 492 -191 492 -191 463 -191 c 0,0,1
EndSplineSet
EndChar

StartChar: uni0291
Encoding: 657 657 530
Width: 614
GlyphClass: 2
Flags: W
AnchorPoint: "Anchor-0" 336 528 basechar 0
LayerCount: 2
Fore
SplineSet
290 -117 m 1,0,-1
 221 -101 l 1,1,2
 262 10 262 10 307 88.5 c 128,-1,3
 352 167 352 167 399 209.5 c 128,-1,4
 446 252 446 252 496 252 c 0,5,6
 539 252 539 252 560.5 231.5 c 128,-1,7
 582 211 582 211 582 172 c 0,8,9
 582 129 582 129 560 89.5 c 128,-1,10
 538 50 538 50 491 25 c 128,-1,11
 444 0 444 0 370 0 c 2,12,-1
 23 0 l 1,13,-1
 39 83 l 1,14,-1
 347 400 l 1,15,-1
 101 400 l 1,16,-1
 125 508 l 1,17,-1
 545 508 l 1,18,-1
 529 425 l 1,19,-1
 217 108 l 1,20,21
 271 103 271 103 323 101 c 128,-1,22
 375 99 375 99 428 99 c 0,23,24
 467 99 467 99 485 115.5 c 128,-1,25
 503 132 503 132 503 148 c 0,26,27
 503 159 503 159 496 165 c 128,-1,28
 489 171 489 171 476 171 c 0,29,30
 457 171 457 171 428 144 c 128,-1,31
 399 117 399 117 364.5 54.5 c 128,-1,32
 330 -8 330 -8 290 -117 c 1,0,-1
EndSplineSet
EndChar

StartChar: uni0292
Encoding: 658 658 531
Width: 614
GlyphClass: 2
Flags: W
AnchorPoint: "Anchor-3" 203 -215 basechar 0
AnchorPoint: "Anchor-0" 339 535 basechar 0
LayerCount: 2
Fore
SplineSet
198 -201 m 0,0,1
 147 -201 147 -201 106.5 -188 c 128,-1,2
 66 -175 66 -175 35 -153 c 128,-1,3
 4 -131 4 -131 -16 -106 c 1,4,-1
 56 -26 l 1,5,6
 81 -54 81 -54 117.5 -72 c 128,-1,7
 154 -90 154 -90 204 -90 c 0,8,9
 235 -90 235 -90 261 -80.5 c 128,-1,10
 287 -71 287 -71 307 -53 c 128,-1,11
 327 -35 327 -35 338 -11.5 c 128,-1,12
 349 12 349 12 349 40 c 0,13,14
 349 89 349 89 318.5 112 c 128,-1,15
 288 135 288 135 242 135 c 0,16,17
 217 135 217 135 202.5 132.5 c 128,-1,18
 188 130 188 130 167 122 c 1,19,-1
 134 193 l 1,20,-1
 361 398 l 1,21,-1
 118 398 l 1,22,-1
 139 508 l 1,23,-1
 557 508 l 1,24,-1
 542 427 l 1,25,-1
 325 228 l 1,26,27
 377 225 377 225 414.5 202.5 c 128,-1,28
 452 180 452 180 472 144 c 128,-1,29
 492 108 492 108 492 63 c 0,30,31
 492 10 492 10 469 -37 c 128,-1,32
 446 -84 446 -84 407.5 -121.5 c 128,-1,33
 369 -159 369 -159 315 -180 c 128,-1,34
 261 -201 261 -201 198 -201 c 0,0,1
EndSplineSet
EndChar

StartChar: uni02A4
Encoding: 676 676 532
Width: 614
GlyphClass: 2
Flags: W
AnchorPoint: "Anchor-3" 248 -210 basechar 0
AnchorPoint: "Anchor-0" 368 750 basechar 0
LayerCount: 2
Fore
SplineSet
85 -12 m 0,0,1
 34 -12 34 -12 4 38.5 c 128,-1,2
 -26 89 -26 89 -26 179 c 0,3,4
 -26 248 -26 248 -8 309.5 c 128,-1,5
 10 371 10 371 40.5 418 c 128,-1,6
 71 465 71 465 109 492.5 c 128,-1,7
 147 520 147 520 189 520 c 0,8,9
 214 520 214 520 235.5 508 c 128,-1,10
 257 496 257 496 269 470 c 1,11,-1
 272 470 l 1,12,-1
 284 564 l 1,13,-1
 313 717 l 1,14,-1
 430 717 l 1,15,-1
 286 0 l 1,16,-1
 196 0 l 1,17,-1
 193 46 l 1,18,-1
 190 46 l 1,19,20
 163 16 163 16 138 2 c 128,-1,21
 113 -12 113 -12 85 -12 c 0,0,1
143 102 m 0,22,23
 157 102 157 102 172 114.5 c 128,-1,24
 187 127 187 127 201 158 c 1,25,-1
 243 368 l 1,26,27
 237 390 237 390 226.5 398 c 128,-1,28
 216 406 216 406 203 406 c 0,29,30
 186 406 186 406 168.5 389 c 128,-1,31
 151 372 151 372 136.5 341.5 c 128,-1,32
 122 311 122 311 113 270 c 128,-1,33
 104 229 104 229 104 182 c 0,34,35
 104 141 104 141 114.5 121.5 c 128,-1,36
 125 102 125 102 143 102 c 0,22,23
350 -201 m 0,37,38
 300 -201 300 -201 268 -181.5 c 128,-1,39
 236 -162 236 -162 214 -136 c 1,40,-1
 287 -55 l 1,41,42
 301 -70 301 -70 317.5 -80 c 128,-1,43
 334 -90 334 -90 352 -90 c 0,44,45
 380 -90 380 -90 403.5 -70 c 128,-1,46
 427 -50 427 -50 441.5 -18 c 128,-1,47
 456 14 456 14 456 52 c 256,48,49
 456 90 456 90 442 107.5 c 128,-1,50
 428 125 428 125 406 125 c 0,51,52
 397 125 397 125 390 124 c 128,-1,53
 383 123 383 123 372 117 c 1,54,-1
 342 198 l 1,55,-1
 496 398 l 1,56,-1
 328 398 l 1,57,-1
 349 508 l 1,58,-1
 653 508 l 1,59,-1
 637 427 l 1,60,-1
 461 194 l 1,61,-1
 446 217 l 1,62,63
 491 221 491 221 522.5 203.5 c 128,-1,64
 554 186 554 186 570 153 c 128,-1,65
 586 120 586 120 586 79 c 0,66,67
 586 27 586 27 569 -23.5 c 128,-1,68
 552 -74 552 -74 520 -114 c 128,-1,69
 488 -154 488 -154 445 -177.5 c 128,-1,70
 402 -201 402 -201 350 -201 c 0,37,38
EndSplineSet
EndChar

StartChar: uni02A6
Encoding: 678 678 533
Width: 614
GlyphClass: 2
Flags: W
AnchorPoint: "Anchor-3" 282 -20 basechar 0
AnchorPoint: "Anchor-0" 395 657 basechar 0
LayerCount: 2
Fore
SplineSet
273 -12 m 0,0,1
 152 -12 152 -12 100 32 c 128,-1,2
 48 76 48 76 48 144 c 0,3,4
 48 166 48 166 52.5 186.5 c 128,-1,5
 57 207 57 207 61 227 c 2,6,-1
 97 398 l 1,7,-1
 30 398 l 1,8,-1
 50 502 l 1,9,-1
 125 508 l 1,10,-1
 177 664 l 1,11,-1
 292 664 l 1,12,-1
 259 508 l 1,13,-1
 425 508 l 1,14,-1
 403 398 l 1,15,-1
 236 398 l 1,16,-1
 200 221 l 2,17,18
 197 206 197 206 194 194.5 c 128,-1,19
 191 183 191 183 191 169 c 0,20,21
 191 131 191 131 220.5 112 c 128,-1,22
 250 93 250 93 309 93 c 0,23,24
 356 93 356 93 383.5 102 c 128,-1,25
 411 111 411 111 422 125 c 128,-1,26
 433 139 433 139 433 157 c 0,27,28
 433 181 433 181 420 197 c 128,-1,29
 407 213 407 213 387.5 226.5 c 128,-1,30
 368 240 368 240 348.5 256.5 c 128,-1,31
 329 273 329 273 316 297 c 128,-1,32
 303 321 303 321 303 357 c 0,33,34
 303 404 303 404 326.5 441 c 128,-1,35
 350 478 350 478 390.5 499 c 128,-1,36
 431 520 431 520 479 520 c 0,37,38
 519 520 519 520 551.5 503 c 128,-1,39
 584 486 584 486 608 461 c 1,40,-1
 541 385 l 1,41,42
 526 399 526 399 511.5 407.5 c 128,-1,43
 497 416 497 416 477 416 c 256,44,45
 458 416 458 416 446 403.5 c 128,-1,46
 434 391 434 391 434 371 c 0,47,48
 434 353 434 353 447.5 339 c 128,-1,49
 461 325 461 325 480.5 311 c 128,-1,50
 500 297 500 297 519.5 279 c 128,-1,51
 539 261 539 261 552 235.5 c 128,-1,52
 565 210 565 210 565 173 c 0,53,54
 565 119 565 119 535.5 77.5 c 128,-1,55
 506 36 506 36 441.5 12 c 128,-1,56
 377 -12 377 -12 273 -12 c 0,0,1
EndSplineSet
EndChar

StartChar: uni02A7
Encoding: 679 679 534
Width: 614
GlyphClass: 1
Flags: W
LayerCount: 2
Fore
SplineSet
194 -12 m 0,0,1
 123 -12 123 -12 90.5 26.5 c 128,-1,2
 58 65 58 65 58 122 c 0,3,4
 58 139 58 139 60.5 154.5 c 128,-1,5
 63 170 63 170 66 186 c 2,6,-1
 111 398 l 1,7,-1
 43 398 l 1,8,-1
 63 502 l 1,9,-1
 138 508 l 1,10,-1
 190 664 l 1,11,-1
 304 664 l 1,12,-1
 271 508 l 1,13,-1
 490 508 l 1,14,-1
 469 398 l 1,15,-1
 249 398 l 1,16,-1
 205 180 l 2,17,18
 204 171 204 171 203 163.5 c 128,-1,19
 202 156 202 156 202 146 c 0,20,21
 202 121 202 121 212.5 109 c 128,-1,22
 223 97 223 97 247 97 c 0,23,24
 255 97 255 97 263.5 99 c 128,-1,25
 272 101 272 101 280 105 c 1,26,-1
 305 7 l 1,27,28
 287 0 287 0 258.5 -6 c 128,-1,29
 230 -12 230 -12 194 -12 c 0,0,1
281 -201 m 0,30,31
 254 -201 254 -201 235.5 -197 c 128,-1,32
 217 -193 217 -193 204 -186 c 1,33,-1
 245 -83 l 1,34,35
 254 -86 254 -86 263 -87.5 c 128,-1,36
 272 -89 272 -89 283 -89 c 0,37,38
 308 -89 308 -89 320.5 -68 c 128,-1,39
 333 -47 333 -47 342 -1 c 2,40,-1
 447 535 l 2,41,42
 457 585 457 585 481 630 c 128,-1,43
 505 675 505 675 549 702.5 c 128,-1,44
 593 730 593 730 659 730 c 0,45,46
 686 730 686 730 703.5 726 c 128,-1,47
 721 722 721 722 733 716 c 1,48,-1
 687 611 l 1,49,50
 680 614 680 614 673.5 616 c 128,-1,51
 667 618 667 618 657 618 c 0,52,53
 628 618 628 618 613.5 598.5 c 128,-1,54
 599 579 599 579 589 530 c 2,55,-1
 483 3 l 2,56,57
 473 -52 473 -52 450 -98.5 c 128,-1,58
 427 -145 427 -145 385.5 -173 c 128,-1,59
 344 -201 344 -201 281 -201 c 0,30,31
EndSplineSet
EndChar

StartChar: uni0294
Encoding: 660 660 535
Width: 614
GlyphClass: 2
Flags: W
AnchorPoint: "Anchor-3" 223 -20 basechar 0
AnchorPoint: "Anchor-0" 387 750 basechar 0
LayerCount: 2
Fore
SplineSet
152 0 m 1,0,-1
 217 322 l 1,1,2
 302 363 302 363 348 398.5 c 128,-1,3
 394 434 394 434 412 468 c 128,-1,4
 430 502 430 502 430 537 c 0,5,6
 430 577 430 577 406 597.5 c 128,-1,7
 382 618 382 618 340 618 c 256,8,9
 298 618 298 618 261.5 601 c 128,-1,10
 225 584 225 584 182 553 c 1,11,-1
 127 647 l 1,12,13
 163 673 163 673 197 692 c 128,-1,14
 231 711 231 711 271.5 720.5 c 128,-1,15
 312 730 312 730 364 730 c 0,16,17
 421 730 421 730 469 709.5 c 128,-1,18
 517 689 517 689 546 649.5 c 128,-1,19
 575 610 575 610 575 553 c 0,20,21
 575 464 575 464 514.5 396.5 c 128,-1,22
 454 329 454 329 344 269 c 1,23,-1
 292 0 l 1,24,-1
 152 0 l 1,0,-1
EndSplineSet
EndChar

StartChar: uni0295
Encoding: 661 661 536
Width: 614
GlyphClass: 2
Flags: W
AnchorPoint: "Anchor-3" 266 -20 basechar 0
AnchorPoint: "Anchor-0" 393 750 basechar 0
LayerCount: 2
Fore
SplineSet
195 0 m 1,0,-1
 248 266 l 1,1,2
 191 319 191 319 155.5 372 c 128,-1,3
 120 425 120 425 120 492 c 0,4,5
 120 564 120 564 154 617 c 128,-1,6
 188 670 188 670 247 700 c 128,-1,7
 306 730 306 730 377 730 c 0,8,9
 461 730 461 730 517 699.5 c 128,-1,10
 573 669 573 669 607 624 c 1,11,-1
 528 545 l 1,12,13
 495 582 495 582 461.5 600 c 128,-1,14
 428 618 428 618 379 618 c 0,15,16
 343 618 343 618 318 603.5 c 128,-1,17
 293 589 293 589 279 564 c 128,-1,18
 265 539 265 539 265 508 c 0,19,20
 265 474 265 474 276.5 445 c 128,-1,21
 288 416 288 416 317.5 386.5 c 128,-1,22
 347 357 347 357 398 322 c 1,23,-1
 335 0 l 1,24,-1
 195 0 l 1,0,-1
EndSplineSet
EndChar

StartChar: uni02A1
Encoding: 673 673 537
Width: 614
GlyphClass: 2
Flags: W
AnchorPoint: "Anchor-3" 223 -20 basechar 0
AnchorPoint: "Anchor-0" 387 750 basechar 0
LayerCount: 2
Fore
SplineSet
152 0 m 1,0,-1
 201 244 l 1,1,-1
 70 244 l 1,2,-1
 84 312 l 1,3,-1
 216 318 l 1,4,5
 301 359 301 359 347.5 396 c 128,-1,6
 394 433 394 433 412 467.5 c 128,-1,7
 430 502 430 502 430 537 c 0,8,9
 430 577 430 577 406 597.5 c 128,-1,10
 382 618 382 618 340 618 c 256,11,12
 298 618 298 618 261.5 601 c 128,-1,13
 225 584 225 584 182 553 c 1,14,-1
 127 647 l 1,15,16
 163 673 163 673 197 692 c 128,-1,17
 231 711 231 711 271.5 720 c 128,-1,18
 312 729 312 729 364 729 c 0,19,20
 421 729 421 729 469 709 c 128,-1,21
 517 689 517 689 546 650 c 128,-1,22
 575 611 575 611 575 552 c 0,23,24
 575 481 575 481 527.5 424 c 128,-1,25
 480 367 480 367 399 318 c 1,26,-1
 530 318 l 1,27,-1
 514 244 l 1,28,-1
 340 244 l 1,29,-1
 292 0 l 1,30,-1
 152 0 l 1,0,-1
EndSplineSet
EndChar

StartChar: uni02A2
Encoding: 674 674 538
Width: 614
GlyphClass: 2
Flags: W
AnchorPoint: "Anchor-3" 258 -20 basechar 0
AnchorPoint: "Anchor-0" 393 750 basechar 0
LayerCount: 2
Fore
SplineSet
195 0 m 1,0,-1
 244 244 l 1,1,-1
 73 244 l 1,2,-1
 87 312 l 1,3,-1
 214 318 l 1,4,5
 167 357 167 357 143.5 400 c 128,-1,6
 120 443 120 443 120 492 c 0,7,8
 120 564 120 564 154 617 c 128,-1,9
 188 670 188 670 247 699.5 c 128,-1,10
 306 729 306 729 377 729 c 0,11,12
 461 729 461 729 517 699 c 128,-1,13
 573 669 573 669 607 623 c 1,14,-1
 528 545 l 1,15,16
 496 582 496 582 462 600 c 128,-1,17
 428 618 428 618 379 618 c 0,18,19
 344 618 344 618 318.5 603.5 c 128,-1,20
 293 589 293 589 279 564 c 128,-1,21
 265 539 265 539 265 508 c 0,22,23
 265 450 265 450 295.5 408 c 128,-1,24
 326 366 326 366 385 318 c 1,25,-1
 534 318 l 1,26,-1
 517 244 l 1,27,-1
 384 244 l 1,28,-1
 335 0 l 1,29,-1
 195 0 l 1,0,-1
EndSplineSet
EndChar

StartChar: uni01C2
Encoding: 450 450 539
Width: 614
GlyphClass: 1
Flags: W
LayerCount: 2
Fore
SplineSet
130 -188 m 1,0,-1
 332 717 l 1,1,-1
 468 717 l 1,2,-1
 267 -188 l 1,3,-1
 130 -188 l 1,0,-1
86 337 m 1,4,-1
 99 408 l 1,5,-1
 266 413 l 1,6,-1
 544 413 l 1,7,-1
 528 337 l 1,8,-1
 86 337 l 1,4,-1
47 135 m 1,9,-1
 59 206 l 1,10,-1
 226 212 l 1,11,-1
 504 212 l 1,12,-1
 488 135 l 1,13,-1
 47 135 l 1,9,-1
EndSplineSet
EndChar

StartChar: uni0298
Encoding: 664 664 540
Width: 614
GlyphClass: 1
Flags: W
LayerCount: 2
Fore
SplineSet
259 -12 m 0,0,1
 193 -12 193 -12 146.5 19 c 128,-1,2
 100 50 100 50 75.5 107 c 128,-1,3
 51 164 51 164 51 239 c 0,4,5
 51 338 51 338 72.5 426.5 c 128,-1,6
 94 515 94 515 135.5 583 c 128,-1,7
 177 651 177 651 236.5 690.5 c 128,-1,8
 296 730 296 730 371 730 c 0,9,10
 437 730 437 730 483 698.5 c 128,-1,11
 529 667 529 667 554 610.5 c 128,-1,12
 579 554 579 554 579 479 c 0,13,14
 579 380 579 380 557.5 291.5 c 128,-1,15
 536 203 536 203 494.5 134.5 c 128,-1,16
 453 66 453 66 393.5 27 c 128,-1,17
 334 -12 334 -12 259 -12 c 0,0,1
267 102 m 0,18,19
 303 102 303 102 336 132.5 c 128,-1,20
 369 163 369 163 394 215 c 128,-1,21
 419 267 419 267 434 335.5 c 128,-1,22
 449 404 449 404 449 481 c 0,23,24
 449 548 449 548 427.5 581.5 c 128,-1,25
 406 615 406 615 362 615 c 0,26,27
 326 615 326 615 293.5 585 c 128,-1,28
 261 555 261 555 236 502.5 c 128,-1,29
 211 450 211 450 196 381.5 c 128,-1,30
 181 313 181 313 181 236 c 0,31,32
 181 169 181 169 203 135.5 c 128,-1,33
 225 102 225 102 267 102 c 0,18,19
313 288 m 0,34,35
 285 288 285 288 267.5 303.5 c 128,-1,36
 250 319 250 319 250 351 c 0,37,38
 250 385 250 385 271.5 409.5 c 128,-1,39
 293 434 293 434 325 434 c 0,40,41
 354 434 354 434 371 418 c 128,-1,42
 388 402 388 402 388 371 c 0,43,44
 388 338 388 338 367 313 c 128,-1,45
 346 288 346 288 313 288 c 0,34,35
EndSplineSet
EndChar

StartChar: uni014A.a
Encoding: 1114119 -1 541
Width: 614
GlyphClass: 2
Flags: W
AnchorPoint: "Anchor-0" 373 688 basechar 0
LayerCount: 2
Fore
SplineSet
286 -185 m 0,0,1
 259 -185 259 -185 236 -180 c 128,-1,2
 213 -175 213 -175 187 -163 c 1,3,-1
 230 -62 l 1,4,5
 241 -68 241 -68 251.5 -71.5 c 128,-1,6
 262 -75 262 -75 274 -75 c 0,7,8
 298 -75 298 -75 313.5 -59 c 128,-1,9
 329 -43 329 -43 338 -1 c 1,10,-1
 252 349 l 1,11,-1
 226 495 l 1,12,-1
 222 495 l 1,13,14
 219 459 219 459 214.5 414 c 128,-1,15
 210 369 210 369 204.5 325.5 c 128,-1,16
 199 282 199 282 193 249 c 2,17,-1
 144 0 l 1,18,-1
 11 0 l 1,19,-1
 145 668 l 1,20,-1
 286 668 l 1,21,-1
 366 317 l 1,22,-1
 392 173 l 1,23,-1
 396 173 l 1,24,25
 398 199 398 199 402 232 c 128,-1,26
 406 265 406 265 409.5 299 c 128,-1,27
 413 333 413 333 417 361.5 c 128,-1,28
 421 390 421 390 425 410 c 2,29,-1
 476 668 l 1,30,-1
 608 668 l 1,31,-1
 474 -4 l 2,32,33
 464 -54 464 -54 441.5 -95.5 c 128,-1,34
 419 -137 419 -137 381.5 -161 c 128,-1,35
 344 -185 344 -185 286 -185 c 0,0,1
EndSplineSet
EndChar

StartChar: a.a
Encoding: 1114120 -1 542
Width: 614
GlyphClass: 2
Flags: W
AnchorPoint: "Anchor-6" 381 0 basechar 0
AnchorPoint: "Anchor-3" 251 -20 basechar 0
AnchorPoint: "Anchor-2" 421 0 basechar 0
AnchorPoint: "Anchor-0" 342 528 basechar 0
LayerCount: 2
Fore
SplineSet
172 -12 m 0,0,1
 111 -12 111 -12 71 21.5 c 128,-1,2
 31 55 31 55 31 112 c 0,3,4
 31 175 31 175 69.5 220.5 c 128,-1,5
 108 266 108 266 189 292 c 128,-1,6
 270 318 270 318 401 323 c 1,7,8
 404 333 404 333 405 339 c 128,-1,9
 406 345 406 345 406 348 c 0,10,11
 406 377 406 377 386.5 394 c 128,-1,12
 367 411 367 411 322 411 c 0,13,14
 293 411 293 411 266.5 405.5 c 128,-1,15
 240 400 240 400 210.5 389 c 128,-1,16
 181 378 181 378 146 362 c 1,17,-1
 105 460 l 1,18,19
 143 478 143 478 183 491.5 c 128,-1,20
 223 505 223 505 266.5 512.5 c 128,-1,21
 310 520 310 520 357 520 c 0,22,23
 439 520 439 520 490.5 480 c 128,-1,24
 542 440 542 440 542 359 c 0,25,26
 542 344 542 344 540.5 328 c 128,-1,27
 539 312 539 312 535 291 c 2,28,-1
 477 0 l 1,29,-1
 364 0 l 1,30,-1
 367 69 l 1,31,-1
 362 69 l 1,32,33
 323 31 323 31 274.5 9.5 c 128,-1,34
 226 -12 226 -12 172 -12 c 0,0,1
226 95 m 0,35,36
 259 95 259 95 300.5 113 c 128,-1,37
 342 131 342 131 374 166 c 1,38,-1
 387 244 l 1,39,40
 306 239 306 239 258 224.5 c 128,-1,41
 210 210 210 210 189 188 c 128,-1,42
 168 166 168 166 168 141 c 0,43,44
 168 117 168 117 183 106 c 128,-1,45
 198 95 198 95 226 95 c 0,35,36
EndSplineSet
EndChar

StartChar: aringacute.a
Encoding: 1114129 -1 551
Width: 614
GlyphClass: 1
Flags: W
LayerCount: 2
Fore
SplineSet
341 734 m 1,0,-1
 300 766 l 1,1,-1
 457 902 l 1,2,-1
 518 842 l 1,3,-1
 341 734 l 1,0,-1
172 -12 m 0,4,5
 111 -12 111 -12 71 21.5 c 128,-1,6
 31 55 31 55 31 112 c 0,7,8
 31 175 31 175 69.5 220.5 c 128,-1,9
 108 266 108 266 189 292 c 128,-1,10
 270 318 270 318 401 323 c 1,11,12
 404 333 404 333 405 339 c 128,-1,13
 406 345 406 345 406 348 c 0,14,15
 406 377 406 377 386.5 394 c 128,-1,16
 367 411 367 411 322 411 c 0,17,18
 293 411 293 411 266.5 405.5 c 128,-1,19
 240 400 240 400 210.5 389 c 128,-1,20
 181 378 181 378 146 362 c 1,21,-1
 105 460 l 1,22,23
 143 478 143 478 183 491.5 c 128,-1,24
 223 505 223 505 266.5 512.5 c 128,-1,25
 310 520 310 520 357 520 c 0,26,27
 439 520 439 520 490.5 480 c 128,-1,28
 542 440 542 440 542 359 c 0,29,30
 542 344 542 344 540.5 328 c 128,-1,31
 539 312 539 312 535 291 c 2,32,-1
 477 0 l 1,33,-1
 364 0 l 1,34,-1
 367 69 l 1,35,-1
 362 69 l 1,36,37
 323 31 323 31 274.5 9.5 c 128,-1,38
 226 -12 226 -12 172 -12 c 0,4,5
226 95 m 0,39,40
 259 95 259 95 300.5 113 c 128,-1,41
 342 131 342 131 374 166 c 1,42,-1
 387 244 l 1,43,44
 306 239 306 239 258 224.5 c 128,-1,45
 210 210 210 210 189 188 c 128,-1,46
 168 166 168 166 168 141 c 0,47,48
 168 117 168 117 183 106 c 128,-1,49
 198 95 198 95 226 95 c 0,39,40
358 580 m 0,50,51
 308 580 308 580 275 604 c 128,-1,52
 242 628 242 628 242 671 c 0,53,54
 242 721 242 721 283.5 754.5 c 128,-1,55
 325 788 325 788 389 788 c 0,56,57
 440 788 440 788 473 764.5 c 128,-1,58
 506 741 506 741 506 697 c 0,59,60
 506 648 506 648 464.5 614 c 128,-1,61
 423 580 423 580 358 580 c 0,50,51
368 634 m 0,62,63
 388 634 388 634 403 652 c 128,-1,64
 418 670 418 670 418 693 c 0,65,66
 418 709 418 709 408.5 721.5 c 128,-1,67
 399 734 399 734 380 734 c 0,68,69
 360 734 360 734 345 716 c 128,-1,70
 330 698 330 698 330 675 c 0,71,72
 330 658 330 658 340 646 c 128,-1,73
 350 634 350 634 368 634 c 0,62,63
EndSplineSet
EndChar

StartChar: aogonek.a
Encoding: 1114143 -1 565
Width: 614
GlyphClass: 2
Flags: W
AnchorPoint: "Anchor-0" 342 528 basechar 0
LayerCount: 2
Fore
SplineSet
357 -232 m 0,0,1
 313 -232 313 -232 284.5 -210 c 128,-1,2
 256 -188 256 -188 256 -145 c 0,3,4
 256 -110 256 -110 274 -81 c 128,-1,5
 292 -52 292 -52 317 -31 c 128,-1,6
 342 -10 342 -10 364 2 c 1,7,-1
 367 69 l 1,8,-1
 362 69 l 1,9,10
 323 31 323 31 274.5 9.5 c 128,-1,11
 226 -12 226 -12 172 -12 c 0,12,13
 111 -12 111 -12 71 21.5 c 128,-1,14
 31 55 31 55 31 112 c 0,15,16
 31 175 31 175 69.5 220.5 c 128,-1,17
 108 266 108 266 189 292 c 128,-1,18
 270 318 270 318 401 323 c 1,19,20
 404 333 404 333 405 339 c 128,-1,21
 406 345 406 345 406 348 c 0,22,23
 406 377 406 377 386.5 394 c 128,-1,24
 367 411 367 411 322 411 c 0,25,26
 293 411 293 411 266.5 405.5 c 128,-1,27
 240 400 240 400 210.5 389 c 128,-1,28
 181 378 181 378 146 362 c 1,29,-1
 105 460 l 1,30,31
 143 478 143 478 183 491.5 c 128,-1,32
 223 505 223 505 266.5 512.5 c 128,-1,33
 310 520 310 520 357 520 c 0,34,35
 439 520 439 520 490.5 480 c 128,-1,36
 542 440 542 440 542 359 c 0,37,38
 542 344 542 344 540.5 328 c 128,-1,39
 539 312 539 312 535 291 c 2,40,-1
 477 -1 l 1,41,42
 410 -23 410 -23 383.5 -50.5 c 128,-1,43
 357 -78 357 -78 357 -105 c 0,44,45
 357 -125 357 -125 372 -136.5 c 128,-1,46
 387 -148 387 -148 408 -148 c 0,47,48
 420 -148 420 -148 429.5 -145.5 c 128,-1,49
 439 -143 439 -143 452 -137 c 1,50,-1
 475 -194 l 1,51,52
 452 -211 452 -211 422 -221.5 c 128,-1,53
 392 -232 392 -232 357 -232 c 0,0,1
226 95 m 0,54,55
 259 95 259 95 300.5 113 c 128,-1,56
 342 131 342 131 374 166 c 1,57,-1
 387 244 l 1,58,59
 306 239 306 239 258 224.5 c 128,-1,60
 210 210 210 210 189 188 c 128,-1,61
 168 166 168 166 168 141 c 0,62,63
 168 117 168 117 183 106 c 128,-1,64
 198 95 198 95 226 95 c 0,54,55
EndSplineSet
EndChar

StartChar: g.a
Encoding: 1114144 -1 566
Width: 614
GlyphClass: 2
Flags: W
AnchorPoint: "Anchor-3" 202 -208 basechar 0
AnchorPoint: "Anchor-0" 342 528 basechar 0
LayerCount: 2
Fore
SplineSet
204 -216 m 0,0,1
 172 -216 172 -216 133 -211.5 c 128,-1,2
 94 -207 94 -207 59.5 -194 c 128,-1,3
 25 -181 25 -181 3 -157.5 c 128,-1,4
 -19 -134 -19 -134 -19 -95 c 0,5,6
 -19 -51 -19 -51 11 -22 c 128,-1,7
 41 7 41 7 86 27 c 1,8,-1
 86 30 l 1,9,10
 72 43 72 43 63.5 60 c 128,-1,11
 55 77 55 77 55 99 c 0,12,13
 55 132 55 132 76.5 157 c 128,-1,14
 98 182 98 182 131 200 c 1,15,-1
 131 204 l 1,16,17
 106 223 106 223 93 252.5 c 128,-1,18
 80 282 80 282 80 317 c 0,19,20
 80 375 80 375 111.5 421.5 c 128,-1,21
 143 468 143 468 197 494 c 128,-1,22
 251 520 251 520 314 520 c 0,23,24
 373 520 373 520 416 497.5 c 128,-1,25
 459 475 459 475 481.5 438 c 128,-1,26
 504 401 504 401 504 358 c 0,27,28
 504 302 504 302 472.5 257.5 c 128,-1,29
 441 213 441 213 388.5 187 c 128,-1,30
 336 161 336 161 271 161 c 0,31,32
 255 161 255 161 234 163.5 c 128,-1,33
 213 166 213 166 197 171 c 1,34,35
 184 164 184 164 177 153 c 128,-1,36
 170 142 170 142 170 129 c 0,37,38
 170 117 170 117 178 108.5 c 128,-1,39
 186 100 186 100 209 95 c 128,-1,40
 232 90 232 90 279 86 c 0,41,42
 363 79 363 79 409.5 62.5 c 128,-1,43
 456 46 456 46 474 21.5 c 128,-1,44
 492 -3 492 -3 492 -36 c 0,45,46
 492 -81 492 -81 467.5 -115.5 c 128,-1,47
 443 -150 443 -150 402 -172.5 c 128,-1,48
 361 -195 361 -195 310 -205.5 c 128,-1,49
 259 -216 259 -216 204 -216 c 0,0,1
282 247 m 0,50,51
 314 247 314 247 337 263.5 c 128,-1,52
 360 280 360 280 372.5 304.5 c 128,-1,53
 385 329 385 329 385 355 c 0,54,55
 385 388 385 388 365 406.5 c 128,-1,56
 345 425 345 425 310 425 c 0,57,58
 278 425 278 425 255.5 408.5 c 128,-1,59
 233 392 233 392 220.5 367 c 128,-1,60
 208 342 208 342 208 315 c 0,61,62
 208 282 208 282 228 264.5 c 128,-1,63
 248 247 248 247 282 247 c 0,50,51
218 -129 m 0,64,65
 262 -129 262 -129 292.5 -122 c 128,-1,66
 323 -115 323 -115 338 -101.5 c 128,-1,67
 353 -88 353 -88 353 -71 c 0,68,69
 353 -55 353 -55 340 -45 c 128,-1,70
 327 -35 327 -35 300.5 -29.5 c 128,-1,71
 274 -24 274 -24 237 -19 c 0,72,73
 213 -16 213 -16 196 -13 c 128,-1,74
 179 -10 179 -10 156 -4 c 1,75,76
 142 -11 142 -11 129 -21.5 c 128,-1,77
 116 -32 116 -32 108 -44 c 128,-1,78
 100 -56 100 -56 100 -71 c 0,79,80
 100 -90 100 -90 113.5 -103 c 128,-1,81
 127 -116 127 -116 153 -122.5 c 128,-1,82
 179 -129 179 -129 218 -129 c 0,64,65
455 403 m 1,83,-1
 355 508 l 1,84,-1
 591 508 l 1,85,-1
 570 403 l 1,86,-1
 455 403 l 1,83,-1
EndSplineSet
EndChar

StartChar: iogonek.d
Encoding: 1114153 -1 575
Width: 614
GlyphClass: 2
Flags: W
AnchorPoint: "Anchor-0" 340 528 basechar 0
LayerCount: 2
Fore
SplineSet
352 -232 m 0,0,1
 308 -232 308 -232 279.5 -210 c 128,-1,2
 251 -188 251 -188 251 -145 c 0,3,4
 251 -101 251 -101 278.5 -69.5 c 128,-1,5
 306 -38 306 -38 347 -12 c 1,6,7
 346 -12 346 -12 345 -12 c 128,-1,8
 344 -12 344 -12 342 -12 c 0,9,10
 276 -12 276 -12 232 27 c 128,-1,11
 188 66 188 66 188 133 c 0,12,13
 188 148 188 148 191.5 163 c 128,-1,14
 195 178 195 178 199 195 c 2,15,-1
 249 398 l 1,16,-1
 82 398 l 1,17,-1
 104 508 l 1,18,-1
 412 508 l 1,19,-1
 336 187 l 2,20,21
 335 181 335 181 333.5 174.5 c 128,-1,22
 332 168 332 168 332 161 c 0,23,24
 332 129 332 129 349.5 115.5 c 128,-1,25
 367 102 367 102 393 102 c 0,26,27
 412 102 412 102 431 107.5 c 128,-1,28
 450 113 450 113 473 123 c 1,29,-1
 502 17 l 1,30,31
 420 -18 420 -18 385.5 -47 c 128,-1,32
 351 -76 351 -76 351 -105 c 0,33,34
 351 -125 351 -125 366.5 -136.5 c 128,-1,35
 382 -148 382 -148 402 -148 c 0,36,37
 414 -148 414 -148 423.5 -145.5 c 128,-1,38
 433 -143 433 -143 445 -137 c 1,39,-1
 470 -194 l 1,40,41
 447 -211 447 -211 417 -221.5 c 128,-1,42
 387 -232 387 -232 352 -232 c 0,0,1
EndSplineSet
Ligature2: "Ligature Substitution lookup 4 subtable" i uni0328
EndChar

StartChar: uni0268.d
Encoding: 1114154 -1 576
Width: 614
GlyphClass: 2
Flags: W
AnchorPoint: "Anchor-3" 319 -20 basechar 0
AnchorPoint: "Anchor-0" 328 528 basechar 0
LayerCount: 2
Fore
SplineSet
66 223 m 1,0,-1
 79 291 l 1,1,-1
 227 297 l 1,2,-1
 497 297 l 1,3,-1
 481 223 l 1,4,-1
 66 223 l 1,0,-1
350 -12 m 0,5,6
 277 -12 277 -12 232.5 27 c 128,-1,7
 188 66 188 66 188 133 c 0,8,9
 188 147 188 147 191.5 162.5 c 128,-1,10
 195 178 195 178 199 195 c 2,11,-1
 249 398 l 1,12,-1
 81 398 l 1,13,-1
 104 508 l 1,14,-1
 412 508 l 1,15,-1
 336 187 l 2,16,17
 335 181 335 181 333.5 174.5 c 128,-1,18
 332 168 332 168 332 161 c 0,19,20
 332 129 332 129 349.5 115.5 c 128,-1,21
 367 102 367 102 393 102 c 0,22,23
 412 102 412 102 431 107.5 c 128,-1,24
 450 113 450 113 473 123 c 1,25,-1
 502 17 l 1,26,27
 469 4 469 4 433 -4 c 128,-1,28
 397 -12 397 -12 350 -12 c 0,5,6
EndSplineSet
EndChar

StartChar: uni029D.d
Encoding: 1114155 -1 577
Width: 614
GlyphClass: 2
Flags: W
AnchorPoint: "Anchor-3" 167 -210 basechar 0
AnchorPoint: "Anchor-0" 407 528 basechar 0
LayerCount: 2
Fore
SplineSet
341 -233 m 1,0,1
 327 -163 327 -163 299.5 -114 c 128,-1,2
 272 -65 272 -65 237.5 -38.5 c 128,-1,3
 203 -12 203 -12 167 -12 c 0,4,5
 141 -12 141 -12 128 -25 c 128,-1,6
 115 -38 115 -38 115 -56 c 0,7,8
 115 -70 115 -70 126.5 -80 c 128,-1,9
 138 -90 138 -90 164 -90 c 0,10,11
 186 -90 186 -90 202 -80 c 128,-1,12
 218 -70 218 -70 229.5 -51 c 128,-1,13
 241 -32 241 -32 246 -7 c 2,14,-1
 328 398 l 1,15,-1
 119 398 l 1,16,-1
 141 508 l 1,17,-1
 488 508 l 1,18,-1
 392 26 l 2,19,20
 379 -37 379 -37 347 -88.5 c 128,-1,21
 315 -140 315 -140 267.5 -170.5 c 128,-1,22
 220 -201 220 -201 160 -201 c 0,23,24
 91 -201 91 -201 48 -164.5 c 128,-1,25
 5 -128 5 -128 5 -72 c 0,26,27
 5 0 5 0 50 43.5 c 128,-1,28
 95 87 95 87 176 87 c 0,29,30
 213 87 213 87 256.5 70 c 128,-1,31
 300 53 300 53 341 19.5 c 128,-1,32
 382 -14 382 -14 414 -64.5 c 128,-1,33
 446 -115 446 -115 462 -182 c 1,34,-1
 341 -233 l 1,0,1
EndSplineSet
EndChar

StartChar: pi
Encoding: 960 960 578
Width: 614
GlyphClass: 1
Flags: W
LayerCount: 2
Fore
SplineSet
170 -8 m 1,0,-1
 33 0 l 1,1,2
 56 70 56 70 76 143.5 c 128,-1,3
 96 217 96 217 113 286.5 c 128,-1,4
 130 356 130 356 140 414 c 1,5,-1
 268 414 l 1,6,7
 256 352 256 352 240 280 c 128,-1,8
 224 208 224 208 206 134.5 c 128,-1,9
 188 61 188 61 170 -8 c 1,0,-1
39 400 m 1,10,-1
 59 502 l 1,11,-1
 136 508 l 1,12,-1
 636 508 l 1,13,-1
 614 400 l 1,14,-1
 39 400 l 1,10,-1
452 -12 m 0,15,16
 391 -12 391 -12 365 18 c 128,-1,17
 339 48 339 48 339 96 c 0,18,19
 339 120 339 120 345 157 c 128,-1,20
 351 194 351 194 360.5 238 c 128,-1,21
 370 282 370 282 380 326.5 c 128,-1,22
 390 371 390 371 400 410 c 1,23,-1
 531 410 l 1,24,25
 520 368 520 368 509.5 324.5 c 128,-1,26
 499 281 499 281 490 241.5 c 128,-1,27
 481 202 481 202 476 172.5 c 128,-1,28
 471 143 471 143 471 131 c 0,29,30
 471 114 471 114 479 106.5 c 128,-1,31
 487 99 487 99 499 99 c 0,32,33
 508 99 508 99 516.5 101 c 128,-1,34
 525 103 525 103 532 105 c 1,35,-1
 544 5 l 1,36,37
 531 0 531 0 505 -6 c 128,-1,38
 479 -12 479 -12 452 -12 c 0,15,16
EndSplineSet
EndChar

StartChar: uni2116
Encoding: 8470 8470 579
Width: 614
GlyphClass: 1
Flags: W
LayerCount: 2
Fore
SplineSet
-53 -12 m 0,0,1
 -61 -12 -61 -12 -69.5 -11 c 128,-1,2
 -78 -10 -78 -10 -86 -8 c 1,3,-1
 -73 100 l 1,4,5
 -58 100 -58 100 -49 109.5 c 128,-1,6
 -40 119 -40 119 -34 146 c 2,7,-1
 67 650 l 1,8,-1
 202 650 l 1,9,-1
 223 280 l 1,10,-1
 230 161 l 1,11,-1
 234 161 l 1,12,13
 239 222 239 222 245 275 c 128,-1,14
 251 328 251 328 257 371 c 128,-1,15
 263 414 263 414 269 446 c 2,16,-1
 286 528 l 2,17,18
 299 594 299 594 328.5 628.5 c 128,-1,19
 358 663 358 663 409 663 c 0,20,21
 417 663 417 663 425.5 661.5 c 128,-1,22
 434 660 434 660 441 658 c 1,23,-1
 429 550 l 1,24,25
 413 550 413 550 404 541 c 128,-1,26
 395 532 395 532 389 504 c 2,27,-1
 290 0 l 1,28,-1
 155 0 l 1,29,-1
 133 371 l 1,30,-1
 126 489 l 1,31,-1
 122 489 l 1,32,33
 116 428 116 428 110 375.5 c 128,-1,34
 104 323 104 323 98.5 280.5 c 128,-1,35
 93 238 93 238 86 204 c 2,36,-1
 71 122 l 2,37,38
 58 56 58 56 27.5 22 c 128,-1,39
 -3 -12 -3 -12 -53 -12 c 0,0,1
510 275 m 0,40,41
 469 275 469 275 441.5 303.5 c 128,-1,42
 414 332 414 332 414 391 c 0,43,44
 414 454 414 454 435.5 506 c 128,-1,45
 457 558 457 558 493.5 588 c 128,-1,46
 530 618 530 618 577 618 c 0,47,48
 619 618 619 618 646 590 c 128,-1,49
 673 562 673 562 673 503 c 0,50,51
 673 440 673 440 651.5 388 c 128,-1,52
 630 336 630 336 593.5 305.5 c 128,-1,53
 557 275 557 275 510 275 c 0,40,41
529 359 m 0,54,55
 544 359 544 359 557 379 c 128,-1,56
 570 399 570 399 578 429 c 128,-1,57
 586 459 586 459 586 489 c 0,58,59
 586 514 586 514 578.5 524.5 c 128,-1,60
 571 535 571 535 557 535 c 0,61,62
 542 535 542 535 529 515 c 128,-1,63
 516 495 516 495 508.5 464.5 c 128,-1,64
 501 434 501 434 501 403 c 0,65,66
 501 379 501 379 508 369 c 128,-1,67
 515 359 515 359 529 359 c 0,54,55
395 153 m 1,68,-1
 410 229 l 1,69,-1
 592 229 l 1,70,-1
 577 153 l 1,71,-1
 395 153 l 1,68,-1
EndSplineSet
EndChar

